G04 #@! TF.FileFunction,Copper,L2,Bot,Signal*
%FSLAX46Y46*%
G04 Gerber Fmt 4.6, Leading zero omitted, Abs format (unit mm)*
G04 Created by KiCad (PCBNEW 4.0.7-e2-6376~58~ubuntu16.04.1) date Tue Sep 12 22:43:55 2017*
%MOMM*%
%LPD*%
G01*
G04 APERTURE LIST*
%ADD10C,0.100000*%
%ADD11C,0.508000*%
%ADD12R,2.000000X2.000000*%
%ADD13C,2.000000*%
%ADD14R,1.300000X1.550000*%
%ADD15R,1.200000X0.900000*%
%ADD16R,1.270000X0.970000*%
%ADD17R,2.600000X2.000000*%
%ADD18O,2.600000X2.000000*%
%ADD19C,0.812800*%
%ADD20C,0.609600*%
%ADD21C,0.381000*%
%ADD22C,0.254000*%
G04 APERTURE END LIST*
D10*
D11*
X173000000Y-94000000D03*
X109000000Y-94000000D03*
D12*
X178500000Y-97750000D03*
D13*
X178500000Y-90150000D03*
D14*
X104250000Y-97980000D03*
X108750000Y-97980000D03*
X108750000Y-90020000D03*
X104250000Y-90020000D03*
D15*
X105314000Y-100924000D03*
X107514000Y-100924000D03*
D16*
X104636000Y-85176000D03*
X104636000Y-86446000D03*
X104636000Y-87716000D03*
D17*
X100318000Y-88478000D03*
D18*
X100318000Y-91018000D03*
D17*
X100318000Y-97114000D03*
D18*
X100318000Y-99654000D03*
D16*
X108192000Y-87716000D03*
X108192000Y-86446000D03*
X108192000Y-85176000D03*
D19*
X149124327Y-100678667D03*
X145000000Y-97000000D03*
X128500000Y-98500000D03*
X103182552Y-87697935D03*
X109800035Y-85205290D03*
D20*
X140623803Y-95000000D03*
X109716000Y-100924000D03*
D19*
X131138536Y-99064583D03*
D21*
X106488161Y-87716000D02*
X106488161Y-89201860D01*
X106488161Y-89201860D02*
X105670021Y-90020000D01*
X105670021Y-90020000D02*
X104250000Y-90020000D01*
X148549591Y-100678667D02*
X149124327Y-100678667D01*
X110994667Y-100678667D02*
X148549591Y-100678667D01*
X105281000Y-97980000D02*
X106906518Y-99605518D01*
X109921518Y-99605518D02*
X110994667Y-100678667D01*
X104250000Y-97980000D02*
X105281000Y-97980000D01*
X106906518Y-99605518D02*
X109921518Y-99605518D01*
X106488161Y-85667729D02*
X106488161Y-87716000D01*
X108192000Y-87716000D02*
X106488161Y-87716000D01*
X104636000Y-85176000D02*
X105996432Y-85176000D01*
X105996432Y-85176000D02*
X106488161Y-85667729D01*
X108192000Y-87716000D02*
X108163998Y-87687998D01*
X104250000Y-97980000D02*
X104250000Y-97855000D01*
X104250000Y-97855000D02*
X104250000Y-90020000D01*
X103200617Y-87716000D02*
X103182552Y-87697935D01*
X104636000Y-87716000D02*
X103200617Y-87716000D01*
X109770745Y-85176000D02*
X109800035Y-85205290D01*
X108192000Y-85176000D02*
X109770745Y-85176000D01*
D22*
X108750000Y-90020000D02*
X108750000Y-91049000D01*
X108750000Y-91049000D02*
X108386692Y-91412308D01*
X108386692Y-91412308D02*
X108386692Y-96587692D01*
X108386692Y-96587692D02*
X108750000Y-96951000D01*
X108750000Y-96951000D02*
X108750000Y-97980000D01*
X108750000Y-97980000D02*
X110076815Y-97980000D01*
X110076815Y-97980000D02*
X112227642Y-100130827D01*
X139369173Y-100130827D02*
X140623803Y-98876197D01*
X140623803Y-98876197D02*
X140623803Y-95000000D01*
X112227642Y-100130827D02*
X139369173Y-100130827D01*
D21*
X103620000Y-86446000D02*
X104636000Y-86446000D01*
X103248844Y-86446000D02*
X103620000Y-86446000D01*
X102375165Y-90641835D02*
X102375165Y-87319679D01*
X101999000Y-91018000D02*
X102375165Y-90641835D01*
X100318000Y-91018000D02*
X101999000Y-91018000D01*
X102375165Y-87319679D02*
X103248844Y-86446000D01*
D22*
X103747000Y-86446000D02*
X104636000Y-86446000D01*
X109716000Y-100924000D02*
X107514000Y-100924000D01*
D21*
X108192000Y-86446000D02*
X110856415Y-86446000D01*
X110856415Y-86446000D02*
X112500000Y-88089585D01*
X112500000Y-88089585D02*
X112500000Y-97500000D01*
X130604137Y-99598982D02*
X131138536Y-99064583D01*
X112500000Y-97500000D02*
X114598982Y-99598982D01*
X114598982Y-99598982D02*
X130604137Y-99598982D01*
D22*
G36*
X145565091Y-84129663D02*
X145577204Y-84170821D01*
X145577945Y-84172239D01*
X145578407Y-84173768D01*
X145598529Y-84211612D01*
X145618435Y-84249689D01*
X145619438Y-84250937D01*
X145620188Y-84252347D01*
X145647284Y-84285569D01*
X145674200Y-84319046D01*
X145675426Y-84320075D01*
X145676436Y-84321313D01*
X145709471Y-84348642D01*
X145742375Y-84376252D01*
X145743777Y-84377023D01*
X145745008Y-84378041D01*
X145782723Y-84398434D01*
X145820362Y-84419126D01*
X145821887Y-84419610D01*
X145823293Y-84420370D01*
X145864289Y-84433060D01*
X145905192Y-84446035D01*
X145906781Y-84446213D01*
X145908308Y-84446686D01*
X145950956Y-84451169D01*
X145993633Y-84455956D01*
X145996705Y-84455977D01*
X145996817Y-84455989D01*
X145996929Y-84455979D01*
X146000000Y-84456000D01*
X185544000Y-84456000D01*
X185544000Y-103544000D01*
X171000000Y-103544000D01*
X170957272Y-103548189D01*
X170914554Y-103552077D01*
X170913022Y-103552528D01*
X170911429Y-103552684D01*
X170870337Y-103565091D01*
X170829179Y-103577204D01*
X170827761Y-103577945D01*
X170826232Y-103578407D01*
X170788388Y-103598529D01*
X170750311Y-103618435D01*
X170749063Y-103619438D01*
X170747653Y-103620188D01*
X170714431Y-103647284D01*
X170680954Y-103674200D01*
X170679925Y-103675426D01*
X170678687Y-103676436D01*
X170651358Y-103709471D01*
X170623748Y-103742375D01*
X170622977Y-103743777D01*
X170621959Y-103745008D01*
X170601566Y-103782723D01*
X170580874Y-103820362D01*
X170580390Y-103821887D01*
X170579630Y-103823293D01*
X170566940Y-103864289D01*
X170564177Y-103873000D01*
X156435713Y-103873000D01*
X156434909Y-103870337D01*
X156422796Y-103829179D01*
X156422055Y-103827761D01*
X156421593Y-103826232D01*
X156401471Y-103788388D01*
X156381565Y-103750311D01*
X156380562Y-103749063D01*
X156379812Y-103747653D01*
X156352716Y-103714431D01*
X156325800Y-103680954D01*
X156324574Y-103679925D01*
X156323564Y-103678687D01*
X156290529Y-103651358D01*
X156257625Y-103623748D01*
X156256223Y-103622977D01*
X156254992Y-103621959D01*
X156217277Y-103601566D01*
X156179638Y-103580874D01*
X156178113Y-103580390D01*
X156176707Y-103579630D01*
X156135711Y-103566940D01*
X156094808Y-103553965D01*
X156093219Y-103553787D01*
X156091692Y-103553314D01*
X156049044Y-103548831D01*
X156006367Y-103544044D01*
X156003295Y-103544023D01*
X156003183Y-103544011D01*
X156003071Y-103544021D01*
X156000000Y-103544000D01*
X126000000Y-103544000D01*
X125957272Y-103548189D01*
X125914554Y-103552077D01*
X125913022Y-103552528D01*
X125911429Y-103552684D01*
X125870337Y-103565091D01*
X125829179Y-103577204D01*
X125827761Y-103577945D01*
X125826232Y-103578407D01*
X125788388Y-103598529D01*
X125750311Y-103618435D01*
X125749063Y-103619438D01*
X125747653Y-103620188D01*
X125714431Y-103647284D01*
X125680954Y-103674200D01*
X125679925Y-103675426D01*
X125678687Y-103676436D01*
X125651358Y-103709471D01*
X125623748Y-103742375D01*
X125622977Y-103743777D01*
X125621959Y-103745008D01*
X125601566Y-103782723D01*
X125580874Y-103820362D01*
X125580390Y-103821887D01*
X125579630Y-103823293D01*
X125566940Y-103864289D01*
X125564177Y-103873000D01*
X111435713Y-103873000D01*
X111434909Y-103870337D01*
X111422796Y-103829179D01*
X111422055Y-103827761D01*
X111421593Y-103826232D01*
X111401471Y-103788388D01*
X111381565Y-103750311D01*
X111380562Y-103749063D01*
X111379812Y-103747653D01*
X111352716Y-103714431D01*
X111325800Y-103680954D01*
X111324574Y-103679925D01*
X111323564Y-103678687D01*
X111290529Y-103651358D01*
X111257625Y-103623748D01*
X111256223Y-103622977D01*
X111254992Y-103621959D01*
X111217277Y-103601566D01*
X111179638Y-103580874D01*
X111178113Y-103580390D01*
X111176707Y-103579630D01*
X111135711Y-103566940D01*
X111094808Y-103553965D01*
X111093219Y-103553787D01*
X111091692Y-103553314D01*
X111049044Y-103548831D01*
X111006367Y-103544044D01*
X111003295Y-103544023D01*
X111003183Y-103544011D01*
X111003071Y-103544021D01*
X111000000Y-103544000D01*
X96456000Y-103544000D01*
X96456000Y-101209750D01*
X104079000Y-101209750D01*
X104079000Y-101436542D01*
X104103403Y-101559223D01*
X104151270Y-101674785D01*
X104220763Y-101778789D01*
X104309211Y-101867237D01*
X104413215Y-101936730D01*
X104528777Y-101984597D01*
X104651458Y-102009000D01*
X105028250Y-102009000D01*
X105187000Y-101850250D01*
X105187000Y-101051000D01*
X104237750Y-101051000D01*
X104079000Y-101209750D01*
X96456000Y-101209750D01*
X96456000Y-97399750D01*
X98383000Y-97399750D01*
X98383000Y-98176542D01*
X98407403Y-98299223D01*
X98455270Y-98414785D01*
X98524763Y-98518789D01*
X98613211Y-98607237D01*
X98717215Y-98676730D01*
X98832777Y-98724597D01*
X98955458Y-98749000D01*
X98974789Y-98749000D01*
X98864965Y-98881755D01*
X98736773Y-99118841D01*
X98657073Y-99376311D01*
X98628900Y-99644359D01*
X98653327Y-99912774D01*
X98729425Y-100171332D01*
X98854294Y-100410185D01*
X99023179Y-100620235D01*
X99229647Y-100793482D01*
X99465832Y-100923326D01*
X99722740Y-101004822D01*
X99990584Y-101034865D01*
X100009866Y-101035000D01*
X100626134Y-101035000D01*
X100894372Y-101008699D01*
X101152392Y-100930798D01*
X101390368Y-100804264D01*
X101599234Y-100633917D01*
X101771035Y-100426245D01*
X101779030Y-100411458D01*
X104079000Y-100411458D01*
X104079000Y-100638250D01*
X104237750Y-100797000D01*
X105187000Y-100797000D01*
X105187000Y-99997750D01*
X105028250Y-99839000D01*
X104651458Y-99839000D01*
X104528777Y-99863403D01*
X104413215Y-99911270D01*
X104309211Y-99980763D01*
X104220763Y-100069211D01*
X104151270Y-100173215D01*
X104103403Y-100288777D01*
X104079000Y-100411458D01*
X101779030Y-100411458D01*
X101899227Y-100189159D01*
X101978927Y-99931689D01*
X102007100Y-99663641D01*
X101982673Y-99395226D01*
X101906575Y-99136668D01*
X101781706Y-98897815D01*
X101662055Y-98749000D01*
X101680542Y-98749000D01*
X101803223Y-98724597D01*
X101918785Y-98676730D01*
X102022789Y-98607237D01*
X102111237Y-98518789D01*
X102180730Y-98414785D01*
X102228597Y-98299223D01*
X102253000Y-98176542D01*
X102253000Y-97399750D01*
X102094250Y-97241000D01*
X100445000Y-97241000D01*
X100445000Y-97261000D01*
X100191000Y-97261000D01*
X100191000Y-97241000D01*
X98541750Y-97241000D01*
X98383000Y-97399750D01*
X96456000Y-97399750D01*
X96456000Y-96051458D01*
X98383000Y-96051458D01*
X98383000Y-96828250D01*
X98541750Y-96987000D01*
X100191000Y-96987000D01*
X100191000Y-95637750D01*
X100445000Y-95637750D01*
X100445000Y-96987000D01*
X102094250Y-96987000D01*
X102253000Y-96828250D01*
X102253000Y-96051458D01*
X102228597Y-95928777D01*
X102180730Y-95813215D01*
X102111237Y-95709211D01*
X102022789Y-95620763D01*
X101918785Y-95551270D01*
X101803223Y-95503403D01*
X101680542Y-95479000D01*
X100603750Y-95479000D01*
X100445000Y-95637750D01*
X100191000Y-95637750D01*
X100032250Y-95479000D01*
X98955458Y-95479000D01*
X98832777Y-95503403D01*
X98717215Y-95551270D01*
X98613211Y-95620763D01*
X98524763Y-95709211D01*
X98455270Y-95813215D01*
X98407403Y-95928777D01*
X98383000Y-96051458D01*
X96456000Y-96051458D01*
X96456000Y-84456000D01*
X103703265Y-84456000D01*
X103677585Y-84486130D01*
X103633314Y-84584342D01*
X103618157Y-84691000D01*
X103618157Y-85661000D01*
X103622995Y-85721673D01*
X103651551Y-85813884D01*
X103633314Y-85854342D01*
X103630449Y-85874500D01*
X103248844Y-85874500D01*
X103196334Y-85879649D01*
X103143717Y-85884252D01*
X103140830Y-85885091D01*
X103137839Y-85885384D01*
X103087304Y-85900641D01*
X103036608Y-85915370D01*
X103033939Y-85916753D01*
X103031062Y-85917622D01*
X102984475Y-85942393D01*
X102937584Y-85966699D01*
X102935233Y-85968576D01*
X102932581Y-85969986D01*
X102891679Y-86003344D01*
X102850414Y-86036286D01*
X102846232Y-86040410D01*
X102846146Y-86040480D01*
X102846080Y-86040560D01*
X102844733Y-86041888D01*
X101971053Y-86915567D01*
X101937519Y-86956392D01*
X101903613Y-86996800D01*
X101902166Y-86999432D01*
X101900257Y-87001756D01*
X101875296Y-87048309D01*
X101849879Y-87094541D01*
X101848971Y-87097404D01*
X101847550Y-87100054D01*
X101832123Y-87150516D01*
X101829138Y-87159927D01*
X101822870Y-87154585D01*
X101724658Y-87110314D01*
X101618000Y-87095157D01*
X99018000Y-87095157D01*
X98957327Y-87099995D01*
X98854420Y-87131864D01*
X98764465Y-87191140D01*
X98694585Y-87273130D01*
X98650314Y-87371342D01*
X98635157Y-87478000D01*
X98635157Y-89478000D01*
X98639995Y-89538673D01*
X98671864Y-89641580D01*
X98731140Y-89731535D01*
X98813130Y-89801415D01*
X98911342Y-89845686D01*
X99018000Y-89860843D01*
X99258596Y-89860843D01*
X99245632Y-89867736D01*
X99036766Y-90038083D01*
X98864965Y-90245755D01*
X98736773Y-90482841D01*
X98657073Y-90740311D01*
X98628900Y-91008359D01*
X98653327Y-91276774D01*
X98729425Y-91535332D01*
X98854294Y-91774185D01*
X99023179Y-91984235D01*
X99229647Y-92157482D01*
X99465832Y-92287326D01*
X99722740Y-92368822D01*
X99990584Y-92398865D01*
X100009866Y-92399000D01*
X100626134Y-92399000D01*
X100894372Y-92372699D01*
X101152392Y-92294798D01*
X101390368Y-92168264D01*
X101599234Y-91997917D01*
X101771035Y-91790245D01*
X101879577Y-91589500D01*
X101999000Y-91589500D01*
X102051506Y-91584352D01*
X102104128Y-91579748D01*
X102107015Y-91578909D01*
X102110005Y-91578616D01*
X102160514Y-91563366D01*
X102211237Y-91548630D01*
X102213907Y-91547246D01*
X102216782Y-91546378D01*
X102263370Y-91521606D01*
X102310261Y-91497300D01*
X102312611Y-91495424D01*
X102315263Y-91494014D01*
X102356170Y-91460651D01*
X102397430Y-91427714D01*
X102401616Y-91423587D01*
X102401698Y-91423520D01*
X102401760Y-91423445D01*
X102403112Y-91422112D01*
X102779277Y-91045946D01*
X102812790Y-91005147D01*
X102846717Y-90964714D01*
X102848164Y-90962082D01*
X102850073Y-90959758D01*
X102875024Y-90913224D01*
X102900451Y-90866973D01*
X102901360Y-90864107D01*
X102902780Y-90861459D01*
X102918216Y-90810971D01*
X102934176Y-90760657D01*
X102934511Y-90757671D01*
X102935390Y-90754796D01*
X102940730Y-90702223D01*
X102946609Y-90649814D01*
X102946650Y-90643946D01*
X102946662Y-90643830D01*
X102946652Y-90643722D01*
X102946665Y-90641835D01*
X102946665Y-88001750D01*
X103366000Y-88001750D01*
X103366000Y-88263542D01*
X103390403Y-88386223D01*
X103438270Y-88501785D01*
X103507763Y-88605789D01*
X103596211Y-88694237D01*
X103700215Y-88763730D01*
X103815777Y-88811597D01*
X103938458Y-88836000D01*
X104350250Y-88836000D01*
X104509000Y-88677250D01*
X104509000Y-87843000D01*
X104763000Y-87843000D01*
X104763000Y-88677250D01*
X104921750Y-88836000D01*
X105333542Y-88836000D01*
X105456223Y-88811597D01*
X105571785Y-88763730D01*
X105675789Y-88694237D01*
X105764237Y-88605789D01*
X105833730Y-88501785D01*
X105881597Y-88386223D01*
X105906000Y-88263542D01*
X105906000Y-88001750D01*
X105747250Y-87843000D01*
X104763000Y-87843000D01*
X104509000Y-87843000D01*
X103524750Y-87843000D01*
X103366000Y-88001750D01*
X102946665Y-88001750D01*
X102946665Y-87556403D01*
X103373794Y-87129273D01*
X103366000Y-87168458D01*
X103366000Y-87430250D01*
X103524750Y-87589000D01*
X104509000Y-87589000D01*
X104509000Y-87569000D01*
X104763000Y-87569000D01*
X104763000Y-87589000D01*
X105747250Y-87589000D01*
X105906000Y-87430250D01*
X105906000Y-87168458D01*
X105881597Y-87045777D01*
X105833730Y-86930215D01*
X105764237Y-86826211D01*
X105675789Y-86737763D01*
X105653843Y-86723099D01*
X105653843Y-85961000D01*
X105649005Y-85900327D01*
X105620449Y-85808116D01*
X105638686Y-85767658D01*
X105641551Y-85747500D01*
X105759708Y-85747500D01*
X105916661Y-85904452D01*
X105916661Y-88965137D01*
X105433297Y-89448500D01*
X105282843Y-89448500D01*
X105282843Y-89245000D01*
X105278005Y-89184327D01*
X105246136Y-89081420D01*
X105186860Y-88991465D01*
X105104870Y-88921585D01*
X105006658Y-88877314D01*
X104900000Y-88862157D01*
X103600000Y-88862157D01*
X103539327Y-88866995D01*
X103436420Y-88898864D01*
X103346465Y-88958140D01*
X103276585Y-89040130D01*
X103232314Y-89138342D01*
X103217157Y-89245000D01*
X103217157Y-90795000D01*
X103221995Y-90855673D01*
X103253864Y-90958580D01*
X103313140Y-91048535D01*
X103395130Y-91118415D01*
X103493342Y-91162686D01*
X103600000Y-91177843D01*
X103678500Y-91177843D01*
X103678500Y-96822157D01*
X103600000Y-96822157D01*
X103539327Y-96826995D01*
X103436420Y-96858864D01*
X103346465Y-96918140D01*
X103276585Y-97000130D01*
X103232314Y-97098342D01*
X103217157Y-97205000D01*
X103217157Y-98755000D01*
X103221995Y-98815673D01*
X103253864Y-98918580D01*
X103313140Y-99008535D01*
X103395130Y-99078415D01*
X103493342Y-99122686D01*
X103600000Y-99137843D01*
X104900000Y-99137843D01*
X104960673Y-99133005D01*
X105063580Y-99101136D01*
X105153535Y-99041860D01*
X105223415Y-98959870D01*
X105267686Y-98861658D01*
X105278480Y-98785704D01*
X106502407Y-100009630D01*
X106543206Y-100043143D01*
X106583639Y-100077070D01*
X106586271Y-100078517D01*
X106588595Y-100080426D01*
X106635129Y-100105377D01*
X106681380Y-100130804D01*
X106684246Y-100131713D01*
X106686894Y-100133133D01*
X106724825Y-100144730D01*
X106660465Y-100187140D01*
X106590585Y-100269130D01*
X106546314Y-100367342D01*
X106543777Y-100385198D01*
X106524597Y-100288777D01*
X106476730Y-100173215D01*
X106407237Y-100069211D01*
X106318789Y-99980763D01*
X106214785Y-99911270D01*
X106099223Y-99863403D01*
X105976542Y-99839000D01*
X105599750Y-99839000D01*
X105441000Y-99997750D01*
X105441000Y-100797000D01*
X105461000Y-100797000D01*
X105461000Y-101051000D01*
X105441000Y-101051000D01*
X105441000Y-101850250D01*
X105599750Y-102009000D01*
X105976542Y-102009000D01*
X106099223Y-101984597D01*
X106214785Y-101936730D01*
X106318789Y-101867237D01*
X106407237Y-101778789D01*
X106476730Y-101674785D01*
X106524597Y-101559223D01*
X106544140Y-101460974D01*
X106567864Y-101537580D01*
X106627140Y-101627535D01*
X106709130Y-101697415D01*
X106807342Y-101741686D01*
X106914000Y-101756843D01*
X108114000Y-101756843D01*
X108174673Y-101752005D01*
X108277580Y-101720136D01*
X108367535Y-101660860D01*
X108437415Y-101578870D01*
X108481686Y-101480658D01*
X108488601Y-101432000D01*
X109253155Y-101432000D01*
X109269369Y-101448790D01*
X109379807Y-101525546D01*
X109503051Y-101579390D01*
X109634406Y-101608270D01*
X109768868Y-101611087D01*
X109901317Y-101587733D01*
X110026708Y-101539097D01*
X110140263Y-101467032D01*
X110237659Y-101374284D01*
X110315185Y-101264384D01*
X110369888Y-101141519D01*
X110399684Y-101010369D01*
X110401315Y-100893539D01*
X110590556Y-101082779D01*
X110631355Y-101116292D01*
X110671788Y-101150219D01*
X110674420Y-101151666D01*
X110676744Y-101153575D01*
X110723278Y-101178526D01*
X110769529Y-101203953D01*
X110772395Y-101204862D01*
X110775043Y-101206282D01*
X110825531Y-101221718D01*
X110875845Y-101237678D01*
X110878831Y-101238013D01*
X110881706Y-101238892D01*
X110934279Y-101244232D01*
X110986688Y-101250111D01*
X110992556Y-101250152D01*
X110992672Y-101250164D01*
X110992780Y-101250154D01*
X110994667Y-101250167D01*
X148581556Y-101250167D01*
X148611528Y-101281204D01*
X148738328Y-101369332D01*
X148879830Y-101431152D01*
X149030645Y-101464311D01*
X149185028Y-101467545D01*
X149337099Y-101440731D01*
X149481066Y-101384890D01*
X149611445Y-101302149D01*
X149723269Y-101195660D01*
X149812280Y-101069479D01*
X149875087Y-100928412D01*
X149909298Y-100777832D01*
X149911761Y-100601458D01*
X149881768Y-100449982D01*
X149822924Y-100307216D01*
X149737471Y-100178599D01*
X149628663Y-100069029D01*
X149500646Y-99982680D01*
X149358294Y-99922841D01*
X149207031Y-99891791D01*
X149052618Y-99890713D01*
X148900936Y-99919648D01*
X148757763Y-99977494D01*
X148628552Y-100062047D01*
X148582477Y-100107167D01*
X140111253Y-100107167D01*
X140983013Y-99235407D01*
X141012779Y-99199169D01*
X141042961Y-99163200D01*
X141044249Y-99160858D01*
X141045943Y-99158795D01*
X141068103Y-99117466D01*
X141090724Y-99076319D01*
X141091532Y-99073771D01*
X141092794Y-99071418D01*
X141106514Y-99026541D01*
X141120702Y-98981816D01*
X141121000Y-98979163D01*
X141121781Y-98976607D01*
X141126527Y-98929884D01*
X141131753Y-98883290D01*
X141131790Y-98878070D01*
X141131800Y-98877970D01*
X141131791Y-98877876D01*
X141131803Y-98876197D01*
X141131803Y-96750000D01*
X177117157Y-96750000D01*
X177117157Y-98750000D01*
X177121995Y-98810673D01*
X177153864Y-98913580D01*
X177213140Y-99003535D01*
X177295130Y-99073415D01*
X177393342Y-99117686D01*
X177500000Y-99132843D01*
X179500000Y-99132843D01*
X179560673Y-99128005D01*
X179663580Y-99096136D01*
X179753535Y-99036860D01*
X179823415Y-98954870D01*
X179867686Y-98856658D01*
X179882843Y-98750000D01*
X179882843Y-96750000D01*
X179878005Y-96689327D01*
X179846136Y-96586420D01*
X179786860Y-96496465D01*
X179704870Y-96426585D01*
X179606658Y-96382314D01*
X179500000Y-96367157D01*
X177500000Y-96367157D01*
X177439327Y-96371995D01*
X177336420Y-96403864D01*
X177246465Y-96463140D01*
X177176585Y-96545130D01*
X177132314Y-96643342D01*
X177117157Y-96750000D01*
X141131803Y-96750000D01*
X141131803Y-95463291D01*
X141145462Y-95450284D01*
X141222988Y-95340384D01*
X141277691Y-95217519D01*
X141307487Y-95086369D01*
X141309632Y-94932754D01*
X141283509Y-94800823D01*
X141232258Y-94676479D01*
X141157831Y-94564457D01*
X141063063Y-94469025D01*
X140951564Y-94393818D01*
X140827581Y-94341700D01*
X140695835Y-94314657D01*
X140561346Y-94313718D01*
X140429236Y-94338919D01*
X140304537Y-94389301D01*
X140191999Y-94462944D01*
X140095908Y-94557043D01*
X140019924Y-94668015D01*
X139966942Y-94791631D01*
X139938980Y-94923185D01*
X139937102Y-95057664D01*
X139961380Y-95189947D01*
X140010890Y-95314994D01*
X140083746Y-95428044D01*
X140115803Y-95461240D01*
X140115803Y-98665777D01*
X139158753Y-99622827D01*
X131694160Y-99622827D01*
X131737478Y-99581576D01*
X131826489Y-99455395D01*
X131889296Y-99314328D01*
X131923507Y-99163748D01*
X131925970Y-98987374D01*
X131895977Y-98835898D01*
X131837133Y-98693132D01*
X131751680Y-98564515D01*
X131642872Y-98454945D01*
X131514855Y-98368596D01*
X131372503Y-98308757D01*
X131221240Y-98277707D01*
X131066827Y-98276629D01*
X130915145Y-98305564D01*
X130771972Y-98363410D01*
X130642761Y-98447963D01*
X130532434Y-98556003D01*
X130445193Y-98683415D01*
X130384362Y-98825345D01*
X130352257Y-98976388D01*
X130351544Y-99027482D01*
X114835705Y-99027482D01*
X113071500Y-97263276D01*
X113071500Y-94053392D01*
X172364166Y-94053392D01*
X172386646Y-94175876D01*
X172432488Y-94291661D01*
X172499947Y-94396337D01*
X172586453Y-94485916D01*
X172688710Y-94556987D01*
X172802825Y-94606843D01*
X172924450Y-94633583D01*
X173048952Y-94636191D01*
X173171590Y-94614567D01*
X173287692Y-94569534D01*
X173392836Y-94502808D01*
X173483017Y-94416929D01*
X173554800Y-94315170D01*
X173605451Y-94201407D01*
X173633041Y-94079972D01*
X173635027Y-93937735D01*
X173610839Y-93815577D01*
X173563384Y-93700443D01*
X173494470Y-93596720D01*
X173406722Y-93508357D01*
X173303482Y-93438721D01*
X173188683Y-93390464D01*
X173066697Y-93365423D01*
X172942170Y-93364554D01*
X172819846Y-93387889D01*
X172704384Y-93434538D01*
X172600182Y-93502726D01*
X172511208Y-93589855D01*
X172440853Y-93692606D01*
X172391796Y-93807066D01*
X172365905Y-93928875D01*
X172364166Y-94053392D01*
X113071500Y-94053392D01*
X113071500Y-90266118D01*
X177117185Y-90266118D01*
X177166074Y-90532497D01*
X177265773Y-90784307D01*
X177412483Y-91011956D01*
X177600616Y-91206773D01*
X177823006Y-91361338D01*
X178071183Y-91469764D01*
X178335693Y-91527920D01*
X178606462Y-91533592D01*
X178873175Y-91486563D01*
X179125675Y-91388625D01*
X179354342Y-91243508D01*
X179550468Y-91056740D01*
X179706582Y-90835434D01*
X179816738Y-90588020D01*
X179876740Y-90323923D01*
X179881059Y-90014586D01*
X179828455Y-89748916D01*
X179725250Y-89498523D01*
X179575377Y-89272944D01*
X179384542Y-89080773D01*
X179160015Y-88929328D01*
X178910349Y-88824377D01*
X178645052Y-88769920D01*
X178374231Y-88768029D01*
X178108200Y-88818777D01*
X177857092Y-88920231D01*
X177630473Y-89068527D01*
X177436974Y-89258015D01*
X177283965Y-89481479D01*
X177177274Y-89730407D01*
X177120966Y-89995317D01*
X177117185Y-90266118D01*
X113071500Y-90266118D01*
X113071500Y-88089585D01*
X113066347Y-88037029D01*
X113061747Y-87984457D01*
X113060910Y-87981575D01*
X113060616Y-87978580D01*
X113045354Y-87928029D01*
X113030630Y-87877348D01*
X113029246Y-87874678D01*
X113028378Y-87871803D01*
X113003606Y-87825215D01*
X112979300Y-87778324D01*
X112977424Y-87775974D01*
X112976014Y-87773322D01*
X112942651Y-87732415D01*
X112909714Y-87691155D01*
X112905590Y-87686973D01*
X112905520Y-87686887D01*
X112905440Y-87686821D01*
X112904111Y-87685473D01*
X111260527Y-86041888D01*
X111219702Y-86008354D01*
X111179294Y-85974448D01*
X111176662Y-85973001D01*
X111174338Y-85971092D01*
X111127785Y-85946131D01*
X111081553Y-85920714D01*
X111078690Y-85919806D01*
X111076040Y-85918385D01*
X111025578Y-85902958D01*
X110975237Y-85886989D01*
X110972247Y-85886654D01*
X110969376Y-85885776D01*
X110916898Y-85880445D01*
X110864394Y-85874556D01*
X110858516Y-85874515D01*
X110858410Y-85874504D01*
X110858312Y-85874513D01*
X110856415Y-85874500D01*
X109425884Y-85874500D01*
X109437597Y-85846223D01*
X109462000Y-85723542D01*
X109462000Y-85461750D01*
X109303250Y-85303000D01*
X108319000Y-85303000D01*
X108319000Y-85323000D01*
X108065000Y-85323000D01*
X108065000Y-85303000D01*
X107080750Y-85303000D01*
X106987884Y-85395866D01*
X106967461Y-85356468D01*
X106965585Y-85354118D01*
X106964175Y-85351466D01*
X106930812Y-85310559D01*
X106897875Y-85269299D01*
X106893751Y-85265117D01*
X106893681Y-85265031D01*
X106893601Y-85264965D01*
X106892273Y-85263618D01*
X106400544Y-84771888D01*
X106359719Y-84738354D01*
X106319311Y-84704448D01*
X106316679Y-84703001D01*
X106314355Y-84701092D01*
X106267802Y-84676131D01*
X106221570Y-84650714D01*
X106218707Y-84649806D01*
X106216057Y-84648385D01*
X106165595Y-84632958D01*
X106115254Y-84616989D01*
X106112264Y-84616654D01*
X106109393Y-84615776D01*
X106056915Y-84610445D01*
X106004411Y-84604556D01*
X105998533Y-84604515D01*
X105998427Y-84604504D01*
X105998329Y-84604513D01*
X105996432Y-84604500D01*
X105641007Y-84604500D01*
X105617136Y-84527420D01*
X105570074Y-84456000D01*
X106967021Y-84456000D01*
X106946403Y-84505777D01*
X106922000Y-84628458D01*
X106922000Y-84890250D01*
X107080750Y-85049000D01*
X108065000Y-85049000D01*
X108065000Y-85029000D01*
X108319000Y-85029000D01*
X108319000Y-85049000D01*
X109303250Y-85049000D01*
X109462000Y-84890250D01*
X109462000Y-84628458D01*
X109437597Y-84505777D01*
X109416979Y-84456000D01*
X136000000Y-84456000D01*
X136042728Y-84451811D01*
X136085446Y-84447923D01*
X136086978Y-84447472D01*
X136088571Y-84447316D01*
X136129663Y-84434909D01*
X136170821Y-84422796D01*
X136172239Y-84422055D01*
X136173768Y-84421593D01*
X136211612Y-84401471D01*
X136249689Y-84381565D01*
X136250937Y-84380562D01*
X136252347Y-84379812D01*
X136285569Y-84352716D01*
X136319046Y-84325800D01*
X136320075Y-84324574D01*
X136321313Y-84323564D01*
X136348642Y-84290529D01*
X136376252Y-84257625D01*
X136377023Y-84256223D01*
X136378041Y-84254992D01*
X136398434Y-84217277D01*
X136419126Y-84179638D01*
X136419610Y-84178113D01*
X136420370Y-84176707D01*
X136433060Y-84135711D01*
X136435823Y-84127000D01*
X145564287Y-84127000D01*
X145565091Y-84129663D01*
X145565091Y-84129663D01*
G37*
X145565091Y-84129663D02*
X145577204Y-84170821D01*
X145577945Y-84172239D01*
X145578407Y-84173768D01*
X145598529Y-84211612D01*
X145618435Y-84249689D01*
X145619438Y-84250937D01*
X145620188Y-84252347D01*
X145647284Y-84285569D01*
X145674200Y-84319046D01*
X145675426Y-84320075D01*
X145676436Y-84321313D01*
X145709471Y-84348642D01*
X145742375Y-84376252D01*
X145743777Y-84377023D01*
X145745008Y-84378041D01*
X145782723Y-84398434D01*
X145820362Y-84419126D01*
X145821887Y-84419610D01*
X145823293Y-84420370D01*
X145864289Y-84433060D01*
X145905192Y-84446035D01*
X145906781Y-84446213D01*
X145908308Y-84446686D01*
X145950956Y-84451169D01*
X145993633Y-84455956D01*
X145996705Y-84455977D01*
X145996817Y-84455989D01*
X145996929Y-84455979D01*
X146000000Y-84456000D01*
X185544000Y-84456000D01*
X185544000Y-103544000D01*
X171000000Y-103544000D01*
X170957272Y-103548189D01*
X170914554Y-103552077D01*
X170913022Y-103552528D01*
X170911429Y-103552684D01*
X170870337Y-103565091D01*
X170829179Y-103577204D01*
X170827761Y-103577945D01*
X170826232Y-103578407D01*
X170788388Y-103598529D01*
X170750311Y-103618435D01*
X170749063Y-103619438D01*
X170747653Y-103620188D01*
X170714431Y-103647284D01*
X170680954Y-103674200D01*
X170679925Y-103675426D01*
X170678687Y-103676436D01*
X170651358Y-103709471D01*
X170623748Y-103742375D01*
X170622977Y-103743777D01*
X170621959Y-103745008D01*
X170601566Y-103782723D01*
X170580874Y-103820362D01*
X170580390Y-103821887D01*
X170579630Y-103823293D01*
X170566940Y-103864289D01*
X170564177Y-103873000D01*
X156435713Y-103873000D01*
X156434909Y-103870337D01*
X156422796Y-103829179D01*
X156422055Y-103827761D01*
X156421593Y-103826232D01*
X156401471Y-103788388D01*
X156381565Y-103750311D01*
X156380562Y-103749063D01*
X156379812Y-103747653D01*
X156352716Y-103714431D01*
X156325800Y-103680954D01*
X156324574Y-103679925D01*
X156323564Y-103678687D01*
X156290529Y-103651358D01*
X156257625Y-103623748D01*
X156256223Y-103622977D01*
X156254992Y-103621959D01*
X156217277Y-103601566D01*
X156179638Y-103580874D01*
X156178113Y-103580390D01*
X156176707Y-103579630D01*
X156135711Y-103566940D01*
X156094808Y-103553965D01*
X156093219Y-103553787D01*
X156091692Y-103553314D01*
X156049044Y-103548831D01*
X156006367Y-103544044D01*
X156003295Y-103544023D01*
X156003183Y-103544011D01*
X156003071Y-103544021D01*
X156000000Y-103544000D01*
X126000000Y-103544000D01*
X125957272Y-103548189D01*
X125914554Y-103552077D01*
X125913022Y-103552528D01*
X125911429Y-103552684D01*
X125870337Y-103565091D01*
X125829179Y-103577204D01*
X125827761Y-103577945D01*
X125826232Y-103578407D01*
X125788388Y-103598529D01*
X125750311Y-103618435D01*
X125749063Y-103619438D01*
X125747653Y-103620188D01*
X125714431Y-103647284D01*
X125680954Y-103674200D01*
X125679925Y-103675426D01*
X125678687Y-103676436D01*
X125651358Y-103709471D01*
X125623748Y-103742375D01*
X125622977Y-103743777D01*
X125621959Y-103745008D01*
X125601566Y-103782723D01*
X125580874Y-103820362D01*
X125580390Y-103821887D01*
X125579630Y-103823293D01*
X125566940Y-103864289D01*
X125564177Y-103873000D01*
X111435713Y-103873000D01*
X111434909Y-103870337D01*
X111422796Y-103829179D01*
X111422055Y-103827761D01*
X111421593Y-103826232D01*
X111401471Y-103788388D01*
X111381565Y-103750311D01*
X111380562Y-103749063D01*
X111379812Y-103747653D01*
X111352716Y-103714431D01*
X111325800Y-103680954D01*
X111324574Y-103679925D01*
X111323564Y-103678687D01*
X111290529Y-103651358D01*
X111257625Y-103623748D01*
X111256223Y-103622977D01*
X111254992Y-103621959D01*
X111217277Y-103601566D01*
X111179638Y-103580874D01*
X111178113Y-103580390D01*
X111176707Y-103579630D01*
X111135711Y-103566940D01*
X111094808Y-103553965D01*
X111093219Y-103553787D01*
X111091692Y-103553314D01*
X111049044Y-103548831D01*
X111006367Y-103544044D01*
X111003295Y-103544023D01*
X111003183Y-103544011D01*
X111003071Y-103544021D01*
X111000000Y-103544000D01*
X96456000Y-103544000D01*
X96456000Y-101209750D01*
X104079000Y-101209750D01*
X104079000Y-101436542D01*
X104103403Y-101559223D01*
X104151270Y-101674785D01*
X104220763Y-101778789D01*
X104309211Y-101867237D01*
X104413215Y-101936730D01*
X104528777Y-101984597D01*
X104651458Y-102009000D01*
X105028250Y-102009000D01*
X105187000Y-101850250D01*
X105187000Y-101051000D01*
X104237750Y-101051000D01*
X104079000Y-101209750D01*
X96456000Y-101209750D01*
X96456000Y-97399750D01*
X98383000Y-97399750D01*
X98383000Y-98176542D01*
X98407403Y-98299223D01*
X98455270Y-98414785D01*
X98524763Y-98518789D01*
X98613211Y-98607237D01*
X98717215Y-98676730D01*
X98832777Y-98724597D01*
X98955458Y-98749000D01*
X98974789Y-98749000D01*
X98864965Y-98881755D01*
X98736773Y-99118841D01*
X98657073Y-99376311D01*
X98628900Y-99644359D01*
X98653327Y-99912774D01*
X98729425Y-100171332D01*
X98854294Y-100410185D01*
X99023179Y-100620235D01*
X99229647Y-100793482D01*
X99465832Y-100923326D01*
X99722740Y-101004822D01*
X99990584Y-101034865D01*
X100009866Y-101035000D01*
X100626134Y-101035000D01*
X100894372Y-101008699D01*
X101152392Y-100930798D01*
X101390368Y-100804264D01*
X101599234Y-100633917D01*
X101771035Y-100426245D01*
X101779030Y-100411458D01*
X104079000Y-100411458D01*
X104079000Y-100638250D01*
X104237750Y-100797000D01*
X105187000Y-100797000D01*
X105187000Y-99997750D01*
X105028250Y-99839000D01*
X104651458Y-99839000D01*
X104528777Y-99863403D01*
X104413215Y-99911270D01*
X104309211Y-99980763D01*
X104220763Y-100069211D01*
X104151270Y-100173215D01*
X104103403Y-100288777D01*
X104079000Y-100411458D01*
X101779030Y-100411458D01*
X101899227Y-100189159D01*
X101978927Y-99931689D01*
X102007100Y-99663641D01*
X101982673Y-99395226D01*
X101906575Y-99136668D01*
X101781706Y-98897815D01*
X101662055Y-98749000D01*
X101680542Y-98749000D01*
X101803223Y-98724597D01*
X101918785Y-98676730D01*
X102022789Y-98607237D01*
X102111237Y-98518789D01*
X102180730Y-98414785D01*
X102228597Y-98299223D01*
X102253000Y-98176542D01*
X102253000Y-97399750D01*
X102094250Y-97241000D01*
X100445000Y-97241000D01*
X100445000Y-97261000D01*
X100191000Y-97261000D01*
X100191000Y-97241000D01*
X98541750Y-97241000D01*
X98383000Y-97399750D01*
X96456000Y-97399750D01*
X96456000Y-96051458D01*
X98383000Y-96051458D01*
X98383000Y-96828250D01*
X98541750Y-96987000D01*
X100191000Y-96987000D01*
X100191000Y-95637750D01*
X100445000Y-95637750D01*
X100445000Y-96987000D01*
X102094250Y-96987000D01*
X102253000Y-96828250D01*
X102253000Y-96051458D01*
X102228597Y-95928777D01*
X102180730Y-95813215D01*
X102111237Y-95709211D01*
X102022789Y-95620763D01*
X101918785Y-95551270D01*
X101803223Y-95503403D01*
X101680542Y-95479000D01*
X100603750Y-95479000D01*
X100445000Y-95637750D01*
X100191000Y-95637750D01*
X100032250Y-95479000D01*
X98955458Y-95479000D01*
X98832777Y-95503403D01*
X98717215Y-95551270D01*
X98613211Y-95620763D01*
X98524763Y-95709211D01*
X98455270Y-95813215D01*
X98407403Y-95928777D01*
X98383000Y-96051458D01*
X96456000Y-96051458D01*
X96456000Y-84456000D01*
X103703265Y-84456000D01*
X103677585Y-84486130D01*
X103633314Y-84584342D01*
X103618157Y-84691000D01*
X103618157Y-85661000D01*
X103622995Y-85721673D01*
X103651551Y-85813884D01*
X103633314Y-85854342D01*
X103630449Y-85874500D01*
X103248844Y-85874500D01*
X103196334Y-85879649D01*
X103143717Y-85884252D01*
X103140830Y-85885091D01*
X103137839Y-85885384D01*
X103087304Y-85900641D01*
X103036608Y-85915370D01*
X103033939Y-85916753D01*
X103031062Y-85917622D01*
X102984475Y-85942393D01*
X102937584Y-85966699D01*
X102935233Y-85968576D01*
X102932581Y-85969986D01*
X102891679Y-86003344D01*
X102850414Y-86036286D01*
X102846232Y-86040410D01*
X102846146Y-86040480D01*
X102846080Y-86040560D01*
X102844733Y-86041888D01*
X101971053Y-86915567D01*
X101937519Y-86956392D01*
X101903613Y-86996800D01*
X101902166Y-86999432D01*
X101900257Y-87001756D01*
X101875296Y-87048309D01*
X101849879Y-87094541D01*
X101848971Y-87097404D01*
X101847550Y-87100054D01*
X101832123Y-87150516D01*
X101829138Y-87159927D01*
X101822870Y-87154585D01*
X101724658Y-87110314D01*
X101618000Y-87095157D01*
X99018000Y-87095157D01*
X98957327Y-87099995D01*
X98854420Y-87131864D01*
X98764465Y-87191140D01*
X98694585Y-87273130D01*
X98650314Y-87371342D01*
X98635157Y-87478000D01*
X98635157Y-89478000D01*
X98639995Y-89538673D01*
X98671864Y-89641580D01*
X98731140Y-89731535D01*
X98813130Y-89801415D01*
X98911342Y-89845686D01*
X99018000Y-89860843D01*
X99258596Y-89860843D01*
X99245632Y-89867736D01*
X99036766Y-90038083D01*
X98864965Y-90245755D01*
X98736773Y-90482841D01*
X98657073Y-90740311D01*
X98628900Y-91008359D01*
X98653327Y-91276774D01*
X98729425Y-91535332D01*
X98854294Y-91774185D01*
X99023179Y-91984235D01*
X99229647Y-92157482D01*
X99465832Y-92287326D01*
X99722740Y-92368822D01*
X99990584Y-92398865D01*
X100009866Y-92399000D01*
X100626134Y-92399000D01*
X100894372Y-92372699D01*
X101152392Y-92294798D01*
X101390368Y-92168264D01*
X101599234Y-91997917D01*
X101771035Y-91790245D01*
X101879577Y-91589500D01*
X101999000Y-91589500D01*
X102051506Y-91584352D01*
X102104128Y-91579748D01*
X102107015Y-91578909D01*
X102110005Y-91578616D01*
X102160514Y-91563366D01*
X102211237Y-91548630D01*
X102213907Y-91547246D01*
X102216782Y-91546378D01*
X102263370Y-91521606D01*
X102310261Y-91497300D01*
X102312611Y-91495424D01*
X102315263Y-91494014D01*
X102356170Y-91460651D01*
X102397430Y-91427714D01*
X102401616Y-91423587D01*
X102401698Y-91423520D01*
X102401760Y-91423445D01*
X102403112Y-91422112D01*
X102779277Y-91045946D01*
X102812790Y-91005147D01*
X102846717Y-90964714D01*
X102848164Y-90962082D01*
X102850073Y-90959758D01*
X102875024Y-90913224D01*
X102900451Y-90866973D01*
X102901360Y-90864107D01*
X102902780Y-90861459D01*
X102918216Y-90810971D01*
X102934176Y-90760657D01*
X102934511Y-90757671D01*
X102935390Y-90754796D01*
X102940730Y-90702223D01*
X102946609Y-90649814D01*
X102946650Y-90643946D01*
X102946662Y-90643830D01*
X102946652Y-90643722D01*
X102946665Y-90641835D01*
X102946665Y-88001750D01*
X103366000Y-88001750D01*
X103366000Y-88263542D01*
X103390403Y-88386223D01*
X103438270Y-88501785D01*
X103507763Y-88605789D01*
X103596211Y-88694237D01*
X103700215Y-88763730D01*
X103815777Y-88811597D01*
X103938458Y-88836000D01*
X104350250Y-88836000D01*
X104509000Y-88677250D01*
X104509000Y-87843000D01*
X104763000Y-87843000D01*
X104763000Y-88677250D01*
X104921750Y-88836000D01*
X105333542Y-88836000D01*
X105456223Y-88811597D01*
X105571785Y-88763730D01*
X105675789Y-88694237D01*
X105764237Y-88605789D01*
X105833730Y-88501785D01*
X105881597Y-88386223D01*
X105906000Y-88263542D01*
X105906000Y-88001750D01*
X105747250Y-87843000D01*
X104763000Y-87843000D01*
X104509000Y-87843000D01*
X103524750Y-87843000D01*
X103366000Y-88001750D01*
X102946665Y-88001750D01*
X102946665Y-87556403D01*
X103373794Y-87129273D01*
X103366000Y-87168458D01*
X103366000Y-87430250D01*
X103524750Y-87589000D01*
X104509000Y-87589000D01*
X104509000Y-87569000D01*
X104763000Y-87569000D01*
X104763000Y-87589000D01*
X105747250Y-87589000D01*
X105906000Y-87430250D01*
X105906000Y-87168458D01*
X105881597Y-87045777D01*
X105833730Y-86930215D01*
X105764237Y-86826211D01*
X105675789Y-86737763D01*
X105653843Y-86723099D01*
X105653843Y-85961000D01*
X105649005Y-85900327D01*
X105620449Y-85808116D01*
X105638686Y-85767658D01*
X105641551Y-85747500D01*
X105759708Y-85747500D01*
X105916661Y-85904452D01*
X105916661Y-88965137D01*
X105433297Y-89448500D01*
X105282843Y-89448500D01*
X105282843Y-89245000D01*
X105278005Y-89184327D01*
X105246136Y-89081420D01*
X105186860Y-88991465D01*
X105104870Y-88921585D01*
X105006658Y-88877314D01*
X104900000Y-88862157D01*
X103600000Y-88862157D01*
X103539327Y-88866995D01*
X103436420Y-88898864D01*
X103346465Y-88958140D01*
X103276585Y-89040130D01*
X103232314Y-89138342D01*
X103217157Y-89245000D01*
X103217157Y-90795000D01*
X103221995Y-90855673D01*
X103253864Y-90958580D01*
X103313140Y-91048535D01*
X103395130Y-91118415D01*
X103493342Y-91162686D01*
X103600000Y-91177843D01*
X103678500Y-91177843D01*
X103678500Y-96822157D01*
X103600000Y-96822157D01*
X103539327Y-96826995D01*
X103436420Y-96858864D01*
X103346465Y-96918140D01*
X103276585Y-97000130D01*
X103232314Y-97098342D01*
X103217157Y-97205000D01*
X103217157Y-98755000D01*
X103221995Y-98815673D01*
X103253864Y-98918580D01*
X103313140Y-99008535D01*
X103395130Y-99078415D01*
X103493342Y-99122686D01*
X103600000Y-99137843D01*
X104900000Y-99137843D01*
X104960673Y-99133005D01*
X105063580Y-99101136D01*
X105153535Y-99041860D01*
X105223415Y-98959870D01*
X105267686Y-98861658D01*
X105278480Y-98785704D01*
X106502407Y-100009630D01*
X106543206Y-100043143D01*
X106583639Y-100077070D01*
X106586271Y-100078517D01*
X106588595Y-100080426D01*
X106635129Y-100105377D01*
X106681380Y-100130804D01*
X106684246Y-100131713D01*
X106686894Y-100133133D01*
X106724825Y-100144730D01*
X106660465Y-100187140D01*
X106590585Y-100269130D01*
X106546314Y-100367342D01*
X106543777Y-100385198D01*
X106524597Y-100288777D01*
X106476730Y-100173215D01*
X106407237Y-100069211D01*
X106318789Y-99980763D01*
X106214785Y-99911270D01*
X106099223Y-99863403D01*
X105976542Y-99839000D01*
X105599750Y-99839000D01*
X105441000Y-99997750D01*
X105441000Y-100797000D01*
X105461000Y-100797000D01*
X105461000Y-101051000D01*
X105441000Y-101051000D01*
X105441000Y-101850250D01*
X105599750Y-102009000D01*
X105976542Y-102009000D01*
X106099223Y-101984597D01*
X106214785Y-101936730D01*
X106318789Y-101867237D01*
X106407237Y-101778789D01*
X106476730Y-101674785D01*
X106524597Y-101559223D01*
X106544140Y-101460974D01*
X106567864Y-101537580D01*
X106627140Y-101627535D01*
X106709130Y-101697415D01*
X106807342Y-101741686D01*
X106914000Y-101756843D01*
X108114000Y-101756843D01*
X108174673Y-101752005D01*
X108277580Y-101720136D01*
X108367535Y-101660860D01*
X108437415Y-101578870D01*
X108481686Y-101480658D01*
X108488601Y-101432000D01*
X109253155Y-101432000D01*
X109269369Y-101448790D01*
X109379807Y-101525546D01*
X109503051Y-101579390D01*
X109634406Y-101608270D01*
X109768868Y-101611087D01*
X109901317Y-101587733D01*
X110026708Y-101539097D01*
X110140263Y-101467032D01*
X110237659Y-101374284D01*
X110315185Y-101264384D01*
X110369888Y-101141519D01*
X110399684Y-101010369D01*
X110401315Y-100893539D01*
X110590556Y-101082779D01*
X110631355Y-101116292D01*
X110671788Y-101150219D01*
X110674420Y-101151666D01*
X110676744Y-101153575D01*
X110723278Y-101178526D01*
X110769529Y-101203953D01*
X110772395Y-101204862D01*
X110775043Y-101206282D01*
X110825531Y-101221718D01*
X110875845Y-101237678D01*
X110878831Y-101238013D01*
X110881706Y-101238892D01*
X110934279Y-101244232D01*
X110986688Y-101250111D01*
X110992556Y-101250152D01*
X110992672Y-101250164D01*
X110992780Y-101250154D01*
X110994667Y-101250167D01*
X148581556Y-101250167D01*
X148611528Y-101281204D01*
X148738328Y-101369332D01*
X148879830Y-101431152D01*
X149030645Y-101464311D01*
X149185028Y-101467545D01*
X149337099Y-101440731D01*
X149481066Y-101384890D01*
X149611445Y-101302149D01*
X149723269Y-101195660D01*
X149812280Y-101069479D01*
X149875087Y-100928412D01*
X149909298Y-100777832D01*
X149911761Y-100601458D01*
X149881768Y-100449982D01*
X149822924Y-100307216D01*
X149737471Y-100178599D01*
X149628663Y-100069029D01*
X149500646Y-99982680D01*
X149358294Y-99922841D01*
X149207031Y-99891791D01*
X149052618Y-99890713D01*
X148900936Y-99919648D01*
X148757763Y-99977494D01*
X148628552Y-100062047D01*
X148582477Y-100107167D01*
X140111253Y-100107167D01*
X140983013Y-99235407D01*
X141012779Y-99199169D01*
X141042961Y-99163200D01*
X141044249Y-99160858D01*
X141045943Y-99158795D01*
X141068103Y-99117466D01*
X141090724Y-99076319D01*
X141091532Y-99073771D01*
X141092794Y-99071418D01*
X141106514Y-99026541D01*
X141120702Y-98981816D01*
X141121000Y-98979163D01*
X141121781Y-98976607D01*
X141126527Y-98929884D01*
X141131753Y-98883290D01*
X141131790Y-98878070D01*
X141131800Y-98877970D01*
X141131791Y-98877876D01*
X141131803Y-98876197D01*
X141131803Y-96750000D01*
X177117157Y-96750000D01*
X177117157Y-98750000D01*
X177121995Y-98810673D01*
X177153864Y-98913580D01*
X177213140Y-99003535D01*
X177295130Y-99073415D01*
X177393342Y-99117686D01*
X177500000Y-99132843D01*
X179500000Y-99132843D01*
X179560673Y-99128005D01*
X179663580Y-99096136D01*
X179753535Y-99036860D01*
X179823415Y-98954870D01*
X179867686Y-98856658D01*
X179882843Y-98750000D01*
X179882843Y-96750000D01*
X179878005Y-96689327D01*
X179846136Y-96586420D01*
X179786860Y-96496465D01*
X179704870Y-96426585D01*
X179606658Y-96382314D01*
X179500000Y-96367157D01*
X177500000Y-96367157D01*
X177439327Y-96371995D01*
X177336420Y-96403864D01*
X177246465Y-96463140D01*
X177176585Y-96545130D01*
X177132314Y-96643342D01*
X177117157Y-96750000D01*
X141131803Y-96750000D01*
X141131803Y-95463291D01*
X141145462Y-95450284D01*
X141222988Y-95340384D01*
X141277691Y-95217519D01*
X141307487Y-95086369D01*
X141309632Y-94932754D01*
X141283509Y-94800823D01*
X141232258Y-94676479D01*
X141157831Y-94564457D01*
X141063063Y-94469025D01*
X140951564Y-94393818D01*
X140827581Y-94341700D01*
X140695835Y-94314657D01*
X140561346Y-94313718D01*
X140429236Y-94338919D01*
X140304537Y-94389301D01*
X140191999Y-94462944D01*
X140095908Y-94557043D01*
X140019924Y-94668015D01*
X139966942Y-94791631D01*
X139938980Y-94923185D01*
X139937102Y-95057664D01*
X139961380Y-95189947D01*
X140010890Y-95314994D01*
X140083746Y-95428044D01*
X140115803Y-95461240D01*
X140115803Y-98665777D01*
X139158753Y-99622827D01*
X131694160Y-99622827D01*
X131737478Y-99581576D01*
X131826489Y-99455395D01*
X131889296Y-99314328D01*
X131923507Y-99163748D01*
X131925970Y-98987374D01*
X131895977Y-98835898D01*
X131837133Y-98693132D01*
X131751680Y-98564515D01*
X131642872Y-98454945D01*
X131514855Y-98368596D01*
X131372503Y-98308757D01*
X131221240Y-98277707D01*
X131066827Y-98276629D01*
X130915145Y-98305564D01*
X130771972Y-98363410D01*
X130642761Y-98447963D01*
X130532434Y-98556003D01*
X130445193Y-98683415D01*
X130384362Y-98825345D01*
X130352257Y-98976388D01*
X130351544Y-99027482D01*
X114835705Y-99027482D01*
X113071500Y-97263276D01*
X113071500Y-94053392D01*
X172364166Y-94053392D01*
X172386646Y-94175876D01*
X172432488Y-94291661D01*
X172499947Y-94396337D01*
X172586453Y-94485916D01*
X172688710Y-94556987D01*
X172802825Y-94606843D01*
X172924450Y-94633583D01*
X173048952Y-94636191D01*
X173171590Y-94614567D01*
X173287692Y-94569534D01*
X173392836Y-94502808D01*
X173483017Y-94416929D01*
X173554800Y-94315170D01*
X173605451Y-94201407D01*
X173633041Y-94079972D01*
X173635027Y-93937735D01*
X173610839Y-93815577D01*
X173563384Y-93700443D01*
X173494470Y-93596720D01*
X173406722Y-93508357D01*
X173303482Y-93438721D01*
X173188683Y-93390464D01*
X173066697Y-93365423D01*
X172942170Y-93364554D01*
X172819846Y-93387889D01*
X172704384Y-93434538D01*
X172600182Y-93502726D01*
X172511208Y-93589855D01*
X172440853Y-93692606D01*
X172391796Y-93807066D01*
X172365905Y-93928875D01*
X172364166Y-94053392D01*
X113071500Y-94053392D01*
X113071500Y-90266118D01*
X177117185Y-90266118D01*
X177166074Y-90532497D01*
X177265773Y-90784307D01*
X177412483Y-91011956D01*
X177600616Y-91206773D01*
X177823006Y-91361338D01*
X178071183Y-91469764D01*
X178335693Y-91527920D01*
X178606462Y-91533592D01*
X178873175Y-91486563D01*
X179125675Y-91388625D01*
X179354342Y-91243508D01*
X179550468Y-91056740D01*
X179706582Y-90835434D01*
X179816738Y-90588020D01*
X179876740Y-90323923D01*
X179881059Y-90014586D01*
X179828455Y-89748916D01*
X179725250Y-89498523D01*
X179575377Y-89272944D01*
X179384542Y-89080773D01*
X179160015Y-88929328D01*
X178910349Y-88824377D01*
X178645052Y-88769920D01*
X178374231Y-88768029D01*
X178108200Y-88818777D01*
X177857092Y-88920231D01*
X177630473Y-89068527D01*
X177436974Y-89258015D01*
X177283965Y-89481479D01*
X177177274Y-89730407D01*
X177120966Y-89995317D01*
X177117185Y-90266118D01*
X113071500Y-90266118D01*
X113071500Y-88089585D01*
X113066347Y-88037029D01*
X113061747Y-87984457D01*
X113060910Y-87981575D01*
X113060616Y-87978580D01*
X113045354Y-87928029D01*
X113030630Y-87877348D01*
X113029246Y-87874678D01*
X113028378Y-87871803D01*
X113003606Y-87825215D01*
X112979300Y-87778324D01*
X112977424Y-87775974D01*
X112976014Y-87773322D01*
X112942651Y-87732415D01*
X112909714Y-87691155D01*
X112905590Y-87686973D01*
X112905520Y-87686887D01*
X112905440Y-87686821D01*
X112904111Y-87685473D01*
X111260527Y-86041888D01*
X111219702Y-86008354D01*
X111179294Y-85974448D01*
X111176662Y-85973001D01*
X111174338Y-85971092D01*
X111127785Y-85946131D01*
X111081553Y-85920714D01*
X111078690Y-85919806D01*
X111076040Y-85918385D01*
X111025578Y-85902958D01*
X110975237Y-85886989D01*
X110972247Y-85886654D01*
X110969376Y-85885776D01*
X110916898Y-85880445D01*
X110864394Y-85874556D01*
X110858516Y-85874515D01*
X110858410Y-85874504D01*
X110858312Y-85874513D01*
X110856415Y-85874500D01*
X109425884Y-85874500D01*
X109437597Y-85846223D01*
X109462000Y-85723542D01*
X109462000Y-85461750D01*
X109303250Y-85303000D01*
X108319000Y-85303000D01*
X108319000Y-85323000D01*
X108065000Y-85323000D01*
X108065000Y-85303000D01*
X107080750Y-85303000D01*
X106987884Y-85395866D01*
X106967461Y-85356468D01*
X106965585Y-85354118D01*
X106964175Y-85351466D01*
X106930812Y-85310559D01*
X106897875Y-85269299D01*
X106893751Y-85265117D01*
X106893681Y-85265031D01*
X106893601Y-85264965D01*
X106892273Y-85263618D01*
X106400544Y-84771888D01*
X106359719Y-84738354D01*
X106319311Y-84704448D01*
X106316679Y-84703001D01*
X106314355Y-84701092D01*
X106267802Y-84676131D01*
X106221570Y-84650714D01*
X106218707Y-84649806D01*
X106216057Y-84648385D01*
X106165595Y-84632958D01*
X106115254Y-84616989D01*
X106112264Y-84616654D01*
X106109393Y-84615776D01*
X106056915Y-84610445D01*
X106004411Y-84604556D01*
X105998533Y-84604515D01*
X105998427Y-84604504D01*
X105998329Y-84604513D01*
X105996432Y-84604500D01*
X105641007Y-84604500D01*
X105617136Y-84527420D01*
X105570074Y-84456000D01*
X106967021Y-84456000D01*
X106946403Y-84505777D01*
X106922000Y-84628458D01*
X106922000Y-84890250D01*
X107080750Y-85049000D01*
X108065000Y-85049000D01*
X108065000Y-85029000D01*
X108319000Y-85029000D01*
X108319000Y-85049000D01*
X109303250Y-85049000D01*
X109462000Y-84890250D01*
X109462000Y-84628458D01*
X109437597Y-84505777D01*
X109416979Y-84456000D01*
X136000000Y-84456000D01*
X136042728Y-84451811D01*
X136085446Y-84447923D01*
X136086978Y-84447472D01*
X136088571Y-84447316D01*
X136129663Y-84434909D01*
X136170821Y-84422796D01*
X136172239Y-84422055D01*
X136173768Y-84421593D01*
X136211612Y-84401471D01*
X136249689Y-84381565D01*
X136250937Y-84380562D01*
X136252347Y-84379812D01*
X136285569Y-84352716D01*
X136319046Y-84325800D01*
X136320075Y-84324574D01*
X136321313Y-84323564D01*
X136348642Y-84290529D01*
X136376252Y-84257625D01*
X136377023Y-84256223D01*
X136378041Y-84254992D01*
X136398434Y-84217277D01*
X136419126Y-84179638D01*
X136419610Y-84178113D01*
X136420370Y-84176707D01*
X136433060Y-84135711D01*
X136435823Y-84127000D01*
X145564287Y-84127000D01*
X145565091Y-84129663D01*
G36*
X111928500Y-88326308D02*
X111928500Y-97500000D01*
X111933648Y-97552506D01*
X111938252Y-97605128D01*
X111939091Y-97608015D01*
X111939384Y-97611005D01*
X111954634Y-97661514D01*
X111969370Y-97712237D01*
X111970754Y-97714907D01*
X111971622Y-97717782D01*
X111996394Y-97764370D01*
X112020700Y-97811261D01*
X112022576Y-97813611D01*
X112023986Y-97816263D01*
X112057349Y-97857170D01*
X112090286Y-97898430D01*
X112094413Y-97902616D01*
X112094480Y-97902698D01*
X112094555Y-97902760D01*
X112095888Y-97904112D01*
X113814604Y-99622827D01*
X112438062Y-99622827D01*
X110436025Y-97620790D01*
X110399787Y-97591024D01*
X110363818Y-97560842D01*
X110361476Y-97559554D01*
X110359413Y-97557860D01*
X110318066Y-97535690D01*
X110276937Y-97513079D01*
X110274392Y-97512272D01*
X110272037Y-97511009D01*
X110227145Y-97497284D01*
X110182434Y-97483101D01*
X110179781Y-97482803D01*
X110177225Y-97482022D01*
X110130502Y-97477276D01*
X110083908Y-97472050D01*
X110078688Y-97472013D01*
X110078588Y-97472003D01*
X110078494Y-97472012D01*
X110076815Y-97472000D01*
X109782843Y-97472000D01*
X109782843Y-97205000D01*
X109778005Y-97144327D01*
X109746136Y-97041420D01*
X109686860Y-96951465D01*
X109604870Y-96881585D01*
X109506658Y-96837314D01*
X109400000Y-96822157D01*
X109239216Y-96822157D01*
X109234773Y-96807444D01*
X109221671Y-96762345D01*
X109220440Y-96759971D01*
X109219669Y-96757416D01*
X109197639Y-96715984D01*
X109176044Y-96674323D01*
X109174379Y-96672237D01*
X109173124Y-96669877D01*
X109143426Y-96633464D01*
X109114190Y-96596841D01*
X109110527Y-96593126D01*
X109110462Y-96593046D01*
X109110388Y-96592985D01*
X109109210Y-96591790D01*
X108894692Y-96377272D01*
X108894692Y-94885113D01*
X108917071Y-94889443D01*
X109092186Y-94888531D01*
X109263759Y-94853474D01*
X109416991Y-94790004D01*
X109421781Y-94601387D01*
X109000000Y-94179605D01*
X108985858Y-94193748D01*
X108894692Y-94102582D01*
X108894692Y-94000000D01*
X109179605Y-94000000D01*
X109601387Y-94421781D01*
X109790004Y-94416991D01*
X109856175Y-94254857D01*
X109889443Y-94082929D01*
X109888531Y-93907814D01*
X109853474Y-93736241D01*
X109790004Y-93583009D01*
X109601387Y-93578219D01*
X109179605Y-94000000D01*
X108894692Y-94000000D01*
X108894692Y-93897418D01*
X108985858Y-93806253D01*
X109000000Y-93820395D01*
X109421781Y-93398613D01*
X109416991Y-93209996D01*
X109254857Y-93143825D01*
X109082929Y-93110557D01*
X108907814Y-93111469D01*
X108894692Y-93114150D01*
X108894692Y-91622728D01*
X109109210Y-91408210D01*
X109138976Y-91371972D01*
X109169158Y-91336003D01*
X109170446Y-91333661D01*
X109172140Y-91331598D01*
X109194310Y-91290251D01*
X109216921Y-91249122D01*
X109217728Y-91246577D01*
X109218991Y-91244222D01*
X109232716Y-91199330D01*
X109239532Y-91177843D01*
X109400000Y-91177843D01*
X109460673Y-91173005D01*
X109563580Y-91141136D01*
X109653535Y-91081860D01*
X109723415Y-90999870D01*
X109767686Y-90901658D01*
X109782843Y-90795000D01*
X109782843Y-89245000D01*
X109778005Y-89184327D01*
X109746136Y-89081420D01*
X109686860Y-88991465D01*
X109604870Y-88921585D01*
X109506658Y-88877314D01*
X109400000Y-88862157D01*
X108100000Y-88862157D01*
X108039327Y-88866995D01*
X107936420Y-88898864D01*
X107846465Y-88958140D01*
X107776585Y-89040130D01*
X107732314Y-89138342D01*
X107717157Y-89245000D01*
X107717157Y-90795000D01*
X107721995Y-90855673D01*
X107753864Y-90958580D01*
X107813140Y-91048535D01*
X107895130Y-91118415D01*
X107955916Y-91145816D01*
X107942382Y-91171057D01*
X107919771Y-91212186D01*
X107918964Y-91214731D01*
X107917701Y-91217086D01*
X107903976Y-91261978D01*
X107889793Y-91306689D01*
X107889495Y-91309342D01*
X107888714Y-91311898D01*
X107883968Y-91358621D01*
X107878742Y-91405215D01*
X107878705Y-91410435D01*
X107878695Y-91410535D01*
X107878704Y-91410629D01*
X107878692Y-91412308D01*
X107878692Y-96587692D01*
X107883271Y-96634396D01*
X107887361Y-96681140D01*
X107888106Y-96683706D01*
X107888367Y-96686363D01*
X107901919Y-96731248D01*
X107915021Y-96776347D01*
X107916252Y-96778721D01*
X107917023Y-96781276D01*
X107939032Y-96822669D01*
X107954837Y-96853160D01*
X107936420Y-96858864D01*
X107846465Y-96918140D01*
X107776585Y-97000130D01*
X107732314Y-97098342D01*
X107717157Y-97205000D01*
X107717157Y-98755000D01*
X107721995Y-98815673D01*
X107753864Y-98918580D01*
X107813140Y-99008535D01*
X107843039Y-99034018D01*
X107143241Y-99034018D01*
X105685112Y-97575888D01*
X105644287Y-97542354D01*
X105603879Y-97508448D01*
X105601247Y-97507001D01*
X105598923Y-97505092D01*
X105552370Y-97480131D01*
X105506138Y-97454714D01*
X105503275Y-97453806D01*
X105500625Y-97452385D01*
X105450163Y-97436958D01*
X105399822Y-97420989D01*
X105396832Y-97420654D01*
X105393961Y-97419776D01*
X105341483Y-97414445D01*
X105288979Y-97408556D01*
X105283101Y-97408515D01*
X105282995Y-97408504D01*
X105282897Y-97408513D01*
X105282843Y-97408513D01*
X105282843Y-97205000D01*
X105278005Y-97144327D01*
X105246136Y-97041420D01*
X105186860Y-96951465D01*
X105104870Y-96881585D01*
X105006658Y-96837314D01*
X104900000Y-96822157D01*
X104821500Y-96822157D01*
X104821500Y-91177843D01*
X104900000Y-91177843D01*
X104960673Y-91173005D01*
X105063580Y-91141136D01*
X105153535Y-91081860D01*
X105223415Y-90999870D01*
X105267686Y-90901658D01*
X105282843Y-90795000D01*
X105282843Y-90591500D01*
X105670021Y-90591500D01*
X105722527Y-90586352D01*
X105775149Y-90581748D01*
X105778036Y-90580909D01*
X105781026Y-90580616D01*
X105831535Y-90565366D01*
X105882258Y-90550630D01*
X105884928Y-90549246D01*
X105887803Y-90548378D01*
X105934391Y-90523606D01*
X105981282Y-90499300D01*
X105983632Y-90497424D01*
X105986284Y-90496014D01*
X106027191Y-90462651D01*
X106068451Y-90429714D01*
X106072637Y-90425587D01*
X106072719Y-90425520D01*
X106072781Y-90425445D01*
X106074133Y-90424112D01*
X106892273Y-89605971D01*
X106925786Y-89565172D01*
X106959713Y-89524739D01*
X106961160Y-89522107D01*
X106963069Y-89519783D01*
X106988020Y-89473249D01*
X107013447Y-89426998D01*
X107014356Y-89424132D01*
X107015776Y-89421484D01*
X107031212Y-89370996D01*
X107047172Y-89320682D01*
X107047507Y-89317696D01*
X107048386Y-89314821D01*
X107053726Y-89262248D01*
X107059605Y-89209839D01*
X107059646Y-89203971D01*
X107059658Y-89203855D01*
X107059648Y-89203747D01*
X107059661Y-89201860D01*
X107059661Y-88287500D01*
X107186993Y-88287500D01*
X107210864Y-88364580D01*
X107270140Y-88454535D01*
X107352130Y-88524415D01*
X107450342Y-88568686D01*
X107557000Y-88583843D01*
X108827000Y-88583843D01*
X108887673Y-88579005D01*
X108990580Y-88547136D01*
X109080535Y-88487860D01*
X109150415Y-88405870D01*
X109194686Y-88307658D01*
X109209843Y-88201000D01*
X109209843Y-87231000D01*
X109205005Y-87170327D01*
X109176449Y-87078116D01*
X109194686Y-87037658D01*
X109197551Y-87017500D01*
X110619691Y-87017500D01*
X111928500Y-88326308D01*
X111928500Y-88326308D01*
G37*
X111928500Y-88326308D02*
X111928500Y-97500000D01*
X111933648Y-97552506D01*
X111938252Y-97605128D01*
X111939091Y-97608015D01*
X111939384Y-97611005D01*
X111954634Y-97661514D01*
X111969370Y-97712237D01*
X111970754Y-97714907D01*
X111971622Y-97717782D01*
X111996394Y-97764370D01*
X112020700Y-97811261D01*
X112022576Y-97813611D01*
X112023986Y-97816263D01*
X112057349Y-97857170D01*
X112090286Y-97898430D01*
X112094413Y-97902616D01*
X112094480Y-97902698D01*
X112094555Y-97902760D01*
X112095888Y-97904112D01*
X113814604Y-99622827D01*
X112438062Y-99622827D01*
X110436025Y-97620790D01*
X110399787Y-97591024D01*
X110363818Y-97560842D01*
X110361476Y-97559554D01*
X110359413Y-97557860D01*
X110318066Y-97535690D01*
X110276937Y-97513079D01*
X110274392Y-97512272D01*
X110272037Y-97511009D01*
X110227145Y-97497284D01*
X110182434Y-97483101D01*
X110179781Y-97482803D01*
X110177225Y-97482022D01*
X110130502Y-97477276D01*
X110083908Y-97472050D01*
X110078688Y-97472013D01*
X110078588Y-97472003D01*
X110078494Y-97472012D01*
X110076815Y-97472000D01*
X109782843Y-97472000D01*
X109782843Y-97205000D01*
X109778005Y-97144327D01*
X109746136Y-97041420D01*
X109686860Y-96951465D01*
X109604870Y-96881585D01*
X109506658Y-96837314D01*
X109400000Y-96822157D01*
X109239216Y-96822157D01*
X109234773Y-96807444D01*
X109221671Y-96762345D01*
X109220440Y-96759971D01*
X109219669Y-96757416D01*
X109197639Y-96715984D01*
X109176044Y-96674323D01*
X109174379Y-96672237D01*
X109173124Y-96669877D01*
X109143426Y-96633464D01*
X109114190Y-96596841D01*
X109110527Y-96593126D01*
X109110462Y-96593046D01*
X109110388Y-96592985D01*
X109109210Y-96591790D01*
X108894692Y-96377272D01*
X108894692Y-94885113D01*
X108917071Y-94889443D01*
X109092186Y-94888531D01*
X109263759Y-94853474D01*
X109416991Y-94790004D01*
X109421781Y-94601387D01*
X109000000Y-94179605D01*
X108985858Y-94193748D01*
X108894692Y-94102582D01*
X108894692Y-94000000D01*
X109179605Y-94000000D01*
X109601387Y-94421781D01*
X109790004Y-94416991D01*
X109856175Y-94254857D01*
X109889443Y-94082929D01*
X109888531Y-93907814D01*
X109853474Y-93736241D01*
X109790004Y-93583009D01*
X109601387Y-93578219D01*
X109179605Y-94000000D01*
X108894692Y-94000000D01*
X108894692Y-93897418D01*
X108985858Y-93806253D01*
X109000000Y-93820395D01*
X109421781Y-93398613D01*
X109416991Y-93209996D01*
X109254857Y-93143825D01*
X109082929Y-93110557D01*
X108907814Y-93111469D01*
X108894692Y-93114150D01*
X108894692Y-91622728D01*
X109109210Y-91408210D01*
X109138976Y-91371972D01*
X109169158Y-91336003D01*
X109170446Y-91333661D01*
X109172140Y-91331598D01*
X109194310Y-91290251D01*
X109216921Y-91249122D01*
X109217728Y-91246577D01*
X109218991Y-91244222D01*
X109232716Y-91199330D01*
X109239532Y-91177843D01*
X109400000Y-91177843D01*
X109460673Y-91173005D01*
X109563580Y-91141136D01*
X109653535Y-91081860D01*
X109723415Y-90999870D01*
X109767686Y-90901658D01*
X109782843Y-90795000D01*
X109782843Y-89245000D01*
X109778005Y-89184327D01*
X109746136Y-89081420D01*
X109686860Y-88991465D01*
X109604870Y-88921585D01*
X109506658Y-88877314D01*
X109400000Y-88862157D01*
X108100000Y-88862157D01*
X108039327Y-88866995D01*
X107936420Y-88898864D01*
X107846465Y-88958140D01*
X107776585Y-89040130D01*
X107732314Y-89138342D01*
X107717157Y-89245000D01*
X107717157Y-90795000D01*
X107721995Y-90855673D01*
X107753864Y-90958580D01*
X107813140Y-91048535D01*
X107895130Y-91118415D01*
X107955916Y-91145816D01*
X107942382Y-91171057D01*
X107919771Y-91212186D01*
X107918964Y-91214731D01*
X107917701Y-91217086D01*
X107903976Y-91261978D01*
X107889793Y-91306689D01*
X107889495Y-91309342D01*
X107888714Y-91311898D01*
X107883968Y-91358621D01*
X107878742Y-91405215D01*
X107878705Y-91410435D01*
X107878695Y-91410535D01*
X107878704Y-91410629D01*
X107878692Y-91412308D01*
X107878692Y-96587692D01*
X107883271Y-96634396D01*
X107887361Y-96681140D01*
X107888106Y-96683706D01*
X107888367Y-96686363D01*
X107901919Y-96731248D01*
X107915021Y-96776347D01*
X107916252Y-96778721D01*
X107917023Y-96781276D01*
X107939032Y-96822669D01*
X107954837Y-96853160D01*
X107936420Y-96858864D01*
X107846465Y-96918140D01*
X107776585Y-97000130D01*
X107732314Y-97098342D01*
X107717157Y-97205000D01*
X107717157Y-98755000D01*
X107721995Y-98815673D01*
X107753864Y-98918580D01*
X107813140Y-99008535D01*
X107843039Y-99034018D01*
X107143241Y-99034018D01*
X105685112Y-97575888D01*
X105644287Y-97542354D01*
X105603879Y-97508448D01*
X105601247Y-97507001D01*
X105598923Y-97505092D01*
X105552370Y-97480131D01*
X105506138Y-97454714D01*
X105503275Y-97453806D01*
X105500625Y-97452385D01*
X105450163Y-97436958D01*
X105399822Y-97420989D01*
X105396832Y-97420654D01*
X105393961Y-97419776D01*
X105341483Y-97414445D01*
X105288979Y-97408556D01*
X105283101Y-97408515D01*
X105282995Y-97408504D01*
X105282897Y-97408513D01*
X105282843Y-97408513D01*
X105282843Y-97205000D01*
X105278005Y-97144327D01*
X105246136Y-97041420D01*
X105186860Y-96951465D01*
X105104870Y-96881585D01*
X105006658Y-96837314D01*
X104900000Y-96822157D01*
X104821500Y-96822157D01*
X104821500Y-91177843D01*
X104900000Y-91177843D01*
X104960673Y-91173005D01*
X105063580Y-91141136D01*
X105153535Y-91081860D01*
X105223415Y-90999870D01*
X105267686Y-90901658D01*
X105282843Y-90795000D01*
X105282843Y-90591500D01*
X105670021Y-90591500D01*
X105722527Y-90586352D01*
X105775149Y-90581748D01*
X105778036Y-90580909D01*
X105781026Y-90580616D01*
X105831535Y-90565366D01*
X105882258Y-90550630D01*
X105884928Y-90549246D01*
X105887803Y-90548378D01*
X105934391Y-90523606D01*
X105981282Y-90499300D01*
X105983632Y-90497424D01*
X105986284Y-90496014D01*
X106027191Y-90462651D01*
X106068451Y-90429714D01*
X106072637Y-90425587D01*
X106072719Y-90425520D01*
X106072781Y-90425445D01*
X106074133Y-90424112D01*
X106892273Y-89605971D01*
X106925786Y-89565172D01*
X106959713Y-89524739D01*
X106961160Y-89522107D01*
X106963069Y-89519783D01*
X106988020Y-89473249D01*
X107013447Y-89426998D01*
X107014356Y-89424132D01*
X107015776Y-89421484D01*
X107031212Y-89370996D01*
X107047172Y-89320682D01*
X107047507Y-89317696D01*
X107048386Y-89314821D01*
X107053726Y-89262248D01*
X107059605Y-89209839D01*
X107059646Y-89203971D01*
X107059658Y-89203855D01*
X107059648Y-89203747D01*
X107059661Y-89201860D01*
X107059661Y-88287500D01*
X107186993Y-88287500D01*
X107210864Y-88364580D01*
X107270140Y-88454535D01*
X107352130Y-88524415D01*
X107450342Y-88568686D01*
X107557000Y-88583843D01*
X108827000Y-88583843D01*
X108887673Y-88579005D01*
X108990580Y-88547136D01*
X109080535Y-88487860D01*
X109150415Y-88405870D01*
X109194686Y-88307658D01*
X109209843Y-88201000D01*
X109209843Y-87231000D01*
X109205005Y-87170327D01*
X109176449Y-87078116D01*
X109194686Y-87037658D01*
X109197551Y-87017500D01*
X110619691Y-87017500D01*
X111928500Y-88326308D01*
M02*
