G04 #@! TF.FileFunction,Legend,Bot*
%FSLAX46Y46*%
G04 Gerber Fmt 4.6, Leading zero omitted, Abs format (unit mm)*
G04 Created by KiCad (PCBNEW 4.0.7-e2-6376~58~ubuntu16.04.1) date Tue Sep 12 22:43:55 2017*
%MOMM*%
%LPD*%
G01*
G04 APERTURE LIST*
%ADD10C,0.100000*%
%ADD11C,0.254000*%
%ADD12C,0.152400*%
%ADD13C,0.300000*%
%ADD14C,0.200000*%
%ADD15C,0.120000*%
%ADD16C,0.010000*%
%ADD17C,0.150000*%
G04 APERTURE END LIST*
D10*
D11*
X123378571Y-103514048D02*
X123197143Y-103574524D01*
X122894762Y-103574524D01*
X122773809Y-103514048D01*
X122713333Y-103453571D01*
X122652857Y-103332619D01*
X122652857Y-103211667D01*
X122713333Y-103090714D01*
X122773809Y-103030238D01*
X122894762Y-102969762D01*
X123136666Y-102909286D01*
X123257619Y-102848810D01*
X123318095Y-102788333D01*
X123378571Y-102667381D01*
X123378571Y-102546429D01*
X123318095Y-102425476D01*
X123257619Y-102365000D01*
X123136666Y-102304524D01*
X122834286Y-102304524D01*
X122652857Y-102365000D01*
X122108571Y-103574524D02*
X122108571Y-102304524D01*
X121624762Y-102304524D01*
X121503809Y-102365000D01*
X121443333Y-102425476D01*
X121382857Y-102546429D01*
X121382857Y-102727857D01*
X121443333Y-102848810D01*
X121503809Y-102909286D01*
X121624762Y-102969762D01*
X122108571Y-102969762D01*
X120838571Y-103574524D02*
X120838571Y-102304524D01*
X120415238Y-103211667D01*
X119991904Y-102304524D01*
X119991904Y-103574524D01*
X119387142Y-103574524D02*
X119387142Y-102304524D01*
X119084761Y-102304524D01*
X118903333Y-102365000D01*
X118782380Y-102485952D01*
X118721904Y-102606905D01*
X118661428Y-102848810D01*
X118661428Y-103030238D01*
X118721904Y-103272143D01*
X118782380Y-103393095D01*
X118903333Y-103514048D01*
X119084761Y-103574524D01*
X119387142Y-103574524D01*
X117693809Y-102909286D02*
X117512380Y-102969762D01*
X117451904Y-103030238D01*
X117391428Y-103151190D01*
X117391428Y-103332619D01*
X117451904Y-103453571D01*
X117512380Y-103514048D01*
X117633333Y-103574524D01*
X118117142Y-103574524D01*
X118117142Y-102304524D01*
X117693809Y-102304524D01*
X117572856Y-102365000D01*
X117512380Y-102425476D01*
X117451904Y-102546429D01*
X117451904Y-102667381D01*
X117512380Y-102788333D01*
X117572856Y-102848810D01*
X117693809Y-102909286D01*
X118117142Y-102909286D01*
X116121428Y-103453571D02*
X116181904Y-103514048D01*
X116363333Y-103574524D01*
X116484285Y-103574524D01*
X116665713Y-103514048D01*
X116786666Y-103393095D01*
X116847142Y-103272143D01*
X116907618Y-103030238D01*
X116907618Y-102848810D01*
X116847142Y-102606905D01*
X116786666Y-102485952D01*
X116665713Y-102365000D01*
X116484285Y-102304524D01*
X116363333Y-102304524D01*
X116181904Y-102365000D01*
X116121428Y-102425476D01*
D12*
X150583429Y-97697014D02*
X150837429Y-97334157D01*
X151018857Y-97697014D02*
X151018857Y-96935014D01*
X150728572Y-96935014D01*
X150656000Y-96971300D01*
X150619715Y-97007586D01*
X150583429Y-97080157D01*
X150583429Y-97189014D01*
X150619715Y-97261586D01*
X150656000Y-97297871D01*
X150728572Y-97334157D01*
X151018857Y-97334157D01*
X149966572Y-97660729D02*
X150039143Y-97697014D01*
X150184286Y-97697014D01*
X150256857Y-97660729D01*
X150293143Y-97588157D01*
X150293143Y-97297871D01*
X150256857Y-97225300D01*
X150184286Y-97189014D01*
X150039143Y-97189014D01*
X149966572Y-97225300D01*
X149930286Y-97297871D01*
X149930286Y-97370443D01*
X150293143Y-97443014D01*
X149494857Y-97697014D02*
X149567429Y-97660729D01*
X149603714Y-97588157D01*
X149603714Y-96935014D01*
X148914286Y-97660729D02*
X148986857Y-97697014D01*
X149132000Y-97697014D01*
X149204571Y-97660729D01*
X149240857Y-97588157D01*
X149240857Y-97297871D01*
X149204571Y-97225300D01*
X149132000Y-97189014D01*
X148986857Y-97189014D01*
X148914286Y-97225300D01*
X148878000Y-97297871D01*
X148878000Y-97370443D01*
X149240857Y-97443014D01*
X148224857Y-97697014D02*
X148224857Y-97297871D01*
X148261143Y-97225300D01*
X148333714Y-97189014D01*
X148478857Y-97189014D01*
X148551428Y-97225300D01*
X148224857Y-97660729D02*
X148297428Y-97697014D01*
X148478857Y-97697014D01*
X148551428Y-97660729D01*
X148587714Y-97588157D01*
X148587714Y-97515586D01*
X148551428Y-97443014D01*
X148478857Y-97406729D01*
X148297428Y-97406729D01*
X148224857Y-97370443D01*
X147898285Y-97660729D02*
X147825714Y-97697014D01*
X147680571Y-97697014D01*
X147607999Y-97660729D01*
X147571714Y-97588157D01*
X147571714Y-97551871D01*
X147607999Y-97479300D01*
X147680571Y-97443014D01*
X147789428Y-97443014D01*
X147861999Y-97406729D01*
X147898285Y-97334157D01*
X147898285Y-97297871D01*
X147861999Y-97225300D01*
X147789428Y-97189014D01*
X147680571Y-97189014D01*
X147607999Y-97225300D01*
X146954857Y-97660729D02*
X147027428Y-97697014D01*
X147172571Y-97697014D01*
X147245142Y-97660729D01*
X147281428Y-97588157D01*
X147281428Y-97297871D01*
X147245142Y-97225300D01*
X147172571Y-97189014D01*
X147027428Y-97189014D01*
X146954857Y-97225300D01*
X146918571Y-97297871D01*
X146918571Y-97370443D01*
X147281428Y-97443014D01*
X146265428Y-97697014D02*
X146265428Y-96935014D01*
X146265428Y-97660729D02*
X146337999Y-97697014D01*
X146483142Y-97697014D01*
X146555714Y-97660729D01*
X146591999Y-97624443D01*
X146628285Y-97551871D01*
X146628285Y-97334157D01*
X146591999Y-97261586D01*
X146555714Y-97225300D01*
X146483142Y-97189014D01*
X146337999Y-97189014D01*
X146265428Y-97225300D01*
X144995428Y-97189014D02*
X144995428Y-97697014D01*
X145321999Y-97189014D02*
X145321999Y-97588157D01*
X145285714Y-97660729D01*
X145213142Y-97697014D01*
X145104285Y-97697014D01*
X145031714Y-97660729D01*
X144995428Y-97624443D01*
X144632570Y-97189014D02*
X144632570Y-97697014D01*
X144632570Y-97261586D02*
X144596285Y-97225300D01*
X144523713Y-97189014D01*
X144414856Y-97189014D01*
X144342285Y-97225300D01*
X144305999Y-97297871D01*
X144305999Y-97697014D01*
X143616570Y-97697014D02*
X143616570Y-96935014D01*
X143616570Y-97660729D02*
X143689141Y-97697014D01*
X143834284Y-97697014D01*
X143906856Y-97660729D01*
X143943141Y-97624443D01*
X143979427Y-97551871D01*
X143979427Y-97334157D01*
X143943141Y-97261586D01*
X143906856Y-97225300D01*
X143834284Y-97189014D01*
X143689141Y-97189014D01*
X143616570Y-97225300D01*
X142963427Y-97660729D02*
X143035998Y-97697014D01*
X143181141Y-97697014D01*
X143253712Y-97660729D01*
X143289998Y-97588157D01*
X143289998Y-97297871D01*
X143253712Y-97225300D01*
X143181141Y-97189014D01*
X143035998Y-97189014D01*
X142963427Y-97225300D01*
X142927141Y-97297871D01*
X142927141Y-97370443D01*
X143289998Y-97443014D01*
X142600569Y-97697014D02*
X142600569Y-97189014D01*
X142600569Y-97334157D02*
X142564284Y-97261586D01*
X142527998Y-97225300D01*
X142455427Y-97189014D01*
X142382855Y-97189014D01*
X141149142Y-96971300D02*
X141221713Y-96935014D01*
X141330570Y-96935014D01*
X141439427Y-96971300D01*
X141511999Y-97043871D01*
X141548284Y-97116443D01*
X141584570Y-97261586D01*
X141584570Y-97370443D01*
X141548284Y-97515586D01*
X141511999Y-97588157D01*
X141439427Y-97660729D01*
X141330570Y-97697014D01*
X141257999Y-97697014D01*
X141149142Y-97660729D01*
X141112856Y-97624443D01*
X141112856Y-97370443D01*
X141257999Y-97370443D01*
X140786284Y-97697014D02*
X140786284Y-96935014D01*
X140350856Y-97697014D01*
X140350856Y-96935014D01*
X139987998Y-96935014D02*
X139987998Y-97551871D01*
X139951713Y-97624443D01*
X139915427Y-97660729D01*
X139842856Y-97697014D01*
X139697713Y-97697014D01*
X139625141Y-97660729D01*
X139588856Y-97624443D01*
X139552570Y-97551871D01*
X139552570Y-96935014D01*
X138645427Y-96898729D02*
X139298570Y-97878443D01*
X137992284Y-96971300D02*
X138064855Y-96935014D01*
X138173712Y-96935014D01*
X138282569Y-96971300D01*
X138355141Y-97043871D01*
X138391426Y-97116443D01*
X138427712Y-97261586D01*
X138427712Y-97370443D01*
X138391426Y-97515586D01*
X138355141Y-97588157D01*
X138282569Y-97660729D01*
X138173712Y-97697014D01*
X138101141Y-97697014D01*
X137992284Y-97660729D01*
X137955998Y-97624443D01*
X137955998Y-97370443D01*
X138101141Y-97370443D01*
X137629426Y-97697014D02*
X137629426Y-96935014D01*
X137339141Y-96935014D01*
X137266569Y-96971300D01*
X137230284Y-97007586D01*
X137193998Y-97080157D01*
X137193998Y-97189014D01*
X137230284Y-97261586D01*
X137266569Y-97297871D01*
X137339141Y-97334157D01*
X137629426Y-97334157D01*
X136504569Y-97697014D02*
X136867426Y-97697014D01*
X136867426Y-96935014D01*
X135742570Y-96935014D02*
X135270856Y-96935014D01*
X135524856Y-97225300D01*
X135415998Y-97225300D01*
X135343427Y-97261586D01*
X135307141Y-97297871D01*
X135270856Y-97370443D01*
X135270856Y-97551871D01*
X135307141Y-97624443D01*
X135343427Y-97660729D01*
X135415998Y-97697014D01*
X135633713Y-97697014D01*
X135706284Y-97660729D01*
X135742570Y-97624443D01*
X134000856Y-97697014D02*
X134363713Y-97697014D01*
X134363713Y-96935014D01*
X133746856Y-97697014D02*
X133746856Y-97189014D01*
X133746856Y-96935014D02*
X133783142Y-96971300D01*
X133746856Y-97007586D01*
X133710571Y-96971300D01*
X133746856Y-96935014D01*
X133746856Y-97007586D01*
X133057428Y-97660729D02*
X133129999Y-97697014D01*
X133275142Y-97697014D01*
X133347714Y-97660729D01*
X133383999Y-97624443D01*
X133420285Y-97551871D01*
X133420285Y-97334157D01*
X133383999Y-97261586D01*
X133347714Y-97225300D01*
X133275142Y-97189014D01*
X133129999Y-97189014D01*
X133057428Y-97225300D01*
X132440571Y-97660729D02*
X132513142Y-97697014D01*
X132658285Y-97697014D01*
X132730856Y-97660729D01*
X132767142Y-97588157D01*
X132767142Y-97297871D01*
X132730856Y-97225300D01*
X132658285Y-97189014D01*
X132513142Y-97189014D01*
X132440571Y-97225300D01*
X132404285Y-97297871D01*
X132404285Y-97370443D01*
X132767142Y-97443014D01*
X132077713Y-97189014D02*
X132077713Y-97697014D01*
X132077713Y-97261586D02*
X132041428Y-97225300D01*
X131968856Y-97189014D01*
X131859999Y-97189014D01*
X131787428Y-97225300D01*
X131751142Y-97297871D01*
X131751142Y-97697014D01*
X131424570Y-97660729D02*
X131351999Y-97697014D01*
X131206856Y-97697014D01*
X131134284Y-97660729D01*
X131097999Y-97588157D01*
X131097999Y-97551871D01*
X131134284Y-97479300D01*
X131206856Y-97443014D01*
X131315713Y-97443014D01*
X131388284Y-97406729D01*
X131424570Y-97334157D01*
X131424570Y-97297871D01*
X131388284Y-97225300D01*
X131315713Y-97189014D01*
X131206856Y-97189014D01*
X131134284Y-97225300D01*
X130481142Y-97660729D02*
X130553713Y-97697014D01*
X130698856Y-97697014D01*
X130771427Y-97660729D01*
X130807713Y-97588157D01*
X130807713Y-97297871D01*
X130771427Y-97225300D01*
X130698856Y-97189014D01*
X130553713Y-97189014D01*
X130481142Y-97225300D01*
X130444856Y-97297871D01*
X130444856Y-97370443D01*
X130807713Y-97443014D01*
X151962289Y-98992414D02*
X151962289Y-98230414D01*
X151635718Y-98992414D02*
X151635718Y-98593271D01*
X151672004Y-98520700D01*
X151744575Y-98484414D01*
X151853432Y-98484414D01*
X151926004Y-98520700D01*
X151962289Y-98556986D01*
X151381718Y-98484414D02*
X151091432Y-98484414D01*
X151272860Y-98230414D02*
X151272860Y-98883557D01*
X151236575Y-98956129D01*
X151164003Y-98992414D01*
X151091432Y-98992414D01*
X150946289Y-98484414D02*
X150656003Y-98484414D01*
X150837431Y-98230414D02*
X150837431Y-98883557D01*
X150801146Y-98956129D01*
X150728574Y-98992414D01*
X150656003Y-98992414D01*
X150402002Y-98484414D02*
X150402002Y-99246414D01*
X150402002Y-98520700D02*
X150329431Y-98484414D01*
X150184288Y-98484414D01*
X150111717Y-98520700D01*
X150075431Y-98556986D01*
X150039145Y-98629557D01*
X150039145Y-98847271D01*
X150075431Y-98919843D01*
X150111717Y-98956129D01*
X150184288Y-98992414D01*
X150329431Y-98992414D01*
X150402002Y-98956129D01*
X149748859Y-98956129D02*
X149676288Y-98992414D01*
X149531145Y-98992414D01*
X149458573Y-98956129D01*
X149422288Y-98883557D01*
X149422288Y-98847271D01*
X149458573Y-98774700D01*
X149531145Y-98738414D01*
X149640002Y-98738414D01*
X149712573Y-98702129D01*
X149748859Y-98629557D01*
X149748859Y-98593271D01*
X149712573Y-98520700D01*
X149640002Y-98484414D01*
X149531145Y-98484414D01*
X149458573Y-98520700D01*
X149095716Y-98919843D02*
X149059431Y-98956129D01*
X149095716Y-98992414D01*
X149132002Y-98956129D01*
X149095716Y-98919843D01*
X149095716Y-98992414D01*
X149095716Y-98520700D02*
X149059431Y-98556986D01*
X149095716Y-98593271D01*
X149132002Y-98556986D01*
X149095716Y-98520700D01*
X149095716Y-98593271D01*
X148188574Y-98194129D02*
X148841717Y-99173843D01*
X147390288Y-98194129D02*
X148043431Y-99173843D01*
X147208859Y-98484414D02*
X147063716Y-98992414D01*
X146918573Y-98629557D01*
X146773430Y-98992414D01*
X146628287Y-98484414D01*
X146410573Y-98484414D02*
X146265430Y-98992414D01*
X146120287Y-98629557D01*
X145975144Y-98992414D01*
X145830001Y-98484414D01*
X145612287Y-98484414D02*
X145467144Y-98992414D01*
X145322001Y-98629557D01*
X145176858Y-98992414D01*
X145031715Y-98484414D01*
X144741429Y-98919843D02*
X144705144Y-98956129D01*
X144741429Y-98992414D01*
X144777715Y-98956129D01*
X144741429Y-98919843D01*
X144741429Y-98992414D01*
X144052001Y-98484414D02*
X144052001Y-99101271D01*
X144088287Y-99173843D01*
X144124572Y-99210129D01*
X144197144Y-99246414D01*
X144306001Y-99246414D01*
X144378572Y-99210129D01*
X144052001Y-98956129D02*
X144124572Y-98992414D01*
X144269715Y-98992414D01*
X144342287Y-98956129D01*
X144378572Y-98919843D01*
X144414858Y-98847271D01*
X144414858Y-98629557D01*
X144378572Y-98556986D01*
X144342287Y-98520700D01*
X144269715Y-98484414D01*
X144124572Y-98484414D01*
X144052001Y-98520700D01*
X143689143Y-98484414D02*
X143689143Y-98992414D01*
X143689143Y-98556986D02*
X143652858Y-98520700D01*
X143580286Y-98484414D01*
X143471429Y-98484414D01*
X143398858Y-98520700D01*
X143362572Y-98593271D01*
X143362572Y-98992414D01*
X142673143Y-98484414D02*
X142673143Y-98992414D01*
X142999714Y-98484414D02*
X142999714Y-98883557D01*
X142963429Y-98956129D01*
X142890857Y-98992414D01*
X142782000Y-98992414D01*
X142709429Y-98956129D01*
X142673143Y-98919843D01*
X142310285Y-98919843D02*
X142274000Y-98956129D01*
X142310285Y-98992414D01*
X142346571Y-98956129D01*
X142310285Y-98919843D01*
X142310285Y-98992414D01*
X141838571Y-98992414D02*
X141911143Y-98956129D01*
X141947428Y-98919843D01*
X141983714Y-98847271D01*
X141983714Y-98629557D01*
X141947428Y-98556986D01*
X141911143Y-98520700D01*
X141838571Y-98484414D01*
X141729714Y-98484414D01*
X141657143Y-98520700D01*
X141620857Y-98556986D01*
X141584571Y-98629557D01*
X141584571Y-98847271D01*
X141620857Y-98919843D01*
X141657143Y-98956129D01*
X141729714Y-98992414D01*
X141838571Y-98992414D01*
X141257999Y-98992414D02*
X141257999Y-98484414D01*
X141257999Y-98629557D02*
X141221714Y-98556986D01*
X141185428Y-98520700D01*
X141112857Y-98484414D01*
X141040285Y-98484414D01*
X140459714Y-98484414D02*
X140459714Y-99101271D01*
X140496000Y-99173843D01*
X140532285Y-99210129D01*
X140604857Y-99246414D01*
X140713714Y-99246414D01*
X140786285Y-99210129D01*
X140459714Y-98956129D02*
X140532285Y-98992414D01*
X140677428Y-98992414D01*
X140750000Y-98956129D01*
X140786285Y-98919843D01*
X140822571Y-98847271D01*
X140822571Y-98629557D01*
X140786285Y-98556986D01*
X140750000Y-98520700D01*
X140677428Y-98484414D01*
X140532285Y-98484414D01*
X140459714Y-98520700D01*
X139552571Y-98194129D02*
X140205714Y-99173843D01*
X139189713Y-98992414D02*
X139262285Y-98956129D01*
X139298570Y-98883557D01*
X139298570Y-98230414D01*
X138899427Y-98992414D02*
X138899427Y-98484414D01*
X138899427Y-98230414D02*
X138935713Y-98266700D01*
X138899427Y-98302986D01*
X138863142Y-98266700D01*
X138899427Y-98230414D01*
X138899427Y-98302986D01*
X138209999Y-98956129D02*
X138282570Y-98992414D01*
X138427713Y-98992414D01*
X138500285Y-98956129D01*
X138536570Y-98919843D01*
X138572856Y-98847271D01*
X138572856Y-98629557D01*
X138536570Y-98556986D01*
X138500285Y-98520700D01*
X138427713Y-98484414D01*
X138282570Y-98484414D01*
X138209999Y-98520700D01*
X137593142Y-98956129D02*
X137665713Y-98992414D01*
X137810856Y-98992414D01*
X137883427Y-98956129D01*
X137919713Y-98883557D01*
X137919713Y-98593271D01*
X137883427Y-98520700D01*
X137810856Y-98484414D01*
X137665713Y-98484414D01*
X137593142Y-98520700D01*
X137556856Y-98593271D01*
X137556856Y-98665843D01*
X137919713Y-98738414D01*
X137230284Y-98484414D02*
X137230284Y-98992414D01*
X137230284Y-98556986D02*
X137193999Y-98520700D01*
X137121427Y-98484414D01*
X137012570Y-98484414D01*
X136939999Y-98520700D01*
X136903713Y-98593271D01*
X136903713Y-98992414D01*
X136577141Y-98956129D02*
X136504570Y-98992414D01*
X136359427Y-98992414D01*
X136286855Y-98956129D01*
X136250570Y-98883557D01*
X136250570Y-98847271D01*
X136286855Y-98774700D01*
X136359427Y-98738414D01*
X136468284Y-98738414D01*
X136540855Y-98702129D01*
X136577141Y-98629557D01*
X136577141Y-98593271D01*
X136540855Y-98520700D01*
X136468284Y-98484414D01*
X136359427Y-98484414D01*
X136286855Y-98520700D01*
X135633713Y-98956129D02*
X135706284Y-98992414D01*
X135851427Y-98992414D01*
X135923998Y-98956129D01*
X135960284Y-98883557D01*
X135960284Y-98593271D01*
X135923998Y-98520700D01*
X135851427Y-98484414D01*
X135706284Y-98484414D01*
X135633713Y-98520700D01*
X135597427Y-98593271D01*
X135597427Y-98665843D01*
X135960284Y-98738414D01*
X135307141Y-98956129D02*
X135234570Y-98992414D01*
X135089427Y-98992414D01*
X135016855Y-98956129D01*
X134980570Y-98883557D01*
X134980570Y-98847271D01*
X135016855Y-98774700D01*
X135089427Y-98738414D01*
X135198284Y-98738414D01*
X135270855Y-98702129D01*
X135307141Y-98629557D01*
X135307141Y-98593271D01*
X135270855Y-98520700D01*
X135198284Y-98484414D01*
X135089427Y-98484414D01*
X135016855Y-98520700D01*
X134109713Y-98194129D02*
X134762856Y-99173843D01*
X133529141Y-98484414D02*
X133529141Y-99101271D01*
X133565427Y-99173843D01*
X133601712Y-99210129D01*
X133674284Y-99246414D01*
X133783141Y-99246414D01*
X133855712Y-99210129D01*
X133529141Y-98956129D02*
X133601712Y-98992414D01*
X133746855Y-98992414D01*
X133819427Y-98956129D01*
X133855712Y-98919843D01*
X133891998Y-98847271D01*
X133891998Y-98629557D01*
X133855712Y-98556986D01*
X133819427Y-98520700D01*
X133746855Y-98484414D01*
X133601712Y-98484414D01*
X133529141Y-98520700D01*
X133166283Y-98484414D02*
X133166283Y-99246414D01*
X133166283Y-98520700D02*
X133093712Y-98484414D01*
X132948569Y-98484414D01*
X132875998Y-98520700D01*
X132839712Y-98556986D01*
X132803426Y-98629557D01*
X132803426Y-98847271D01*
X132839712Y-98919843D01*
X132875998Y-98956129D01*
X132948569Y-98992414D01*
X133093712Y-98992414D01*
X133166283Y-98956129D01*
X132367997Y-98992414D02*
X132440569Y-98956129D01*
X132476854Y-98883557D01*
X132476854Y-98230414D01*
X132077711Y-98919843D02*
X132041426Y-98956129D01*
X132077711Y-98992414D01*
X132113997Y-98956129D01*
X132077711Y-98919843D01*
X132077711Y-98992414D01*
X131714854Y-98992414D02*
X131714854Y-98230414D01*
X131388283Y-98992414D02*
X131388283Y-98593271D01*
X131424569Y-98520700D01*
X131497140Y-98484414D01*
X131605997Y-98484414D01*
X131678569Y-98520700D01*
X131714854Y-98556986D01*
X131134283Y-98484414D02*
X130843997Y-98484414D01*
X131025425Y-98230414D02*
X131025425Y-98883557D01*
X130989140Y-98956129D01*
X130916568Y-98992414D01*
X130843997Y-98992414D01*
X130589996Y-98992414D02*
X130589996Y-98484414D01*
X130589996Y-98556986D02*
X130553711Y-98520700D01*
X130481139Y-98484414D01*
X130372282Y-98484414D01*
X130299711Y-98520700D01*
X130263425Y-98593271D01*
X130263425Y-98992414D01*
X130263425Y-98593271D02*
X130227139Y-98520700D01*
X130154568Y-98484414D01*
X130045711Y-98484414D01*
X129973139Y-98520700D01*
X129936854Y-98593271D01*
X129936854Y-98992414D01*
X129465139Y-98992414D02*
X129537711Y-98956129D01*
X129573996Y-98883557D01*
X129573996Y-98230414D01*
D11*
X152579141Y-90973857D02*
X152627522Y-91022238D01*
X152772665Y-91070619D01*
X152869427Y-91070619D01*
X153014569Y-91022238D01*
X153111331Y-90925476D01*
X153159712Y-90828714D01*
X153208093Y-90635190D01*
X153208093Y-90490048D01*
X153159712Y-90296524D01*
X153111331Y-90199762D01*
X153014569Y-90103000D01*
X152869427Y-90054619D01*
X152772665Y-90054619D01*
X152627522Y-90103000D01*
X152579141Y-90151381D01*
X151998569Y-91070619D02*
X152095331Y-91022238D01*
X152143712Y-90973857D01*
X152192093Y-90877095D01*
X152192093Y-90586810D01*
X152143712Y-90490048D01*
X152095331Y-90441667D01*
X151998569Y-90393286D01*
X151853427Y-90393286D01*
X151756665Y-90441667D01*
X151708284Y-90490048D01*
X151659903Y-90586810D01*
X151659903Y-90877095D01*
X151708284Y-90973857D01*
X151756665Y-91022238D01*
X151853427Y-91070619D01*
X151998569Y-91070619D01*
X151224474Y-90393286D02*
X151224474Y-91409286D01*
X151224474Y-90441667D02*
X151127712Y-90393286D01*
X150934189Y-90393286D01*
X150837427Y-90441667D01*
X150789046Y-90490048D01*
X150740665Y-90586810D01*
X150740665Y-90877095D01*
X150789046Y-90973857D01*
X150837427Y-91022238D01*
X150934189Y-91070619D01*
X151127712Y-91070619D01*
X151224474Y-91022238D01*
X150401998Y-90393286D02*
X150160093Y-91070619D01*
X149918189Y-90393286D02*
X150160093Y-91070619D01*
X150256855Y-91312524D01*
X150305236Y-91360905D01*
X150401998Y-91409286D01*
X149531141Y-91070619D02*
X149531141Y-90393286D01*
X149531141Y-90586810D02*
X149482760Y-90490048D01*
X149434379Y-90441667D01*
X149337617Y-90393286D01*
X149240856Y-90393286D01*
X148902189Y-91070619D02*
X148902189Y-90393286D01*
X148902189Y-90054619D02*
X148950570Y-90103000D01*
X148902189Y-90151381D01*
X148853808Y-90103000D01*
X148902189Y-90054619D01*
X148902189Y-90151381D01*
X147982951Y-90393286D02*
X147982951Y-91215762D01*
X148031332Y-91312524D01*
X148079713Y-91360905D01*
X148176474Y-91409286D01*
X148321617Y-91409286D01*
X148418379Y-91360905D01*
X147982951Y-91022238D02*
X148079713Y-91070619D01*
X148273236Y-91070619D01*
X148369998Y-91022238D01*
X148418379Y-90973857D01*
X148466760Y-90877095D01*
X148466760Y-90586810D01*
X148418379Y-90490048D01*
X148369998Y-90441667D01*
X148273236Y-90393286D01*
X148079713Y-90393286D01*
X147982951Y-90441667D01*
X147499141Y-91070619D02*
X147499141Y-90054619D01*
X147063713Y-91070619D02*
X147063713Y-90538429D01*
X147112094Y-90441667D01*
X147208856Y-90393286D01*
X147353998Y-90393286D01*
X147450760Y-90441667D01*
X147499141Y-90490048D01*
X146725046Y-90393286D02*
X146337998Y-90393286D01*
X146579903Y-90054619D02*
X146579903Y-90925476D01*
X146531522Y-91022238D01*
X146434760Y-91070619D01*
X146337998Y-91070619D01*
X144402761Y-90296524D02*
X144499523Y-90248143D01*
X144693047Y-90248143D01*
X144789809Y-90296524D01*
X144886571Y-90393286D01*
X144934952Y-90490048D01*
X144934952Y-90683571D01*
X144886571Y-90780333D01*
X144789809Y-90877095D01*
X144693047Y-90925476D01*
X144499523Y-90925476D01*
X144402761Y-90877095D01*
X144596285Y-89909476D02*
X144838190Y-89957857D01*
X145080094Y-90103000D01*
X145225237Y-90344905D01*
X145273618Y-90586810D01*
X145225237Y-90828714D01*
X145080094Y-91070619D01*
X144838190Y-91215762D01*
X144596285Y-91264143D01*
X144354380Y-91215762D01*
X144112475Y-91070619D01*
X143967332Y-90828714D01*
X143918952Y-90586810D01*
X143967332Y-90344905D01*
X144112475Y-90103000D01*
X144354380Y-89957857D01*
X144596285Y-89909476D01*
X142757809Y-90151381D02*
X142709428Y-90103000D01*
X142612666Y-90054619D01*
X142370762Y-90054619D01*
X142274000Y-90103000D01*
X142225619Y-90151381D01*
X142177238Y-90248143D01*
X142177238Y-90344905D01*
X142225619Y-90490048D01*
X142806190Y-91070619D01*
X142177238Y-91070619D01*
X141548285Y-90054619D02*
X141451524Y-90054619D01*
X141354762Y-90103000D01*
X141306381Y-90151381D01*
X141258000Y-90248143D01*
X141209619Y-90441667D01*
X141209619Y-90683571D01*
X141258000Y-90877095D01*
X141306381Y-90973857D01*
X141354762Y-91022238D01*
X141451524Y-91070619D01*
X141548285Y-91070619D01*
X141645047Y-91022238D01*
X141693428Y-90973857D01*
X141741809Y-90877095D01*
X141790190Y-90683571D01*
X141790190Y-90441667D01*
X141741809Y-90248143D01*
X141693428Y-90151381D01*
X141645047Y-90103000D01*
X141548285Y-90054619D01*
X140242000Y-91070619D02*
X140822571Y-91070619D01*
X140532285Y-91070619D02*
X140532285Y-90054619D01*
X140629047Y-90199762D01*
X140725809Y-90296524D01*
X140822571Y-90344905D01*
X139903333Y-90054619D02*
X139226000Y-90054619D01*
X139661428Y-91070619D01*
X138064857Y-91070619D02*
X138064857Y-90054619D01*
X137968095Y-90683571D02*
X137677810Y-91070619D01*
X137677810Y-90393286D02*
X138064857Y-90780333D01*
X137339143Y-90393286D02*
X137145619Y-91070619D01*
X136952096Y-90586810D01*
X136758572Y-91070619D01*
X136565048Y-90393286D01*
X135790953Y-91022238D02*
X135887715Y-91070619D01*
X136081238Y-91070619D01*
X136178000Y-91022238D01*
X136226381Y-90925476D01*
X136226381Y-90538429D01*
X136178000Y-90441667D01*
X136081238Y-90393286D01*
X135887715Y-90393286D01*
X135790953Y-90441667D01*
X135742572Y-90538429D01*
X135742572Y-90635190D01*
X136226381Y-90731952D01*
X135307143Y-90393286D02*
X135307143Y-91070619D01*
X135307143Y-90490048D02*
X135258762Y-90441667D01*
X135162000Y-90393286D01*
X135016858Y-90393286D01*
X134920096Y-90441667D01*
X134871715Y-90538429D01*
X134871715Y-91070619D01*
X133952477Y-91070619D02*
X133952477Y-90054619D01*
X133952477Y-91022238D02*
X134049239Y-91070619D01*
X134242762Y-91070619D01*
X134339524Y-91022238D01*
X134387905Y-90973857D01*
X134436286Y-90877095D01*
X134436286Y-90586810D01*
X134387905Y-90490048D01*
X134339524Y-90441667D01*
X134242762Y-90393286D01*
X134049239Y-90393286D01*
X133952477Y-90441667D01*
X133081620Y-91022238D02*
X133178382Y-91070619D01*
X133371905Y-91070619D01*
X133468667Y-91022238D01*
X133517048Y-90925476D01*
X133517048Y-90538429D01*
X133468667Y-90441667D01*
X133371905Y-90393286D01*
X133178382Y-90393286D01*
X133081620Y-90441667D01*
X133033239Y-90538429D01*
X133033239Y-90635190D01*
X133517048Y-90731952D01*
X132597810Y-90393286D02*
X132597810Y-91070619D01*
X132597810Y-90490048D02*
X132549429Y-90441667D01*
X132452667Y-90393286D01*
X132307525Y-90393286D01*
X132210763Y-90441667D01*
X132162382Y-90538429D01*
X132162382Y-91070619D01*
X131243144Y-91070619D02*
X131243144Y-90538429D01*
X131291525Y-90441667D01*
X131388287Y-90393286D01*
X131581810Y-90393286D01*
X131678572Y-90441667D01*
X131243144Y-91022238D02*
X131339906Y-91070619D01*
X131581810Y-91070619D01*
X131678572Y-91022238D01*
X131726953Y-90925476D01*
X131726953Y-90828714D01*
X131678572Y-90731952D01*
X131581810Y-90683571D01*
X131339906Y-90683571D01*
X131243144Y-90635190D01*
X130759334Y-91070619D02*
X130759334Y-90393286D01*
X130759334Y-90586810D02*
X130710953Y-90490048D01*
X130662572Y-90441667D01*
X130565810Y-90393286D01*
X130469049Y-90393286D01*
X130130382Y-91070619D02*
X130130382Y-90393286D01*
X130130382Y-90490048D02*
X130082001Y-90441667D01*
X129985239Y-90393286D01*
X129840097Y-90393286D01*
X129743335Y-90441667D01*
X129694954Y-90538429D01*
X129694954Y-91070619D01*
X129694954Y-90538429D02*
X129646573Y-90441667D01*
X129549811Y-90393286D01*
X129404668Y-90393286D01*
X129307906Y-90441667D01*
X129259525Y-90538429D01*
X129259525Y-91070619D01*
X128630572Y-91070619D02*
X128727334Y-91022238D01*
X128775715Y-90973857D01*
X128824096Y-90877095D01*
X128824096Y-90586810D01*
X128775715Y-90490048D01*
X128727334Y-90441667D01*
X128630572Y-90393286D01*
X128485430Y-90393286D01*
X128388668Y-90441667D01*
X128340287Y-90490048D01*
X128291906Y-90586810D01*
X128291906Y-90877095D01*
X128340287Y-90973857D01*
X128388668Y-91022238D01*
X128485430Y-91070619D01*
X128630572Y-91070619D01*
X161771522Y-92848619D02*
X161771522Y-91832619D01*
X161336094Y-92848619D02*
X161336094Y-92316429D01*
X161384475Y-92219667D01*
X161481237Y-92171286D01*
X161626379Y-92171286D01*
X161723141Y-92219667D01*
X161771522Y-92268048D01*
X160997427Y-92171286D02*
X160610379Y-92171286D01*
X160852284Y-91832619D02*
X160852284Y-92703476D01*
X160803903Y-92800238D01*
X160707141Y-92848619D01*
X160610379Y-92848619D01*
X160416856Y-92171286D02*
X160029808Y-92171286D01*
X160271713Y-91832619D02*
X160271713Y-92703476D01*
X160223332Y-92800238D01*
X160126570Y-92848619D01*
X160029808Y-92848619D01*
X159691142Y-92171286D02*
X159691142Y-93187286D01*
X159691142Y-92219667D02*
X159594380Y-92171286D01*
X159400857Y-92171286D01*
X159304095Y-92219667D01*
X159255714Y-92268048D01*
X159207333Y-92364810D01*
X159207333Y-92655095D01*
X159255714Y-92751857D01*
X159304095Y-92800238D01*
X159400857Y-92848619D01*
X159594380Y-92848619D01*
X159691142Y-92800238D01*
X158820285Y-92800238D02*
X158723523Y-92848619D01*
X158529999Y-92848619D01*
X158433238Y-92800238D01*
X158384857Y-92703476D01*
X158384857Y-92655095D01*
X158433238Y-92558333D01*
X158529999Y-92509952D01*
X158675142Y-92509952D01*
X158771904Y-92461571D01*
X158820285Y-92364810D01*
X158820285Y-92316429D01*
X158771904Y-92219667D01*
X158675142Y-92171286D01*
X158529999Y-92171286D01*
X158433238Y-92219667D01*
X157949428Y-92751857D02*
X157901047Y-92800238D01*
X157949428Y-92848619D01*
X157997809Y-92800238D01*
X157949428Y-92751857D01*
X157949428Y-92848619D01*
X157949428Y-92219667D02*
X157901047Y-92268048D01*
X157949428Y-92316429D01*
X157997809Y-92268048D01*
X157949428Y-92219667D01*
X157949428Y-92316429D01*
X156739904Y-91784238D02*
X157610761Y-93090524D01*
X155675523Y-91784238D02*
X156546380Y-93090524D01*
X154901428Y-92171286D02*
X154901428Y-92993762D01*
X154949809Y-93090524D01*
X154998190Y-93138905D01*
X155094951Y-93187286D01*
X155240094Y-93187286D01*
X155336856Y-93138905D01*
X154901428Y-92800238D02*
X154998190Y-92848619D01*
X155191713Y-92848619D01*
X155288475Y-92800238D01*
X155336856Y-92751857D01*
X155385237Y-92655095D01*
X155385237Y-92364810D01*
X155336856Y-92268048D01*
X155288475Y-92219667D01*
X155191713Y-92171286D01*
X154998190Y-92171286D01*
X154901428Y-92219667D01*
X154417618Y-92848619D02*
X154417618Y-92171286D01*
X154417618Y-91832619D02*
X154465999Y-91881000D01*
X154417618Y-91929381D01*
X154369237Y-91881000D01*
X154417618Y-91832619D01*
X154417618Y-91929381D01*
X154078951Y-92171286D02*
X153691903Y-92171286D01*
X153933808Y-91832619D02*
X153933808Y-92703476D01*
X153885427Y-92800238D01*
X153788665Y-92848619D01*
X153691903Y-92848619D01*
X153353237Y-92848619D02*
X153353237Y-91832619D01*
X152917809Y-92848619D02*
X152917809Y-92316429D01*
X152966190Y-92219667D01*
X153062952Y-92171286D01*
X153208094Y-92171286D01*
X153304856Y-92219667D01*
X153353237Y-92268048D01*
X151998571Y-92171286D02*
X151998571Y-92848619D01*
X152433999Y-92171286D02*
X152433999Y-92703476D01*
X152385618Y-92800238D01*
X152288856Y-92848619D01*
X152143714Y-92848619D01*
X152046952Y-92800238D01*
X151998571Y-92751857D01*
X151514761Y-92848619D02*
X151514761Y-91832619D01*
X151514761Y-92219667D02*
X151417999Y-92171286D01*
X151224476Y-92171286D01*
X151127714Y-92219667D01*
X151079333Y-92268048D01*
X151030952Y-92364810D01*
X151030952Y-92655095D01*
X151079333Y-92751857D01*
X151127714Y-92800238D01*
X151224476Y-92848619D01*
X151417999Y-92848619D01*
X151514761Y-92800238D01*
X150595523Y-92751857D02*
X150547142Y-92800238D01*
X150595523Y-92848619D01*
X150643904Y-92800238D01*
X150595523Y-92751857D01*
X150595523Y-92848619D01*
X149676285Y-92800238D02*
X149773047Y-92848619D01*
X149966570Y-92848619D01*
X150063332Y-92800238D01*
X150111713Y-92751857D01*
X150160094Y-92655095D01*
X150160094Y-92364810D01*
X150111713Y-92268048D01*
X150063332Y-92219667D01*
X149966570Y-92171286D01*
X149773047Y-92171286D01*
X149676285Y-92219667D01*
X149095713Y-92848619D02*
X149192475Y-92800238D01*
X149240856Y-92751857D01*
X149289237Y-92655095D01*
X149289237Y-92364810D01*
X149240856Y-92268048D01*
X149192475Y-92219667D01*
X149095713Y-92171286D01*
X148950571Y-92171286D01*
X148853809Y-92219667D01*
X148805428Y-92268048D01*
X148757047Y-92364810D01*
X148757047Y-92655095D01*
X148805428Y-92751857D01*
X148853809Y-92800238D01*
X148950571Y-92848619D01*
X149095713Y-92848619D01*
X148321618Y-92848619D02*
X148321618Y-92171286D01*
X148321618Y-92268048D02*
X148273237Y-92219667D01*
X148176475Y-92171286D01*
X148031333Y-92171286D01*
X147934571Y-92219667D01*
X147886190Y-92316429D01*
X147886190Y-92848619D01*
X147886190Y-92316429D02*
X147837809Y-92219667D01*
X147741047Y-92171286D01*
X147595904Y-92171286D01*
X147499142Y-92219667D01*
X147450761Y-92316429D01*
X147450761Y-92848619D01*
X146241237Y-91784238D02*
X147112094Y-93090524D01*
X145467142Y-92848619D02*
X145467142Y-92316429D01*
X145515523Y-92219667D01*
X145612285Y-92171286D01*
X145805808Y-92171286D01*
X145902570Y-92219667D01*
X145467142Y-92800238D02*
X145563904Y-92848619D01*
X145805808Y-92848619D01*
X145902570Y-92800238D01*
X145950951Y-92703476D01*
X145950951Y-92606714D01*
X145902570Y-92509952D01*
X145805808Y-92461571D01*
X145563904Y-92461571D01*
X145467142Y-92413190D01*
X144983332Y-92848619D02*
X144983332Y-91832619D01*
X144886570Y-92461571D02*
X144596285Y-92848619D01*
X144596285Y-92171286D02*
X144983332Y-92558333D01*
X144015713Y-92848619D02*
X144112475Y-92800238D01*
X144160856Y-92751857D01*
X144209237Y-92655095D01*
X144209237Y-92364810D01*
X144160856Y-92268048D01*
X144112475Y-92219667D01*
X144015713Y-92171286D01*
X143870571Y-92171286D01*
X143773809Y-92219667D01*
X143725428Y-92268048D01*
X143677047Y-92364810D01*
X143677047Y-92655095D01*
X143725428Y-92751857D01*
X143773809Y-92800238D01*
X143870571Y-92848619D01*
X144015713Y-92848619D01*
X143241618Y-92848619D02*
X143241618Y-92171286D01*
X143241618Y-92364810D02*
X143193237Y-92268048D01*
X143144856Y-92219667D01*
X143048094Y-92171286D01*
X142951333Y-92171286D01*
X142612666Y-92171286D02*
X142612666Y-92848619D01*
X142612666Y-92268048D02*
X142564285Y-92219667D01*
X142467523Y-92171286D01*
X142322381Y-92171286D01*
X142225619Y-92219667D01*
X142177238Y-92316429D01*
X142177238Y-92848619D01*
X141741809Y-92800238D02*
X141645047Y-92848619D01*
X141451523Y-92848619D01*
X141354762Y-92800238D01*
X141306381Y-92703476D01*
X141306381Y-92655095D01*
X141354762Y-92558333D01*
X141451523Y-92509952D01*
X141596666Y-92509952D01*
X141693428Y-92461571D01*
X141741809Y-92364810D01*
X141741809Y-92316429D01*
X141693428Y-92219667D01*
X141596666Y-92171286D01*
X141451523Y-92171286D01*
X141354762Y-92219667D01*
X140967714Y-92171286D02*
X140725809Y-92848619D01*
X140483905Y-92171286D02*
X140725809Y-92848619D01*
X140822571Y-93090524D01*
X140870952Y-93138905D01*
X140967714Y-93187286D01*
X140145238Y-92800238D02*
X140048476Y-92848619D01*
X139854952Y-92848619D01*
X139758191Y-92800238D01*
X139709810Y-92703476D01*
X139709810Y-92655095D01*
X139758191Y-92558333D01*
X139854952Y-92509952D01*
X140000095Y-92509952D01*
X140096857Y-92461571D01*
X140145238Y-92364810D01*
X140145238Y-92316429D01*
X140096857Y-92219667D01*
X140000095Y-92171286D01*
X139854952Y-92171286D01*
X139758191Y-92219667D01*
X139274381Y-92461571D02*
X138500286Y-92461571D01*
X138016476Y-92848619D02*
X138016476Y-92171286D01*
X138016476Y-92364810D02*
X137968095Y-92268048D01*
X137919714Y-92219667D01*
X137822952Y-92171286D01*
X137726191Y-92171286D01*
X136952096Y-92848619D02*
X136952096Y-91832619D01*
X136952096Y-92800238D02*
X137048858Y-92848619D01*
X137242381Y-92848619D01*
X137339143Y-92800238D01*
X137387524Y-92751857D01*
X137435905Y-92655095D01*
X137435905Y-92364810D01*
X137387524Y-92268048D01*
X137339143Y-92219667D01*
X137242381Y-92171286D01*
X137048858Y-92171286D01*
X136952096Y-92219667D01*
X136468286Y-92848619D02*
X136468286Y-92171286D01*
X136468286Y-91832619D02*
X136516667Y-91881000D01*
X136468286Y-91929381D01*
X136419905Y-91881000D01*
X136468286Y-91832619D01*
X136468286Y-91929381D01*
X135258762Y-91784238D02*
X136129619Y-93090524D01*
X134920095Y-92848619D02*
X134920095Y-92171286D01*
X134920095Y-92268048D02*
X134871714Y-92219667D01*
X134774952Y-92171286D01*
X134629810Y-92171286D01*
X134533048Y-92219667D01*
X134484667Y-92316429D01*
X134484667Y-92848619D01*
X134484667Y-92316429D02*
X134436286Y-92219667D01*
X134339524Y-92171286D01*
X134194381Y-92171286D01*
X134097619Y-92219667D01*
X134049238Y-92316429D01*
X134049238Y-92848619D01*
X133565428Y-92848619D02*
X133565428Y-92171286D01*
X133565428Y-91832619D02*
X133613809Y-91881000D01*
X133565428Y-91929381D01*
X133517047Y-91881000D01*
X133565428Y-91832619D01*
X133565428Y-91929381D01*
X133081618Y-92171286D02*
X133081618Y-92848619D01*
X133081618Y-92268048D02*
X133033237Y-92219667D01*
X132936475Y-92171286D01*
X132791333Y-92171286D01*
X132694571Y-92219667D01*
X132646190Y-92316429D01*
X132646190Y-92848619D01*
X132162380Y-92848619D02*
X132162380Y-92171286D01*
X132162380Y-91832619D02*
X132210761Y-91881000D01*
X132162380Y-91929381D01*
X132113999Y-91881000D01*
X132162380Y-91832619D01*
X132162380Y-91929381D01*
X131678570Y-92848619D02*
X131678570Y-92171286D01*
X131678570Y-92268048D02*
X131630189Y-92219667D01*
X131533427Y-92171286D01*
X131388285Y-92171286D01*
X131291523Y-92219667D01*
X131243142Y-92316429D01*
X131243142Y-92848619D01*
X131243142Y-92316429D02*
X131194761Y-92219667D01*
X131097999Y-92171286D01*
X130952856Y-92171286D01*
X130856094Y-92219667D01*
X130807713Y-92316429D01*
X130807713Y-92848619D01*
X129888475Y-92848619D02*
X129888475Y-92316429D01*
X129936856Y-92219667D01*
X130033618Y-92171286D01*
X130227141Y-92171286D01*
X130323903Y-92219667D01*
X129888475Y-92800238D02*
X129985237Y-92848619D01*
X130227141Y-92848619D01*
X130323903Y-92800238D01*
X130372284Y-92703476D01*
X130372284Y-92606714D01*
X130323903Y-92509952D01*
X130227141Y-92461571D01*
X129985237Y-92461571D01*
X129888475Y-92413190D01*
X129259522Y-92848619D02*
X129356284Y-92800238D01*
X129404665Y-92703476D01*
X129404665Y-91832619D01*
X128872475Y-92461571D02*
X128098380Y-92461571D01*
X127759713Y-92171286D02*
X127372665Y-92171286D01*
X127614570Y-92848619D02*
X127614570Y-91977762D01*
X127566189Y-91881000D01*
X127469427Y-91832619D01*
X127372665Y-91832619D01*
X127033999Y-92848619D02*
X127033999Y-92171286D01*
X127033999Y-91832619D02*
X127082380Y-91881000D01*
X127033999Y-91929381D01*
X126985618Y-91881000D01*
X127033999Y-91832619D01*
X127033999Y-91929381D01*
X126405046Y-92848619D02*
X126501808Y-92800238D01*
X126550189Y-92703476D01*
X126550189Y-91832619D01*
X125872856Y-92848619D02*
X125969618Y-92800238D01*
X126017999Y-92703476D01*
X126017999Y-91832619D01*
X125485809Y-92461571D02*
X124711714Y-92461571D01*
X124276285Y-92800238D02*
X124179523Y-92848619D01*
X123985999Y-92848619D01*
X123889238Y-92800238D01*
X123840857Y-92703476D01*
X123840857Y-92655095D01*
X123889238Y-92558333D01*
X123985999Y-92509952D01*
X124131142Y-92509952D01*
X124227904Y-92461571D01*
X124276285Y-92364810D01*
X124276285Y-92316429D01*
X124227904Y-92219667D01*
X124131142Y-92171286D01*
X123985999Y-92171286D01*
X123889238Y-92219667D01*
X123018381Y-92800238D02*
X123115143Y-92848619D01*
X123308666Y-92848619D01*
X123405428Y-92800238D01*
X123453809Y-92703476D01*
X123453809Y-92316429D01*
X123405428Y-92219667D01*
X123308666Y-92171286D01*
X123115143Y-92171286D01*
X123018381Y-92219667D01*
X122970000Y-92316429D01*
X122970000Y-92413190D01*
X123453809Y-92509952D01*
X122534571Y-92171286D02*
X122534571Y-92848619D01*
X122534571Y-92268048D02*
X122486190Y-92219667D01*
X122389428Y-92171286D01*
X122244286Y-92171286D01*
X122147524Y-92219667D01*
X122099143Y-92316429D01*
X122099143Y-92848619D01*
X121663714Y-92800238D02*
X121566952Y-92848619D01*
X121373428Y-92848619D01*
X121276667Y-92800238D01*
X121228286Y-92703476D01*
X121228286Y-92655095D01*
X121276667Y-92558333D01*
X121373428Y-92509952D01*
X121518571Y-92509952D01*
X121615333Y-92461571D01*
X121663714Y-92364810D01*
X121663714Y-92316429D01*
X121615333Y-92219667D01*
X121518571Y-92171286D01*
X121373428Y-92171286D01*
X121276667Y-92219667D01*
X120647714Y-92848619D02*
X120744476Y-92800238D01*
X120792857Y-92751857D01*
X120841238Y-92655095D01*
X120841238Y-92364810D01*
X120792857Y-92268048D01*
X120744476Y-92219667D01*
X120647714Y-92171286D01*
X120502572Y-92171286D01*
X120405810Y-92219667D01*
X120357429Y-92268048D01*
X120309048Y-92364810D01*
X120309048Y-92655095D01*
X120357429Y-92751857D01*
X120405810Y-92800238D01*
X120502572Y-92848619D01*
X120647714Y-92848619D01*
X119873619Y-92848619D02*
X119873619Y-92171286D01*
X119873619Y-92364810D02*
X119825238Y-92268048D01*
X119776857Y-92219667D01*
X119680095Y-92171286D01*
X119583334Y-92171286D01*
D13*
X150857143Y-87928571D02*
X150857143Y-86428571D01*
X150357143Y-87500000D01*
X149857143Y-86428571D01*
X149857143Y-87928571D01*
X149142857Y-87928571D02*
X149142857Y-86928571D01*
X149142857Y-86428571D02*
X149214286Y-86500000D01*
X149142857Y-86571429D01*
X149071429Y-86500000D01*
X149142857Y-86428571D01*
X149142857Y-86571429D01*
X148428571Y-86928571D02*
X148428571Y-87928571D01*
X148428571Y-87071429D02*
X148357143Y-87000000D01*
X148214285Y-86928571D01*
X148000000Y-86928571D01*
X147857143Y-87000000D01*
X147785714Y-87142857D01*
X147785714Y-87928571D01*
X147071428Y-87928571D02*
X147071428Y-86928571D01*
X147071428Y-86428571D02*
X147142857Y-86500000D01*
X147071428Y-86571429D01*
X147000000Y-86500000D01*
X147071428Y-86428571D01*
X147071428Y-86571429D01*
X146357142Y-87928571D02*
X146357142Y-86928571D01*
X146357142Y-87071429D02*
X146285714Y-87000000D01*
X146142856Y-86928571D01*
X145928571Y-86928571D01*
X145785714Y-87000000D01*
X145714285Y-87142857D01*
X145714285Y-87928571D01*
X145714285Y-87142857D02*
X145642856Y-87000000D01*
X145499999Y-86928571D01*
X145285714Y-86928571D01*
X145142856Y-87000000D01*
X145071428Y-87142857D01*
X145071428Y-87928571D01*
X143714285Y-87928571D02*
X143714285Y-87142857D01*
X143785714Y-87000000D01*
X143928571Y-86928571D01*
X144214285Y-86928571D01*
X144357142Y-87000000D01*
X143714285Y-87857143D02*
X143857142Y-87928571D01*
X144214285Y-87928571D01*
X144357142Y-87857143D01*
X144428571Y-87714286D01*
X144428571Y-87571429D01*
X144357142Y-87428571D01*
X144214285Y-87357143D01*
X143857142Y-87357143D01*
X143714285Y-87285714D01*
X142785713Y-87928571D02*
X142928571Y-87857143D01*
X142999999Y-87714286D01*
X142999999Y-86428571D01*
X141285714Y-86928571D02*
X140714285Y-86928571D01*
X141071428Y-87928571D02*
X141071428Y-86642857D01*
X141000000Y-86500000D01*
X140857142Y-86428571D01*
X140714285Y-86428571D01*
X140214285Y-87928571D02*
X140214285Y-86928571D01*
X140214285Y-86428571D02*
X140285714Y-86500000D01*
X140214285Y-86571429D01*
X140142857Y-86500000D01*
X140214285Y-86428571D01*
X140214285Y-86571429D01*
X139285713Y-87928571D02*
X139428571Y-87857143D01*
X139499999Y-87714286D01*
X139499999Y-86428571D01*
X138499999Y-87928571D02*
X138642857Y-87857143D01*
X138714285Y-87714286D01*
X138714285Y-86428571D01*
X136857143Y-87857143D02*
X136714286Y-87928571D01*
X136428571Y-87928571D01*
X136285714Y-87857143D01*
X136214286Y-87714286D01*
X136214286Y-87642857D01*
X136285714Y-87500000D01*
X136428571Y-87428571D01*
X136642857Y-87428571D01*
X136785714Y-87357143D01*
X136857143Y-87214286D01*
X136857143Y-87142857D01*
X136785714Y-87000000D01*
X136642857Y-86928571D01*
X136428571Y-86928571D01*
X136285714Y-87000000D01*
X135000000Y-87857143D02*
X135142857Y-87928571D01*
X135428571Y-87928571D01*
X135571428Y-87857143D01*
X135642857Y-87714286D01*
X135642857Y-87142857D01*
X135571428Y-87000000D01*
X135428571Y-86928571D01*
X135142857Y-86928571D01*
X135000000Y-87000000D01*
X134928571Y-87142857D01*
X134928571Y-87285714D01*
X135642857Y-87428571D01*
X134285714Y-86928571D02*
X134285714Y-87928571D01*
X134285714Y-87071429D02*
X134214286Y-87000000D01*
X134071428Y-86928571D01*
X133857143Y-86928571D01*
X133714286Y-87000000D01*
X133642857Y-87142857D01*
X133642857Y-87928571D01*
X133000000Y-87857143D02*
X132857143Y-87928571D01*
X132571428Y-87928571D01*
X132428571Y-87857143D01*
X132357143Y-87714286D01*
X132357143Y-87642857D01*
X132428571Y-87500000D01*
X132571428Y-87428571D01*
X132785714Y-87428571D01*
X132928571Y-87357143D01*
X133000000Y-87214286D01*
X133000000Y-87142857D01*
X132928571Y-87000000D01*
X132785714Y-86928571D01*
X132571428Y-86928571D01*
X132428571Y-87000000D01*
X131499999Y-87928571D02*
X131642857Y-87857143D01*
X131714285Y-87785714D01*
X131785714Y-87642857D01*
X131785714Y-87214286D01*
X131714285Y-87071429D01*
X131642857Y-87000000D01*
X131499999Y-86928571D01*
X131285714Y-86928571D01*
X131142857Y-87000000D01*
X131071428Y-87071429D01*
X130999999Y-87214286D01*
X130999999Y-87642857D01*
X131071428Y-87785714D01*
X131142857Y-87857143D01*
X131285714Y-87928571D01*
X131499999Y-87928571D01*
X130357142Y-87928571D02*
X130357142Y-86928571D01*
X130357142Y-87214286D02*
X130285714Y-87071429D01*
X130214285Y-87000000D01*
X130071428Y-86928571D01*
X129928571Y-86928571D01*
D12*
X163926858Y-97165429D02*
X163418858Y-98689429D01*
X162910858Y-97165429D01*
X161822286Y-98616857D02*
X161967429Y-98689429D01*
X162257715Y-98689429D01*
X162402858Y-98616857D01*
X162475429Y-98471714D01*
X162475429Y-97891143D01*
X162402858Y-97746000D01*
X162257715Y-97673429D01*
X161967429Y-97673429D01*
X161822286Y-97746000D01*
X161749715Y-97891143D01*
X161749715Y-98036286D01*
X162475429Y-98181429D01*
X161096572Y-98689429D02*
X161096572Y-97673429D01*
X161096572Y-97963714D02*
X161024000Y-97818571D01*
X160951429Y-97746000D01*
X160806286Y-97673429D01*
X160661143Y-97673429D01*
X160153143Y-98544286D02*
X160080571Y-98616857D01*
X160153143Y-98689429D01*
X160225714Y-98616857D01*
X160153143Y-98544286D01*
X160153143Y-98689429D01*
X158266286Y-98689429D02*
X158266286Y-97673429D01*
X158266286Y-97963714D02*
X158193714Y-97818571D01*
X158121143Y-97746000D01*
X157976000Y-97673429D01*
X157830857Y-97673429D01*
X156669714Y-98616857D02*
X156814857Y-98689429D01*
X157105143Y-98689429D01*
X157250285Y-98616857D01*
X157322857Y-98544286D01*
X157395428Y-98399143D01*
X157395428Y-97963714D01*
X157322857Y-97818571D01*
X157250285Y-97746000D01*
X157105143Y-97673429D01*
X156814857Y-97673429D01*
X156669714Y-97746000D01*
X155218285Y-98689429D02*
X156089142Y-98689429D01*
X155653714Y-98689429D02*
X155653714Y-97165429D01*
X155798857Y-97383143D01*
X155943999Y-97528286D01*
X156089142Y-97600857D01*
D11*
X101491714Y-103459619D02*
X101491714Y-102443619D01*
X101249809Y-102443619D01*
X101104667Y-102492000D01*
X101007905Y-102588762D01*
X100959524Y-102685524D01*
X100911143Y-102879048D01*
X100911143Y-103024190D01*
X100959524Y-103217714D01*
X101007905Y-103314476D01*
X101104667Y-103411238D01*
X101249809Y-103459619D01*
X101491714Y-103459619D01*
X100475714Y-103459619D02*
X100475714Y-102782286D01*
X100475714Y-102975810D02*
X100427333Y-102879048D01*
X100378952Y-102830667D01*
X100282190Y-102782286D01*
X100185429Y-102782286D01*
X99411334Y-103459619D02*
X99411334Y-102927429D01*
X99459715Y-102830667D01*
X99556477Y-102782286D01*
X99750000Y-102782286D01*
X99846762Y-102830667D01*
X99411334Y-103411238D02*
X99508096Y-103459619D01*
X99750000Y-103459619D01*
X99846762Y-103411238D01*
X99895143Y-103314476D01*
X99895143Y-103217714D01*
X99846762Y-103120952D01*
X99750000Y-103072571D01*
X99508096Y-103072571D01*
X99411334Y-103024190D01*
X98927524Y-103459619D02*
X98927524Y-102782286D01*
X98927524Y-102443619D02*
X98975905Y-102492000D01*
X98927524Y-102540381D01*
X98879143Y-102492000D01*
X98927524Y-102443619D01*
X98927524Y-102540381D01*
X98443714Y-102782286D02*
X98443714Y-103459619D01*
X98443714Y-102879048D02*
X98395333Y-102830667D01*
X98298571Y-102782286D01*
X98153429Y-102782286D01*
X98056667Y-102830667D01*
X98008286Y-102927429D01*
X98008286Y-103459619D01*
X179346666Y-86427429D02*
X179685332Y-86427429D01*
X179685332Y-86959619D02*
X179685332Y-85943619D01*
X179201523Y-85943619D01*
X178379047Y-86282286D02*
X178379047Y-86959619D01*
X178814475Y-86282286D02*
X178814475Y-86814476D01*
X178766094Y-86911238D01*
X178669332Y-86959619D01*
X178524190Y-86959619D01*
X178427428Y-86911238D01*
X178379047Y-86862857D01*
X177750094Y-86959619D02*
X177846856Y-86911238D01*
X177895237Y-86814476D01*
X177895237Y-85943619D01*
X177217904Y-86959619D02*
X177314666Y-86911238D01*
X177363047Y-86814476D01*
X177363047Y-85943619D01*
X108814190Y-102959619D02*
X109297999Y-102959619D01*
X109297999Y-101943619D01*
X108330380Y-102959619D02*
X108427142Y-102911238D01*
X108475523Y-102862857D01*
X108523904Y-102766095D01*
X108523904Y-102475810D01*
X108475523Y-102379048D01*
X108427142Y-102330667D01*
X108330380Y-102282286D01*
X108185238Y-102282286D01*
X108088476Y-102330667D01*
X108040095Y-102379048D01*
X107991714Y-102475810D01*
X107991714Y-102766095D01*
X108040095Y-102862857D01*
X108088476Y-102911238D01*
X108185238Y-102959619D01*
X108330380Y-102959619D01*
X107653047Y-102282286D02*
X107459523Y-102959619D01*
X107266000Y-102475810D01*
X107072476Y-102959619D01*
X106878952Y-102282286D01*
X105717809Y-102959619D02*
X105717809Y-101943619D01*
X105717809Y-102330667D02*
X105621047Y-102282286D01*
X105427524Y-102282286D01*
X105330762Y-102330667D01*
X105282381Y-102379048D01*
X105234000Y-102475810D01*
X105234000Y-102766095D01*
X105282381Y-102862857D01*
X105330762Y-102911238D01*
X105427524Y-102959619D01*
X105621047Y-102959619D01*
X105717809Y-102911238D01*
X104363143Y-102959619D02*
X104363143Y-102427429D01*
X104411524Y-102330667D01*
X104508286Y-102282286D01*
X104701809Y-102282286D01*
X104798571Y-102330667D01*
X104363143Y-102911238D02*
X104459905Y-102959619D01*
X104701809Y-102959619D01*
X104798571Y-102911238D01*
X104846952Y-102814476D01*
X104846952Y-102717714D01*
X104798571Y-102620952D01*
X104701809Y-102572571D01*
X104459905Y-102572571D01*
X104363143Y-102524190D01*
X104024476Y-102282286D02*
X103637428Y-102282286D01*
X103879333Y-101943619D02*
X103879333Y-102814476D01*
X103830952Y-102911238D01*
X103734190Y-102959619D01*
X103637428Y-102959619D01*
X103443905Y-102282286D02*
X103056857Y-102282286D01*
X103298762Y-101943619D02*
X103298762Y-102814476D01*
X103250381Y-102911238D01*
X103153619Y-102959619D01*
X103056857Y-102959619D01*
X120184856Y-86022238D02*
X120039713Y-86070619D01*
X119797809Y-86070619D01*
X119701047Y-86022238D01*
X119652666Y-85973857D01*
X119604285Y-85877095D01*
X119604285Y-85780333D01*
X119652666Y-85683571D01*
X119701047Y-85635190D01*
X119797809Y-85586810D01*
X119991332Y-85538429D01*
X120088094Y-85490048D01*
X120136475Y-85441667D01*
X120184856Y-85344905D01*
X120184856Y-85248143D01*
X120136475Y-85151381D01*
X120088094Y-85103000D01*
X119991332Y-85054619D01*
X119749428Y-85054619D01*
X119604285Y-85103000D01*
X118781809Y-86022238D02*
X118878571Y-86070619D01*
X119072094Y-86070619D01*
X119168856Y-86022238D01*
X119217237Y-85925476D01*
X119217237Y-85538429D01*
X119168856Y-85441667D01*
X119072094Y-85393286D01*
X118878571Y-85393286D01*
X118781809Y-85441667D01*
X118733428Y-85538429D01*
X118733428Y-85635190D01*
X119217237Y-85731952D01*
X118297999Y-85393286D02*
X118297999Y-86070619D01*
X118297999Y-85490048D02*
X118249618Y-85441667D01*
X118152856Y-85393286D01*
X118007714Y-85393286D01*
X117910952Y-85441667D01*
X117862571Y-85538429D01*
X117862571Y-86070619D01*
X117427142Y-86022238D02*
X117330380Y-86070619D01*
X117136856Y-86070619D01*
X117040095Y-86022238D01*
X116991714Y-85925476D01*
X116991714Y-85877095D01*
X117040095Y-85780333D01*
X117136856Y-85731952D01*
X117281999Y-85731952D01*
X117378761Y-85683571D01*
X117427142Y-85586810D01*
X117427142Y-85538429D01*
X117378761Y-85441667D01*
X117281999Y-85393286D01*
X117136856Y-85393286D01*
X117040095Y-85441667D01*
X116411142Y-86070619D02*
X116507904Y-86022238D01*
X116556285Y-85973857D01*
X116604666Y-85877095D01*
X116604666Y-85586810D01*
X116556285Y-85490048D01*
X116507904Y-85441667D01*
X116411142Y-85393286D01*
X116266000Y-85393286D01*
X116169238Y-85441667D01*
X116120857Y-85490048D01*
X116072476Y-85586810D01*
X116072476Y-85877095D01*
X116120857Y-85973857D01*
X116169238Y-86022238D01*
X116266000Y-86070619D01*
X116411142Y-86070619D01*
X115637047Y-86070619D02*
X115637047Y-85393286D01*
X115637047Y-85586810D02*
X115588666Y-85490048D01*
X115540285Y-85441667D01*
X115443523Y-85393286D01*
X115346762Y-85393286D01*
X124635904Y-87800238D02*
X124732666Y-87848619D01*
X124926189Y-87848619D01*
X125022951Y-87800238D01*
X125071332Y-87751857D01*
X125119713Y-87655095D01*
X125119713Y-87364810D01*
X125071332Y-87268048D01*
X125022951Y-87219667D01*
X124926189Y-87171286D01*
X124732666Y-87171286D01*
X124635904Y-87219667D01*
X124055332Y-87848619D02*
X124152094Y-87800238D01*
X124200475Y-87751857D01*
X124248856Y-87655095D01*
X124248856Y-87364810D01*
X124200475Y-87268048D01*
X124152094Y-87219667D01*
X124055332Y-87171286D01*
X123910190Y-87171286D01*
X123813428Y-87219667D01*
X123765047Y-87268048D01*
X123716666Y-87364810D01*
X123716666Y-87655095D01*
X123765047Y-87751857D01*
X123813428Y-87800238D01*
X123910190Y-87848619D01*
X124055332Y-87848619D01*
X123281237Y-87171286D02*
X123281237Y-87848619D01*
X123281237Y-87268048D02*
X123232856Y-87219667D01*
X123136094Y-87171286D01*
X122990952Y-87171286D01*
X122894190Y-87219667D01*
X122845809Y-87316429D01*
X122845809Y-87848619D01*
X122507142Y-87171286D02*
X122120094Y-87171286D01*
X122361999Y-87848619D02*
X122361999Y-86977762D01*
X122313618Y-86881000D01*
X122216856Y-86832619D01*
X122120094Y-86832619D01*
X121781428Y-87848619D02*
X121781428Y-87171286D01*
X121781428Y-86832619D02*
X121829809Y-86881000D01*
X121781428Y-86929381D01*
X121733047Y-86881000D01*
X121781428Y-86832619D01*
X121781428Y-86929381D01*
X120862190Y-87171286D02*
X120862190Y-87993762D01*
X120910571Y-88090524D01*
X120958952Y-88138905D01*
X121055713Y-88187286D01*
X121200856Y-88187286D01*
X121297618Y-88138905D01*
X120862190Y-87800238D02*
X120958952Y-87848619D01*
X121152475Y-87848619D01*
X121249237Y-87800238D01*
X121297618Y-87751857D01*
X121345999Y-87655095D01*
X121345999Y-87364810D01*
X121297618Y-87268048D01*
X121249237Y-87219667D01*
X121152475Y-87171286D01*
X120958952Y-87171286D01*
X120862190Y-87219667D01*
X119942952Y-87171286D02*
X119942952Y-87848619D01*
X120378380Y-87171286D02*
X120378380Y-87703476D01*
X120329999Y-87800238D01*
X120233237Y-87848619D01*
X120088095Y-87848619D01*
X119991333Y-87800238D01*
X119942952Y-87751857D01*
X119459142Y-87848619D02*
X119459142Y-87171286D01*
X119459142Y-87364810D02*
X119410761Y-87268048D01*
X119362380Y-87219667D01*
X119265618Y-87171286D01*
X119168857Y-87171286D01*
X118394762Y-87848619D02*
X118394762Y-87316429D01*
X118443143Y-87219667D01*
X118539905Y-87171286D01*
X118733428Y-87171286D01*
X118830190Y-87219667D01*
X118394762Y-87800238D02*
X118491524Y-87848619D01*
X118733428Y-87848619D01*
X118830190Y-87800238D01*
X118878571Y-87703476D01*
X118878571Y-87606714D01*
X118830190Y-87509952D01*
X118733428Y-87461571D01*
X118491524Y-87461571D01*
X118394762Y-87413190D01*
X118056095Y-87171286D02*
X117669047Y-87171286D01*
X117910952Y-86832619D02*
X117910952Y-87703476D01*
X117862571Y-87800238D01*
X117765809Y-87848619D01*
X117669047Y-87848619D01*
X117330381Y-87848619D02*
X117330381Y-87171286D01*
X117330381Y-86832619D02*
X117378762Y-86881000D01*
X117330381Y-86929381D01*
X117282000Y-86881000D01*
X117330381Y-86832619D01*
X117330381Y-86929381D01*
X116701428Y-87848619D02*
X116798190Y-87800238D01*
X116846571Y-87751857D01*
X116894952Y-87655095D01*
X116894952Y-87364810D01*
X116846571Y-87268048D01*
X116798190Y-87219667D01*
X116701428Y-87171286D01*
X116556286Y-87171286D01*
X116459524Y-87219667D01*
X116411143Y-87268048D01*
X116362762Y-87364810D01*
X116362762Y-87655095D01*
X116411143Y-87751857D01*
X116459524Y-87800238D01*
X116556286Y-87848619D01*
X116701428Y-87848619D01*
X115927333Y-87171286D02*
X115927333Y-87848619D01*
X115927333Y-87268048D02*
X115878952Y-87219667D01*
X115782190Y-87171286D01*
X115637048Y-87171286D01*
X115540286Y-87219667D01*
X115491905Y-87316429D01*
X115491905Y-87848619D01*
D13*
X114428571Y-88178571D02*
X114428571Y-86678571D01*
X113571428Y-88178571D01*
X113571428Y-86678571D01*
X111999999Y-88035714D02*
X112071428Y-88107143D01*
X112285714Y-88178571D01*
X112428571Y-88178571D01*
X112642856Y-88107143D01*
X112785714Y-87964286D01*
X112857142Y-87821429D01*
X112928571Y-87535714D01*
X112928571Y-87321429D01*
X112857142Y-87035714D01*
X112785714Y-86892857D01*
X112642856Y-86750000D01*
X112428571Y-86678571D01*
X112285714Y-86678571D01*
X112071428Y-86750000D01*
X111999999Y-86821429D01*
X114464286Y-86178571D02*
X114464286Y-84678571D01*
X113607143Y-86178571D01*
X113607143Y-84678571D01*
X112607143Y-84678571D02*
X112321429Y-84678571D01*
X112178571Y-84750000D01*
X112035714Y-84892857D01*
X111964286Y-85178571D01*
X111964286Y-85678571D01*
X112035714Y-85964286D01*
X112178571Y-86107143D01*
X112321429Y-86178571D01*
X112607143Y-86178571D01*
X112750000Y-86107143D01*
X112892857Y-85964286D01*
X112964286Y-85678571D01*
X112964286Y-85178571D01*
X112892857Y-84892857D01*
X112750000Y-84750000D01*
X112607143Y-84678571D01*
D14*
X111000000Y-86000000D02*
X110500000Y-86000000D01*
X111000000Y-88250000D02*
X111000000Y-86000000D01*
X110500000Y-88250000D02*
X111000000Y-88250000D01*
X110500000Y-86000000D02*
X110500000Y-88250000D01*
X110250000Y-84750000D02*
X109750000Y-84750000D01*
X110250000Y-86750000D02*
X110250000Y-84750000D01*
X109750000Y-86750000D02*
X110250000Y-86750000D01*
X109750000Y-84750000D02*
X109750000Y-86750000D01*
D15*
X184600000Y-93950000D02*
G75*
G03X184600000Y-93950000I-6100000J0D01*
G01*
X109730000Y-90770000D02*
X109700000Y-90770000D01*
X103270000Y-90770000D02*
X103300000Y-90770000D01*
X103270000Y-97230000D02*
X103300000Y-97230000D01*
X109700000Y-97230000D02*
X109730000Y-97230000D01*
X107800000Y-90770000D02*
X105200000Y-90770000D01*
X109730000Y-97230000D02*
X109730000Y-90770000D01*
X107800000Y-97230000D02*
X105200000Y-97230000D01*
X103270000Y-97230000D02*
X103270000Y-90770000D01*
X104614000Y-101474000D02*
X104614000Y-100374000D01*
X104614000Y-100374000D02*
X107214000Y-100374000D01*
X104614000Y-101474000D02*
X107214000Y-101474000D01*
X105526000Y-84536000D02*
X105526000Y-88356000D01*
X105526000Y-88356000D02*
X103746000Y-88356000D01*
X103746000Y-88356000D02*
X103746000Y-84536000D01*
X105526000Y-84536000D02*
X103746000Y-84536000D01*
X102118000Y-92388000D02*
X101118000Y-93388000D01*
X97218000Y-86028000D02*
X102118000Y-86028000D01*
X102118000Y-86028000D02*
X102118000Y-92388000D01*
X101118000Y-93388000D02*
X97218000Y-93388000D01*
X97218000Y-93388000D02*
X97218000Y-86028000D01*
X102118000Y-101024000D02*
X101118000Y-102024000D01*
X97218000Y-94664000D02*
X102118000Y-94664000D01*
X102118000Y-94664000D02*
X102118000Y-101024000D01*
X101118000Y-102024000D02*
X97218000Y-102024000D01*
X97218000Y-102024000D02*
X97218000Y-94664000D01*
X107302000Y-88356000D02*
X107302000Y-84536000D01*
X107302000Y-84536000D02*
X109082000Y-84536000D01*
X109082000Y-84536000D02*
X109082000Y-88356000D01*
X107302000Y-88356000D02*
X109082000Y-88356000D01*
D16*
G36*
X119003464Y-94350427D02*
X118890882Y-94947618D01*
X118475469Y-95118865D01*
X118060055Y-95290112D01*
X117561698Y-94951233D01*
X117422131Y-94856877D01*
X117295971Y-94772630D01*
X117189104Y-94702338D01*
X117107417Y-94649847D01*
X117056798Y-94619004D01*
X117043013Y-94612353D01*
X117018179Y-94629458D01*
X116965111Y-94676744D01*
X116889759Y-94748172D01*
X116798070Y-94837700D01*
X116695992Y-94939289D01*
X116589473Y-95046898D01*
X116484463Y-95154487D01*
X116386908Y-95256015D01*
X116302757Y-95345441D01*
X116237959Y-95416726D01*
X116198462Y-95463828D01*
X116189019Y-95479592D01*
X116202608Y-95508653D01*
X116240706Y-95572321D01*
X116299306Y-95664367D01*
X116374402Y-95778564D01*
X116461991Y-95908684D01*
X116512745Y-95982901D01*
X116605254Y-96118422D01*
X116687459Y-96240716D01*
X116755369Y-96343695D01*
X116804999Y-96421273D01*
X116832359Y-96467361D01*
X116836470Y-96477047D01*
X116827150Y-96504574D01*
X116801745Y-96568728D01*
X116764088Y-96660490D01*
X116718013Y-96770839D01*
X116667353Y-96890755D01*
X116615940Y-97011219D01*
X116567610Y-97123209D01*
X116526193Y-97217707D01*
X116495525Y-97285692D01*
X116479438Y-97318143D01*
X116478488Y-97319420D01*
X116453227Y-97325617D01*
X116385954Y-97339440D01*
X116283639Y-97359532D01*
X116153258Y-97384534D01*
X116001783Y-97413086D01*
X115913406Y-97429551D01*
X115751547Y-97460369D01*
X115605350Y-97489694D01*
X115482212Y-97515921D01*
X115389530Y-97537446D01*
X115334698Y-97552665D01*
X115323676Y-97557493D01*
X115312881Y-97590174D01*
X115304170Y-97663985D01*
X115297539Y-97770292D01*
X115292981Y-97900467D01*
X115290490Y-98045876D01*
X115290061Y-98197890D01*
X115291688Y-98347877D01*
X115295364Y-98487206D01*
X115301084Y-98607245D01*
X115308842Y-98699365D01*
X115318631Y-98754932D01*
X115324503Y-98766500D01*
X115359600Y-98780365D01*
X115433971Y-98800188D01*
X115537776Y-98823639D01*
X115661180Y-98848391D01*
X115704258Y-98856398D01*
X115911952Y-98894441D01*
X116076015Y-98925079D01*
X116201869Y-98949529D01*
X116294934Y-98969009D01*
X116360632Y-98984736D01*
X116404382Y-98997928D01*
X116431607Y-99009804D01*
X116447727Y-99021580D01*
X116449982Y-99023908D01*
X116472496Y-99061400D01*
X116506841Y-99134365D01*
X116549588Y-99233867D01*
X116597307Y-99350973D01*
X116646569Y-99476748D01*
X116693944Y-99602257D01*
X116736004Y-99718565D01*
X116769319Y-99816739D01*
X116790458Y-99887843D01*
X116795994Y-99922942D01*
X116795533Y-99924172D01*
X116776776Y-99952861D01*
X116734223Y-100015985D01*
X116672346Y-100106973D01*
X116595617Y-100219255D01*
X116508508Y-100346260D01*
X116483701Y-100382353D01*
X116395247Y-100513203D01*
X116317411Y-100632591D01*
X116254433Y-100733662D01*
X116210554Y-100809559D01*
X116190014Y-100853427D01*
X116189019Y-100858817D01*
X116206277Y-100887144D01*
X116253964Y-100943261D01*
X116325949Y-101021137D01*
X116416102Y-101114740D01*
X116518294Y-101218041D01*
X116626394Y-101325006D01*
X116734271Y-101429606D01*
X116835795Y-101525809D01*
X116924837Y-101607584D01*
X116995266Y-101668900D01*
X117040952Y-101703726D01*
X117053590Y-101709412D01*
X117083008Y-101696020D01*
X117143238Y-101659899D01*
X117224470Y-101607136D01*
X117286969Y-101564667D01*
X117400214Y-101486740D01*
X117534325Y-101394984D01*
X117668844Y-101303375D01*
X117741166Y-101254346D01*
X117985961Y-101088770D01*
X118191449Y-101199875D01*
X118285063Y-101248548D01*
X118364669Y-101286381D01*
X118418532Y-101307958D01*
X118432242Y-101310961D01*
X118448729Y-101288793D01*
X118481254Y-101226149D01*
X118527391Y-101128809D01*
X118584709Y-101002549D01*
X118650783Y-100853150D01*
X118723184Y-100686388D01*
X118799483Y-100508042D01*
X118877253Y-100323891D01*
X118954065Y-100139712D01*
X119027493Y-99961285D01*
X119095107Y-99794387D01*
X119154479Y-99644797D01*
X119203183Y-99518293D01*
X119238789Y-99420654D01*
X119258869Y-99357657D01*
X119262099Y-99336021D01*
X119236503Y-99308424D01*
X119180461Y-99263625D01*
X119105688Y-99210934D01*
X119099412Y-99206765D01*
X118906154Y-99052069D01*
X118750325Y-98871591D01*
X118633275Y-98671102D01*
X118556354Y-98456374D01*
X118520913Y-98233177D01*
X118528302Y-98007281D01*
X118579872Y-97784459D01*
X118676973Y-97570479D01*
X118705541Y-97523664D01*
X118854131Y-97334618D01*
X119029672Y-97182812D01*
X119226089Y-97069034D01*
X119437306Y-96994075D01*
X119657246Y-96958722D01*
X119879836Y-96963767D01*
X120098998Y-97009999D01*
X120308657Y-97098206D01*
X120502738Y-97229179D01*
X120562773Y-97282337D01*
X120715564Y-97448739D01*
X120826902Y-97623912D01*
X120903276Y-97820266D01*
X120945812Y-98014717D01*
X120956313Y-98233342D01*
X120921299Y-98453052D01*
X120844326Y-98666420D01*
X120728952Y-98866022D01*
X120578734Y-99044429D01*
X120397226Y-99194217D01*
X120373372Y-99210006D01*
X120297798Y-99261712D01*
X120240348Y-99306512D01*
X120212882Y-99335117D01*
X120212482Y-99336021D01*
X120218379Y-99366964D01*
X120241754Y-99437191D01*
X120280178Y-99540925D01*
X120331222Y-99672390D01*
X120392457Y-99825807D01*
X120461455Y-99995401D01*
X120535786Y-100175393D01*
X120613021Y-100360008D01*
X120690731Y-100543468D01*
X120766488Y-100719996D01*
X120837862Y-100883814D01*
X120902425Y-101029147D01*
X120957747Y-101150217D01*
X121001399Y-101241247D01*
X121030953Y-101296460D01*
X121042855Y-101310961D01*
X121079222Y-101299669D01*
X121147269Y-101269385D01*
X121235263Y-101225520D01*
X121283649Y-101199875D01*
X121489136Y-101088770D01*
X121733931Y-101254346D01*
X121858893Y-101339170D01*
X121995704Y-101432516D01*
X122123911Y-101520408D01*
X122188128Y-101564667D01*
X122278448Y-101625318D01*
X122354928Y-101673381D01*
X122407592Y-101702770D01*
X122424697Y-101708982D01*
X122449594Y-101692223D01*
X122504694Y-101645436D01*
X122584656Y-101573480D01*
X122684139Y-101481212D01*
X122797799Y-101373490D01*
X122869684Y-101304326D01*
X122995448Y-101180757D01*
X123104136Y-101070234D01*
X123191354Y-100977485D01*
X123252710Y-100907237D01*
X123283808Y-100864220D01*
X123286791Y-100855490D01*
X123272946Y-100822284D01*
X123234687Y-100755142D01*
X123176258Y-100660863D01*
X123101902Y-100546245D01*
X123015864Y-100418083D01*
X122991397Y-100382353D01*
X122902245Y-100252489D01*
X122822261Y-100135569D01*
X122755919Y-100038162D01*
X122707688Y-99966839D01*
X122682042Y-99928170D01*
X122679564Y-99924172D01*
X122683270Y-99893355D01*
X122702938Y-99825599D01*
X122735139Y-99729839D01*
X122776444Y-99615009D01*
X122823424Y-99490044D01*
X122872650Y-99363879D01*
X122920691Y-99245448D01*
X122964118Y-99143685D01*
X122999503Y-99067526D01*
X123023415Y-99025904D01*
X123025115Y-99023908D01*
X123039737Y-99012013D01*
X123064434Y-99000250D01*
X123104627Y-98987401D01*
X123165736Y-98972249D01*
X123253182Y-98953576D01*
X123372387Y-98930165D01*
X123528772Y-98900797D01*
X123727756Y-98864255D01*
X123770839Y-98856398D01*
X123898529Y-98831727D01*
X124009846Y-98807593D01*
X124094954Y-98786324D01*
X124144016Y-98770248D01*
X124150594Y-98766500D01*
X124161435Y-98733273D01*
X124170246Y-98659021D01*
X124177023Y-98552376D01*
X124181759Y-98421967D01*
X124184449Y-98276427D01*
X124185086Y-98124386D01*
X124183665Y-97974476D01*
X124180179Y-97835328D01*
X124174623Y-97715572D01*
X124166991Y-97623841D01*
X124157277Y-97568766D01*
X124151421Y-97557493D01*
X124118819Y-97546123D01*
X124044581Y-97527624D01*
X123936103Y-97503602D01*
X123800782Y-97475662D01*
X123646014Y-97445408D01*
X123561692Y-97429551D01*
X123401703Y-97399644D01*
X123259032Y-97372550D01*
X123140651Y-97349631D01*
X123053534Y-97332243D01*
X123004654Y-97321747D01*
X122996609Y-97319420D01*
X122983012Y-97293186D01*
X122954270Y-97229995D01*
X122914214Y-97138877D01*
X122866675Y-97028857D01*
X122815484Y-96908965D01*
X122764473Y-96788227D01*
X122717473Y-96675671D01*
X122678315Y-96580326D01*
X122650830Y-96511217D01*
X122638850Y-96477374D01*
X122638627Y-96475895D01*
X122652208Y-96449197D01*
X122690284Y-96387760D01*
X122748852Y-96297689D01*
X122823911Y-96185090D01*
X122911459Y-96056070D01*
X122962352Y-95981961D01*
X123055090Y-95846077D01*
X123137458Y-95722709D01*
X123205438Y-95618097D01*
X123255011Y-95538483D01*
X123282157Y-95490107D01*
X123286078Y-95479262D01*
X123269224Y-95454020D01*
X123222631Y-95400124D01*
X123152251Y-95323613D01*
X123064034Y-95230523D01*
X122963934Y-95126895D01*
X122857901Y-95018764D01*
X122751888Y-94912170D01*
X122651847Y-94813150D01*
X122563729Y-94727742D01*
X122493486Y-94661985D01*
X122447071Y-94621916D01*
X122431543Y-94612353D01*
X122406260Y-94625800D01*
X122345788Y-94663575D01*
X122256007Y-94721835D01*
X122142796Y-94796734D01*
X122012036Y-94884425D01*
X121913400Y-94951233D01*
X121415042Y-95290112D01*
X120999629Y-95118865D01*
X120584215Y-94947618D01*
X120471633Y-94350427D01*
X120359050Y-93753235D01*
X119116047Y-93753235D01*
X119003464Y-94350427D01*
X119003464Y-94350427D01*
G37*
X119003464Y-94350427D02*
X118890882Y-94947618D01*
X118475469Y-95118865D01*
X118060055Y-95290112D01*
X117561698Y-94951233D01*
X117422131Y-94856877D01*
X117295971Y-94772630D01*
X117189104Y-94702338D01*
X117107417Y-94649847D01*
X117056798Y-94619004D01*
X117043013Y-94612353D01*
X117018179Y-94629458D01*
X116965111Y-94676744D01*
X116889759Y-94748172D01*
X116798070Y-94837700D01*
X116695992Y-94939289D01*
X116589473Y-95046898D01*
X116484463Y-95154487D01*
X116386908Y-95256015D01*
X116302757Y-95345441D01*
X116237959Y-95416726D01*
X116198462Y-95463828D01*
X116189019Y-95479592D01*
X116202608Y-95508653D01*
X116240706Y-95572321D01*
X116299306Y-95664367D01*
X116374402Y-95778564D01*
X116461991Y-95908684D01*
X116512745Y-95982901D01*
X116605254Y-96118422D01*
X116687459Y-96240716D01*
X116755369Y-96343695D01*
X116804999Y-96421273D01*
X116832359Y-96467361D01*
X116836470Y-96477047D01*
X116827150Y-96504574D01*
X116801745Y-96568728D01*
X116764088Y-96660490D01*
X116718013Y-96770839D01*
X116667353Y-96890755D01*
X116615940Y-97011219D01*
X116567610Y-97123209D01*
X116526193Y-97217707D01*
X116495525Y-97285692D01*
X116479438Y-97318143D01*
X116478488Y-97319420D01*
X116453227Y-97325617D01*
X116385954Y-97339440D01*
X116283639Y-97359532D01*
X116153258Y-97384534D01*
X116001783Y-97413086D01*
X115913406Y-97429551D01*
X115751547Y-97460369D01*
X115605350Y-97489694D01*
X115482212Y-97515921D01*
X115389530Y-97537446D01*
X115334698Y-97552665D01*
X115323676Y-97557493D01*
X115312881Y-97590174D01*
X115304170Y-97663985D01*
X115297539Y-97770292D01*
X115292981Y-97900467D01*
X115290490Y-98045876D01*
X115290061Y-98197890D01*
X115291688Y-98347877D01*
X115295364Y-98487206D01*
X115301084Y-98607245D01*
X115308842Y-98699365D01*
X115318631Y-98754932D01*
X115324503Y-98766500D01*
X115359600Y-98780365D01*
X115433971Y-98800188D01*
X115537776Y-98823639D01*
X115661180Y-98848391D01*
X115704258Y-98856398D01*
X115911952Y-98894441D01*
X116076015Y-98925079D01*
X116201869Y-98949529D01*
X116294934Y-98969009D01*
X116360632Y-98984736D01*
X116404382Y-98997928D01*
X116431607Y-99009804D01*
X116447727Y-99021580D01*
X116449982Y-99023908D01*
X116472496Y-99061400D01*
X116506841Y-99134365D01*
X116549588Y-99233867D01*
X116597307Y-99350973D01*
X116646569Y-99476748D01*
X116693944Y-99602257D01*
X116736004Y-99718565D01*
X116769319Y-99816739D01*
X116790458Y-99887843D01*
X116795994Y-99922942D01*
X116795533Y-99924172D01*
X116776776Y-99952861D01*
X116734223Y-100015985D01*
X116672346Y-100106973D01*
X116595617Y-100219255D01*
X116508508Y-100346260D01*
X116483701Y-100382353D01*
X116395247Y-100513203D01*
X116317411Y-100632591D01*
X116254433Y-100733662D01*
X116210554Y-100809559D01*
X116190014Y-100853427D01*
X116189019Y-100858817D01*
X116206277Y-100887144D01*
X116253964Y-100943261D01*
X116325949Y-101021137D01*
X116416102Y-101114740D01*
X116518294Y-101218041D01*
X116626394Y-101325006D01*
X116734271Y-101429606D01*
X116835795Y-101525809D01*
X116924837Y-101607584D01*
X116995266Y-101668900D01*
X117040952Y-101703726D01*
X117053590Y-101709412D01*
X117083008Y-101696020D01*
X117143238Y-101659899D01*
X117224470Y-101607136D01*
X117286969Y-101564667D01*
X117400214Y-101486740D01*
X117534325Y-101394984D01*
X117668844Y-101303375D01*
X117741166Y-101254346D01*
X117985961Y-101088770D01*
X118191449Y-101199875D01*
X118285063Y-101248548D01*
X118364669Y-101286381D01*
X118418532Y-101307958D01*
X118432242Y-101310961D01*
X118448729Y-101288793D01*
X118481254Y-101226149D01*
X118527391Y-101128809D01*
X118584709Y-101002549D01*
X118650783Y-100853150D01*
X118723184Y-100686388D01*
X118799483Y-100508042D01*
X118877253Y-100323891D01*
X118954065Y-100139712D01*
X119027493Y-99961285D01*
X119095107Y-99794387D01*
X119154479Y-99644797D01*
X119203183Y-99518293D01*
X119238789Y-99420654D01*
X119258869Y-99357657D01*
X119262099Y-99336021D01*
X119236503Y-99308424D01*
X119180461Y-99263625D01*
X119105688Y-99210934D01*
X119099412Y-99206765D01*
X118906154Y-99052069D01*
X118750325Y-98871591D01*
X118633275Y-98671102D01*
X118556354Y-98456374D01*
X118520913Y-98233177D01*
X118528302Y-98007281D01*
X118579872Y-97784459D01*
X118676973Y-97570479D01*
X118705541Y-97523664D01*
X118854131Y-97334618D01*
X119029672Y-97182812D01*
X119226089Y-97069034D01*
X119437306Y-96994075D01*
X119657246Y-96958722D01*
X119879836Y-96963767D01*
X120098998Y-97009999D01*
X120308657Y-97098206D01*
X120502738Y-97229179D01*
X120562773Y-97282337D01*
X120715564Y-97448739D01*
X120826902Y-97623912D01*
X120903276Y-97820266D01*
X120945812Y-98014717D01*
X120956313Y-98233342D01*
X120921299Y-98453052D01*
X120844326Y-98666420D01*
X120728952Y-98866022D01*
X120578734Y-99044429D01*
X120397226Y-99194217D01*
X120373372Y-99210006D01*
X120297798Y-99261712D01*
X120240348Y-99306512D01*
X120212882Y-99335117D01*
X120212482Y-99336021D01*
X120218379Y-99366964D01*
X120241754Y-99437191D01*
X120280178Y-99540925D01*
X120331222Y-99672390D01*
X120392457Y-99825807D01*
X120461455Y-99995401D01*
X120535786Y-100175393D01*
X120613021Y-100360008D01*
X120690731Y-100543468D01*
X120766488Y-100719996D01*
X120837862Y-100883814D01*
X120902425Y-101029147D01*
X120957747Y-101150217D01*
X121001399Y-101241247D01*
X121030953Y-101296460D01*
X121042855Y-101310961D01*
X121079222Y-101299669D01*
X121147269Y-101269385D01*
X121235263Y-101225520D01*
X121283649Y-101199875D01*
X121489136Y-101088770D01*
X121733931Y-101254346D01*
X121858893Y-101339170D01*
X121995704Y-101432516D01*
X122123911Y-101520408D01*
X122188128Y-101564667D01*
X122278448Y-101625318D01*
X122354928Y-101673381D01*
X122407592Y-101702770D01*
X122424697Y-101708982D01*
X122449594Y-101692223D01*
X122504694Y-101645436D01*
X122584656Y-101573480D01*
X122684139Y-101481212D01*
X122797799Y-101373490D01*
X122869684Y-101304326D01*
X122995448Y-101180757D01*
X123104136Y-101070234D01*
X123191354Y-100977485D01*
X123252710Y-100907237D01*
X123283808Y-100864220D01*
X123286791Y-100855490D01*
X123272946Y-100822284D01*
X123234687Y-100755142D01*
X123176258Y-100660863D01*
X123101902Y-100546245D01*
X123015864Y-100418083D01*
X122991397Y-100382353D01*
X122902245Y-100252489D01*
X122822261Y-100135569D01*
X122755919Y-100038162D01*
X122707688Y-99966839D01*
X122682042Y-99928170D01*
X122679564Y-99924172D01*
X122683270Y-99893355D01*
X122702938Y-99825599D01*
X122735139Y-99729839D01*
X122776444Y-99615009D01*
X122823424Y-99490044D01*
X122872650Y-99363879D01*
X122920691Y-99245448D01*
X122964118Y-99143685D01*
X122999503Y-99067526D01*
X123023415Y-99025904D01*
X123025115Y-99023908D01*
X123039737Y-99012013D01*
X123064434Y-99000250D01*
X123104627Y-98987401D01*
X123165736Y-98972249D01*
X123253182Y-98953576D01*
X123372387Y-98930165D01*
X123528772Y-98900797D01*
X123727756Y-98864255D01*
X123770839Y-98856398D01*
X123898529Y-98831727D01*
X124009846Y-98807593D01*
X124094954Y-98786324D01*
X124144016Y-98770248D01*
X124150594Y-98766500D01*
X124161435Y-98733273D01*
X124170246Y-98659021D01*
X124177023Y-98552376D01*
X124181759Y-98421967D01*
X124184449Y-98276427D01*
X124185086Y-98124386D01*
X124183665Y-97974476D01*
X124180179Y-97835328D01*
X124174623Y-97715572D01*
X124166991Y-97623841D01*
X124157277Y-97568766D01*
X124151421Y-97557493D01*
X124118819Y-97546123D01*
X124044581Y-97527624D01*
X123936103Y-97503602D01*
X123800782Y-97475662D01*
X123646014Y-97445408D01*
X123561692Y-97429551D01*
X123401703Y-97399644D01*
X123259032Y-97372550D01*
X123140651Y-97349631D01*
X123053534Y-97332243D01*
X123004654Y-97321747D01*
X122996609Y-97319420D01*
X122983012Y-97293186D01*
X122954270Y-97229995D01*
X122914214Y-97138877D01*
X122866675Y-97028857D01*
X122815484Y-96908965D01*
X122764473Y-96788227D01*
X122717473Y-96675671D01*
X122678315Y-96580326D01*
X122650830Y-96511217D01*
X122638850Y-96477374D01*
X122638627Y-96475895D01*
X122652208Y-96449197D01*
X122690284Y-96387760D01*
X122748852Y-96297689D01*
X122823911Y-96185090D01*
X122911459Y-96056070D01*
X122962352Y-95981961D01*
X123055090Y-95846077D01*
X123137458Y-95722709D01*
X123205438Y-95618097D01*
X123255011Y-95538483D01*
X123282157Y-95490107D01*
X123286078Y-95479262D01*
X123269224Y-95454020D01*
X123222631Y-95400124D01*
X123152251Y-95323613D01*
X123064034Y-95230523D01*
X122963934Y-95126895D01*
X122857901Y-95018764D01*
X122751888Y-94912170D01*
X122651847Y-94813150D01*
X122563729Y-94727742D01*
X122493486Y-94661985D01*
X122447071Y-94621916D01*
X122431543Y-94612353D01*
X122406260Y-94625800D01*
X122345788Y-94663575D01*
X122256007Y-94721835D01*
X122142796Y-94796734D01*
X122012036Y-94884425D01*
X121913400Y-94951233D01*
X121415042Y-95290112D01*
X120999629Y-95118865D01*
X120584215Y-94947618D01*
X120471633Y-94350427D01*
X120359050Y-93753235D01*
X119116047Y-93753235D01*
X119003464Y-94350427D01*
D17*
X179380952Y-100928571D02*
X179238095Y-100976190D01*
X179190476Y-101023810D01*
X179142857Y-101119048D01*
X179142857Y-101261905D01*
X179190476Y-101357143D01*
X179238095Y-101404762D01*
X179333333Y-101452381D01*
X179714286Y-101452381D01*
X179714286Y-100452381D01*
X179380952Y-100452381D01*
X179285714Y-100500000D01*
X179238095Y-100547619D01*
X179190476Y-100642857D01*
X179190476Y-100738095D01*
X179238095Y-100833333D01*
X179285714Y-100880952D01*
X179380952Y-100928571D01*
X179714286Y-100928571D01*
X178809524Y-100452381D02*
X178142857Y-100452381D01*
X178809524Y-101452381D01*
X178142857Y-101452381D01*
X177238095Y-101452381D02*
X177809524Y-101452381D01*
X177523810Y-101452381D02*
X177523810Y-100452381D01*
X177619048Y-100595238D01*
X177714286Y-100690476D01*
X177809524Y-100738095D01*
X181111429Y-97379048D02*
X181111429Y-98140953D01*
X181492381Y-97760001D02*
X180730476Y-97760001D01*
X107833333Y-90154762D02*
X107690476Y-90202381D01*
X107452380Y-90202381D01*
X107357142Y-90154762D01*
X107309523Y-90107143D01*
X107261904Y-90011905D01*
X107261904Y-89916667D01*
X107309523Y-89821429D01*
X107357142Y-89773810D01*
X107452380Y-89726190D01*
X107642857Y-89678571D01*
X107738095Y-89630952D01*
X107785714Y-89583333D01*
X107833333Y-89488095D01*
X107833333Y-89392857D01*
X107785714Y-89297619D01*
X107738095Y-89250000D01*
X107642857Y-89202381D01*
X107404761Y-89202381D01*
X107261904Y-89250000D01*
X106928571Y-89202381D02*
X106690476Y-90202381D01*
X106499999Y-89488095D01*
X106309523Y-90202381D01*
X106071428Y-89202381D01*
X105166666Y-90202381D02*
X105738095Y-90202381D01*
X105452381Y-90202381D02*
X105452381Y-89202381D01*
X105547619Y-89345238D01*
X105642857Y-89440476D01*
X105738095Y-89488095D01*
X110952381Y-92761905D02*
X110476190Y-92428571D01*
X110952381Y-92190476D02*
X109952381Y-92190476D01*
X109952381Y-92571429D01*
X110000000Y-92666667D01*
X110047619Y-92714286D01*
X110142857Y-92761905D01*
X110285714Y-92761905D01*
X110380952Y-92714286D01*
X110428571Y-92666667D01*
X110476190Y-92571429D01*
X110476190Y-92190476D01*
X110904762Y-93571429D02*
X110952381Y-93476191D01*
X110952381Y-93285714D01*
X110904762Y-93190476D01*
X110809524Y-93142857D01*
X110428571Y-93142857D01*
X110333333Y-93190476D01*
X110285714Y-93285714D01*
X110285714Y-93476191D01*
X110333333Y-93571429D01*
X110428571Y-93619048D01*
X110523810Y-93619048D01*
X110619048Y-93142857D01*
X110904762Y-94000000D02*
X110952381Y-94095238D01*
X110952381Y-94285714D01*
X110904762Y-94380953D01*
X110809524Y-94428572D01*
X110761905Y-94428572D01*
X110666667Y-94380953D01*
X110619048Y-94285714D01*
X110619048Y-94142857D01*
X110571429Y-94047619D01*
X110476190Y-94000000D01*
X110428571Y-94000000D01*
X110333333Y-94047619D01*
X110285714Y-94142857D01*
X110285714Y-94285714D01*
X110333333Y-94380953D01*
X110904762Y-95238096D02*
X110952381Y-95142858D01*
X110952381Y-94952381D01*
X110904762Y-94857143D01*
X110809524Y-94809524D01*
X110428571Y-94809524D01*
X110333333Y-94857143D01*
X110285714Y-94952381D01*
X110285714Y-95142858D01*
X110333333Y-95238096D01*
X110428571Y-95285715D01*
X110523810Y-95285715D01*
X110619048Y-94809524D01*
X110285714Y-95571429D02*
X110285714Y-95952381D01*
X109952381Y-95714286D02*
X110809524Y-95714286D01*
X110904762Y-95761905D01*
X110952381Y-95857143D01*
X110952381Y-95952381D01*
X107152095Y-99952381D02*
X107152095Y-98952381D01*
X106914000Y-98952381D01*
X106771142Y-99000000D01*
X106675904Y-99095238D01*
X106628285Y-99190476D01*
X106580666Y-99380952D01*
X106580666Y-99523810D01*
X106628285Y-99714286D01*
X106675904Y-99809524D01*
X106771142Y-99904762D01*
X106914000Y-99952381D01*
X107152095Y-99952381D01*
X105628285Y-99952381D02*
X106199714Y-99952381D01*
X105914000Y-99952381D02*
X105914000Y-98952381D01*
X106009238Y-99095238D01*
X106104476Y-99190476D01*
X106199714Y-99238095D01*
X102452381Y-85612667D02*
X103166667Y-85612667D01*
X103309524Y-85565047D01*
X103404762Y-85469809D01*
X103452381Y-85326952D01*
X103452381Y-85231714D01*
X103452381Y-86088857D02*
X102452381Y-86088857D01*
X102452381Y-86469810D01*
X102500000Y-86565048D01*
X102547619Y-86612667D01*
X102642857Y-86660286D01*
X102785714Y-86660286D01*
X102880952Y-86612667D01*
X102928571Y-86565048D01*
X102976190Y-86469810D01*
X102976190Y-86088857D01*
X103452381Y-87612667D02*
X103452381Y-87041238D01*
X103452381Y-87326952D02*
X102452381Y-87326952D01*
X102595238Y-87231714D01*
X102690476Y-87136476D01*
X102738095Y-87041238D01*
X100651333Y-84852381D02*
X100651333Y-85566667D01*
X100698953Y-85709524D01*
X100794191Y-85804762D01*
X100937048Y-85852381D01*
X101032286Y-85852381D01*
X100270381Y-84852381D02*
X99651333Y-84852381D01*
X99984667Y-85233333D01*
X99841809Y-85233333D01*
X99746571Y-85280952D01*
X99698952Y-85328571D01*
X99651333Y-85423810D01*
X99651333Y-85661905D01*
X99698952Y-85757143D01*
X99746571Y-85804762D01*
X99841809Y-85852381D01*
X100127524Y-85852381D01*
X100222762Y-85804762D01*
X100270381Y-85757143D01*
X97154762Y-86988095D02*
X97202381Y-87130952D01*
X97202381Y-87369048D01*
X97154762Y-87464286D01*
X97107143Y-87511905D01*
X97011905Y-87559524D01*
X96916667Y-87559524D01*
X96821429Y-87511905D01*
X96773810Y-87464286D01*
X96726190Y-87369048D01*
X96678571Y-87178571D01*
X96630952Y-87083333D01*
X96583333Y-87035714D01*
X96488095Y-86988095D01*
X96392857Y-86988095D01*
X96297619Y-87035714D01*
X96250000Y-87083333D01*
X96202381Y-87178571D01*
X96202381Y-87416667D01*
X96250000Y-87559524D01*
X96678571Y-87988095D02*
X96678571Y-88321429D01*
X97202381Y-88464286D02*
X97202381Y-87988095D01*
X96202381Y-87988095D01*
X96202381Y-88464286D01*
X97202381Y-88892857D02*
X96202381Y-88892857D01*
X97202381Y-89464286D01*
X96202381Y-89464286D01*
X97154762Y-89892857D02*
X97202381Y-90035714D01*
X97202381Y-90273810D01*
X97154762Y-90369048D01*
X97107143Y-90416667D01*
X97011905Y-90464286D01*
X96916667Y-90464286D01*
X96821429Y-90416667D01*
X96773810Y-90369048D01*
X96726190Y-90273810D01*
X96678571Y-90083333D01*
X96630952Y-89988095D01*
X96583333Y-89940476D01*
X96488095Y-89892857D01*
X96392857Y-89892857D01*
X96297619Y-89940476D01*
X96250000Y-89988095D01*
X96202381Y-90083333D01*
X96202381Y-90321429D01*
X96250000Y-90464286D01*
X96202381Y-91083333D02*
X96202381Y-91273810D01*
X96250000Y-91369048D01*
X96345238Y-91464286D01*
X96535714Y-91511905D01*
X96869048Y-91511905D01*
X97059524Y-91464286D01*
X97154762Y-91369048D01*
X97202381Y-91273810D01*
X97202381Y-91083333D01*
X97154762Y-90988095D01*
X97059524Y-90892857D01*
X96869048Y-90845238D01*
X96535714Y-90845238D01*
X96345238Y-90892857D01*
X96250000Y-90988095D01*
X96202381Y-91083333D01*
X97202381Y-92511905D02*
X96726190Y-92178571D01*
X97202381Y-91940476D02*
X96202381Y-91940476D01*
X96202381Y-92321429D01*
X96250000Y-92416667D01*
X96297619Y-92464286D01*
X96392857Y-92511905D01*
X96535714Y-92511905D01*
X96630952Y-92464286D01*
X96678571Y-92416667D01*
X96726190Y-92321429D01*
X96726190Y-91940476D01*
X100651333Y-93552381D02*
X100651333Y-94266667D01*
X100698953Y-94409524D01*
X100794191Y-94504762D01*
X100937048Y-94552381D01*
X101032286Y-94552381D01*
X99746571Y-93885714D02*
X99746571Y-94552381D01*
X99984667Y-93504762D02*
X100222762Y-94219048D01*
X99603714Y-94219048D01*
X96202381Y-97250000D02*
X96202381Y-97440477D01*
X96250000Y-97535715D01*
X96345238Y-97630953D01*
X96535714Y-97678572D01*
X96869048Y-97678572D01*
X97059524Y-97630953D01*
X97154762Y-97535715D01*
X97202381Y-97440477D01*
X97202381Y-97250000D01*
X97154762Y-97154762D01*
X97059524Y-97059524D01*
X96869048Y-97011905D01*
X96535714Y-97011905D01*
X96345238Y-97059524D01*
X96250000Y-97154762D01*
X96202381Y-97250000D01*
X96202381Y-98107143D02*
X97011905Y-98107143D01*
X97107143Y-98154762D01*
X97154762Y-98202381D01*
X97202381Y-98297619D01*
X97202381Y-98488096D01*
X97154762Y-98583334D01*
X97107143Y-98630953D01*
X97011905Y-98678572D01*
X96202381Y-98678572D01*
X96202381Y-99011905D02*
X96202381Y-99583334D01*
X97202381Y-99297619D02*
X96202381Y-99297619D01*
X105952381Y-85612667D02*
X106666667Y-85612667D01*
X106809524Y-85565047D01*
X106904762Y-85469809D01*
X106952381Y-85326952D01*
X106952381Y-85231714D01*
X106952381Y-86088857D02*
X105952381Y-86088857D01*
X105952381Y-86469810D01*
X106000000Y-86565048D01*
X106047619Y-86612667D01*
X106142857Y-86660286D01*
X106285714Y-86660286D01*
X106380952Y-86612667D01*
X106428571Y-86565048D01*
X106476190Y-86469810D01*
X106476190Y-86088857D01*
X106047619Y-87041238D02*
X106000000Y-87088857D01*
X105952381Y-87184095D01*
X105952381Y-87422191D01*
X106000000Y-87517429D01*
X106047619Y-87565048D01*
X106142857Y-87612667D01*
X106238095Y-87612667D01*
X106380952Y-87565048D01*
X106952381Y-86993619D01*
X106952381Y-87612667D01*
M02*
