G04 #@! TF.FileFunction,Legend,Top*
%FSLAX46Y46*%
G04 Gerber Fmt 4.6, Leading zero omitted, Abs format (unit mm)*
G04 Created by KiCad (PCBNEW 4.0.7-e2-6376~58~ubuntu16.04.1) date Tue Sep 12 22:43:55 2017*
%MOMM*%
%LPD*%
G01*
G04 APERTURE LIST*
%ADD10C,0.100000*%
%ADD11C,0.300000*%
%ADD12C,0.203200*%
%ADD13C,0.200000*%
%ADD14C,0.120000*%
%ADD15C,0.150000*%
G04 APERTURE END LIST*
D10*
D11*
X117214286Y-90628571D02*
X117571429Y-92128571D01*
X117857143Y-91057143D01*
X118142857Y-92128571D01*
X118500000Y-90628571D01*
X119714286Y-92128571D02*
X119714286Y-91342857D01*
X119642857Y-91200000D01*
X119500000Y-91128571D01*
X119214286Y-91128571D01*
X119071429Y-91200000D01*
X119714286Y-92057143D02*
X119571429Y-92128571D01*
X119214286Y-92128571D01*
X119071429Y-92057143D01*
X119000000Y-91914286D01*
X119000000Y-91771429D01*
X119071429Y-91628571D01*
X119214286Y-91557143D01*
X119571429Y-91557143D01*
X119714286Y-91485714D01*
X120428572Y-92128571D02*
X120428572Y-91128571D01*
X120428572Y-91414286D02*
X120500000Y-91271429D01*
X120571429Y-91200000D01*
X120714286Y-91128571D01*
X120857143Y-91128571D01*
X121357143Y-91128571D02*
X121357143Y-92128571D01*
X121357143Y-91271429D02*
X121428571Y-91200000D01*
X121571429Y-91128571D01*
X121785714Y-91128571D01*
X121928571Y-91200000D01*
X122000000Y-91342857D01*
X122000000Y-92128571D01*
X122714286Y-92128571D02*
X122714286Y-91128571D01*
X122714286Y-90628571D02*
X122642857Y-90700000D01*
X122714286Y-90771429D01*
X122785714Y-90700000D01*
X122714286Y-90628571D01*
X122714286Y-90771429D01*
X123428572Y-91128571D02*
X123428572Y-92128571D01*
X123428572Y-91271429D02*
X123500000Y-91200000D01*
X123642858Y-91128571D01*
X123857143Y-91128571D01*
X124000000Y-91200000D01*
X124071429Y-91342857D01*
X124071429Y-92128571D01*
X125428572Y-91128571D02*
X125428572Y-92342857D01*
X125357143Y-92485714D01*
X125285715Y-92557143D01*
X125142858Y-92628571D01*
X124928572Y-92628571D01*
X124785715Y-92557143D01*
X125428572Y-92057143D02*
X125285715Y-92128571D01*
X125000001Y-92128571D01*
X124857143Y-92057143D01*
X124785715Y-91985714D01*
X124714286Y-91842857D01*
X124714286Y-91414286D01*
X124785715Y-91271429D01*
X124857143Y-91200000D01*
X125000001Y-91128571D01*
X125285715Y-91128571D01*
X125428572Y-91200000D01*
X126142858Y-91985714D02*
X126214286Y-92057143D01*
X126142858Y-92128571D01*
X126071429Y-92057143D01*
X126142858Y-91985714D01*
X126142858Y-92128571D01*
X126142858Y-91557143D02*
X126071429Y-90700000D01*
X126142858Y-90628571D01*
X126214286Y-90700000D01*
X126142858Y-91557143D01*
X126142858Y-90628571D01*
X118571429Y-94678571D02*
X118071429Y-93964286D01*
X117714286Y-94678571D02*
X117714286Y-93178571D01*
X118285714Y-93178571D01*
X118428572Y-93250000D01*
X118500000Y-93321429D01*
X118571429Y-93464286D01*
X118571429Y-93678571D01*
X118500000Y-93821429D01*
X118428572Y-93892857D01*
X118285714Y-93964286D01*
X117714286Y-93964286D01*
X119785714Y-94607143D02*
X119642857Y-94678571D01*
X119357143Y-94678571D01*
X119214286Y-94607143D01*
X119142857Y-94464286D01*
X119142857Y-93892857D01*
X119214286Y-93750000D01*
X119357143Y-93678571D01*
X119642857Y-93678571D01*
X119785714Y-93750000D01*
X119857143Y-93892857D01*
X119857143Y-94035714D01*
X119142857Y-94178571D01*
X120428571Y-94607143D02*
X120571428Y-94678571D01*
X120857143Y-94678571D01*
X121000000Y-94607143D01*
X121071428Y-94464286D01*
X121071428Y-94392857D01*
X121000000Y-94250000D01*
X120857143Y-94178571D01*
X120642857Y-94178571D01*
X120500000Y-94107143D01*
X120428571Y-93964286D01*
X120428571Y-93892857D01*
X120500000Y-93750000D01*
X120642857Y-93678571D01*
X120857143Y-93678571D01*
X121000000Y-93750000D01*
X121714286Y-93678571D02*
X121714286Y-95178571D01*
X121714286Y-93750000D02*
X121857143Y-93678571D01*
X122142857Y-93678571D01*
X122285714Y-93750000D01*
X122357143Y-93821429D01*
X122428572Y-93964286D01*
X122428572Y-94392857D01*
X122357143Y-94535714D01*
X122285714Y-94607143D01*
X122142857Y-94678571D01*
X121857143Y-94678571D01*
X121714286Y-94607143D01*
X123642857Y-94607143D02*
X123500000Y-94678571D01*
X123214286Y-94678571D01*
X123071429Y-94607143D01*
X123000000Y-94464286D01*
X123000000Y-93892857D01*
X123071429Y-93750000D01*
X123214286Y-93678571D01*
X123500000Y-93678571D01*
X123642857Y-93750000D01*
X123714286Y-93892857D01*
X123714286Y-94035714D01*
X123000000Y-94178571D01*
X125000000Y-94607143D02*
X124857143Y-94678571D01*
X124571429Y-94678571D01*
X124428571Y-94607143D01*
X124357143Y-94535714D01*
X124285714Y-94392857D01*
X124285714Y-93964286D01*
X124357143Y-93821429D01*
X124428571Y-93750000D01*
X124571429Y-93678571D01*
X124857143Y-93678571D01*
X125000000Y-93750000D01*
X125428571Y-93678571D02*
X126000000Y-93678571D01*
X125642857Y-93178571D02*
X125642857Y-94464286D01*
X125714285Y-94607143D01*
X125857143Y-94678571D01*
X126000000Y-94678571D01*
X117857143Y-96228571D02*
X117857143Y-97728571D01*
X117857143Y-96300000D02*
X118000000Y-96228571D01*
X118285714Y-96228571D01*
X118428571Y-96300000D01*
X118500000Y-96371429D01*
X118571429Y-96514286D01*
X118571429Y-96942857D01*
X118500000Y-97085714D01*
X118428571Y-97157143D01*
X118285714Y-97228571D01*
X118000000Y-97228571D01*
X117857143Y-97157143D01*
X119428572Y-97228571D02*
X119285714Y-97157143D01*
X119214286Y-97085714D01*
X119142857Y-96942857D01*
X119142857Y-96514286D01*
X119214286Y-96371429D01*
X119285714Y-96300000D01*
X119428572Y-96228571D01*
X119642857Y-96228571D01*
X119785714Y-96300000D01*
X119857143Y-96371429D01*
X119928572Y-96514286D01*
X119928572Y-96942857D01*
X119857143Y-97085714D01*
X119785714Y-97157143D01*
X119642857Y-97228571D01*
X119428572Y-97228571D01*
X120785715Y-97228571D02*
X120642857Y-97157143D01*
X120571429Y-97014286D01*
X120571429Y-95728571D01*
X122000000Y-97228571D02*
X122000000Y-96442857D01*
X121928571Y-96300000D01*
X121785714Y-96228571D01*
X121500000Y-96228571D01*
X121357143Y-96300000D01*
X122000000Y-97157143D02*
X121857143Y-97228571D01*
X121500000Y-97228571D01*
X121357143Y-97157143D01*
X121285714Y-97014286D01*
X121285714Y-96871429D01*
X121357143Y-96728571D01*
X121500000Y-96657143D01*
X121857143Y-96657143D01*
X122000000Y-96585714D01*
X122714286Y-97228571D02*
X122714286Y-96228571D01*
X122714286Y-96514286D02*
X122785714Y-96371429D01*
X122857143Y-96300000D01*
X123000000Y-96228571D01*
X123142857Y-96228571D01*
X123642857Y-97228571D02*
X123642857Y-96228571D01*
X123642857Y-95728571D02*
X123571428Y-95800000D01*
X123642857Y-95871429D01*
X123714285Y-95800000D01*
X123642857Y-95728571D01*
X123642857Y-95871429D01*
X124142857Y-96228571D02*
X124714286Y-96228571D01*
X124357143Y-95728571D02*
X124357143Y-97014286D01*
X124428571Y-97157143D01*
X124571429Y-97228571D01*
X124714286Y-97228571D01*
X125071429Y-96228571D02*
X125428572Y-97228571D01*
X125785714Y-96228571D02*
X125428572Y-97228571D01*
X125285714Y-97585714D01*
X125214286Y-97657143D01*
X125071429Y-97728571D01*
D12*
X185349552Y-100888237D02*
X185390676Y-100764865D01*
X185390676Y-100559246D01*
X185349552Y-100476999D01*
X185308429Y-100435875D01*
X185226181Y-100394751D01*
X185143933Y-100394751D01*
X185061686Y-100435875D01*
X185020562Y-100476999D01*
X184979438Y-100559246D01*
X184938314Y-100723742D01*
X184897190Y-100805989D01*
X184856067Y-100847113D01*
X184773819Y-100888237D01*
X184691571Y-100888237D01*
X184609324Y-100847113D01*
X184568200Y-100805989D01*
X184527076Y-100723742D01*
X184527076Y-100518122D01*
X184568200Y-100394751D01*
X185390676Y-100024637D02*
X184527076Y-100024637D01*
X185390676Y-99531151D01*
X184527076Y-99531151D01*
X185308429Y-99119913D02*
X185349552Y-99078789D01*
X185390676Y-99119913D01*
X185349552Y-99161037D01*
X185308429Y-99119913D01*
X185390676Y-99119913D01*
X184856067Y-99119913D02*
X184897190Y-99078789D01*
X184938314Y-99119913D01*
X184897190Y-99161037D01*
X184856067Y-99119913D01*
X184938314Y-99119913D01*
X185390676Y-98708675D02*
X184527076Y-98708675D01*
X185061686Y-98626427D02*
X185390676Y-98379684D01*
X184814943Y-98379684D02*
X185143933Y-98708675D01*
X184527076Y-98091818D02*
X184527076Y-97516084D01*
X185390676Y-97886199D01*
X184527076Y-97022599D02*
X184527076Y-96940351D01*
X184568200Y-96858103D01*
X184609324Y-96816980D01*
X184691571Y-96775856D01*
X184856067Y-96734732D01*
X185061686Y-96734732D01*
X185226181Y-96775856D01*
X185308429Y-96816980D01*
X185349552Y-96858103D01*
X185390676Y-96940351D01*
X185390676Y-97022599D01*
X185349552Y-97104846D01*
X185308429Y-97145970D01*
X185226181Y-97187094D01*
X185061686Y-97228218D01*
X184856067Y-97228218D01*
X184691571Y-97187094D01*
X184609324Y-97145970D01*
X184568200Y-97104846D01*
X184527076Y-97022599D01*
X184609324Y-96405742D02*
X184568200Y-96364618D01*
X184527076Y-96282370D01*
X184527076Y-96076751D01*
X184568200Y-95994504D01*
X184609324Y-95953380D01*
X184691571Y-95912256D01*
X184773819Y-95912256D01*
X184897190Y-95953380D01*
X185390676Y-96446866D01*
X185390676Y-95912256D01*
X185390676Y-95501018D02*
X185390676Y-95336523D01*
X185349552Y-95254275D01*
X185308429Y-95213151D01*
X185185057Y-95130904D01*
X185020562Y-95089780D01*
X184691571Y-95089780D01*
X184609324Y-95130904D01*
X184568200Y-95172028D01*
X184527076Y-95254275D01*
X184527076Y-95418771D01*
X184568200Y-95501018D01*
X184609324Y-95542142D01*
X184691571Y-95583266D01*
X184897190Y-95583266D01*
X184979438Y-95542142D01*
X185020562Y-95501018D01*
X185061686Y-95418771D01*
X185061686Y-95254275D01*
X185020562Y-95172028D01*
X184979438Y-95130904D01*
X184897190Y-95089780D01*
X185390676Y-94267304D02*
X185390676Y-94760790D01*
X185390676Y-94514047D02*
X184527076Y-94514047D01*
X184650448Y-94596295D01*
X184732695Y-94678542D01*
X184773819Y-94760790D01*
X184527076Y-93732695D02*
X184527076Y-93650447D01*
X184568200Y-93568199D01*
X184609324Y-93527076D01*
X184691571Y-93485952D01*
X184856067Y-93444828D01*
X185061686Y-93444828D01*
X185226181Y-93485952D01*
X185308429Y-93527076D01*
X185349552Y-93568199D01*
X185390676Y-93650447D01*
X185390676Y-93732695D01*
X185349552Y-93814942D01*
X185308429Y-93856066D01*
X185226181Y-93897190D01*
X185061686Y-93938314D01*
X184856067Y-93938314D01*
X184691571Y-93897190D01*
X184609324Y-93856066D01*
X184568200Y-93814942D01*
X184527076Y-93732695D01*
X184938314Y-92786847D02*
X184938314Y-93074714D01*
X185390676Y-93074714D02*
X184527076Y-93074714D01*
X184527076Y-92663476D01*
X185308429Y-91840999D02*
X185349552Y-91882123D01*
X185390676Y-92005494D01*
X185390676Y-92087742D01*
X185349552Y-92211114D01*
X185267305Y-92293361D01*
X185185057Y-92334485D01*
X185020562Y-92375609D01*
X184897190Y-92375609D01*
X184732695Y-92334485D01*
X184650448Y-92293361D01*
X184568200Y-92211114D01*
X184527076Y-92087742D01*
X184527076Y-92005494D01*
X184568200Y-91882123D01*
X184609324Y-91840999D01*
X185390676Y-91100771D02*
X184938314Y-91100771D01*
X184856067Y-91141894D01*
X184814943Y-91224142D01*
X184814943Y-91388637D01*
X184856067Y-91470885D01*
X185349552Y-91100771D02*
X185390676Y-91183018D01*
X185390676Y-91388637D01*
X185349552Y-91470885D01*
X185267305Y-91512009D01*
X185185057Y-91512009D01*
X185102810Y-91470885D01*
X185061686Y-91388637D01*
X185061686Y-91183018D01*
X185020562Y-91100771D01*
X185472924Y-90895152D02*
X185472924Y-90237171D01*
X184527076Y-90113800D02*
X184527076Y-89579190D01*
X184856067Y-89867057D01*
X184856067Y-89743685D01*
X184897190Y-89661438D01*
X184938314Y-89620314D01*
X185020562Y-89579190D01*
X185226181Y-89579190D01*
X185308429Y-89620314D01*
X185349552Y-89661438D01*
X185390676Y-89743685D01*
X185390676Y-89990428D01*
X185349552Y-90072676D01*
X185308429Y-90113800D01*
X184527076Y-89291324D02*
X184527076Y-88715590D01*
X185390676Y-89085705D01*
X185390676Y-87934238D02*
X185390676Y-88427724D01*
X185390676Y-88180981D02*
X184527076Y-88180981D01*
X184650448Y-88263229D01*
X184732695Y-88345476D01*
X184773819Y-88427724D01*
X184527076Y-87646372D02*
X184527076Y-87070638D01*
X185390676Y-87440753D01*
D13*
X166250000Y-95500000D02*
X165250000Y-95500000D01*
X166250000Y-92500000D02*
X166250000Y-95500000D01*
X165250000Y-92500000D02*
X166250000Y-92500000D01*
X165250000Y-86750000D02*
X165250000Y-101250000D01*
D11*
X167428572Y-92832143D02*
X168571429Y-92832143D01*
X168000000Y-93403571D02*
X168000000Y-92260714D01*
X167428572Y-95382143D02*
X168571429Y-95382143D01*
X168000000Y-95953571D02*
X168000000Y-94810714D01*
X113928572Y-92832143D02*
X115071429Y-92832143D01*
X113928572Y-95382143D02*
X115071429Y-95382143D01*
X156071430Y-90853571D02*
X155214287Y-90853571D01*
X155642859Y-90853571D02*
X155642859Y-89353571D01*
X155500002Y-89567857D01*
X155357144Y-89710714D01*
X155214287Y-89782143D01*
X157357144Y-89853571D02*
X157357144Y-90853571D01*
X157000001Y-89282143D02*
X156642858Y-90353571D01*
X157571430Y-90353571D01*
X158857144Y-89353571D02*
X158142858Y-89353571D01*
X158071429Y-90067857D01*
X158142858Y-89996429D01*
X158285715Y-89925000D01*
X158642858Y-89925000D01*
X158785715Y-89996429D01*
X158857144Y-90067857D01*
X158928572Y-90210714D01*
X158928572Y-90567857D01*
X158857144Y-90710714D01*
X158785715Y-90782143D01*
X158642858Y-90853571D01*
X158285715Y-90853571D01*
X158142858Y-90782143D01*
X158071429Y-90710714D01*
X159857143Y-89353571D02*
X160000000Y-89353571D01*
X160142857Y-89425000D01*
X160214286Y-89496429D01*
X160285715Y-89639286D01*
X160357143Y-89925000D01*
X160357143Y-90282143D01*
X160285715Y-90567857D01*
X160214286Y-90710714D01*
X160142857Y-90782143D01*
X160000000Y-90853571D01*
X159857143Y-90853571D01*
X159714286Y-90782143D01*
X159642857Y-90710714D01*
X159571429Y-90567857D01*
X159500000Y-90282143D01*
X159500000Y-89925000D01*
X159571429Y-89639286D01*
X159642857Y-89496429D01*
X159714286Y-89425000D01*
X159857143Y-89353571D01*
X161285714Y-89353571D02*
X161428571Y-89353571D01*
X161571428Y-89425000D01*
X161642857Y-89496429D01*
X161714286Y-89639286D01*
X161785714Y-89925000D01*
X161785714Y-90282143D01*
X161714286Y-90567857D01*
X161642857Y-90710714D01*
X161571428Y-90782143D01*
X161428571Y-90853571D01*
X161285714Y-90853571D01*
X161142857Y-90782143D01*
X161071428Y-90710714D01*
X161000000Y-90567857D01*
X160928571Y-90282143D01*
X160928571Y-89925000D01*
X161000000Y-89639286D01*
X161071428Y-89496429D01*
X161142857Y-89425000D01*
X161285714Y-89353571D01*
X155964286Y-93403571D02*
X155250000Y-93403571D01*
X155250000Y-91903571D01*
X156464286Y-93403571D02*
X156464286Y-92403571D01*
X156464286Y-91903571D02*
X156392857Y-91975000D01*
X156464286Y-92046429D01*
X156535714Y-91975000D01*
X156464286Y-91903571D01*
X156464286Y-92046429D01*
X157178572Y-92832143D02*
X158321429Y-92832143D01*
X159035715Y-93403571D02*
X159035715Y-91903571D01*
X159964287Y-93403571D02*
X159821429Y-93332143D01*
X159750001Y-93260714D01*
X159678572Y-93117857D01*
X159678572Y-92689286D01*
X159750001Y-92546429D01*
X159821429Y-92475000D01*
X159964287Y-92403571D01*
X160178572Y-92403571D01*
X160321429Y-92475000D01*
X160392858Y-92546429D01*
X160464287Y-92689286D01*
X160464287Y-93117857D01*
X160392858Y-93260714D01*
X160321429Y-93332143D01*
X160178572Y-93403571D01*
X159964287Y-93403571D01*
X161107144Y-92403571D02*
X161107144Y-93403571D01*
X161107144Y-92546429D02*
X161178572Y-92475000D01*
X161321430Y-92403571D01*
X161535715Y-92403571D01*
X161678572Y-92475000D01*
X161750001Y-92617857D01*
X161750001Y-93403571D01*
X154964286Y-95953571D02*
X154964286Y-94453571D01*
X154964286Y-95025000D02*
X155107143Y-94953571D01*
X155392857Y-94953571D01*
X155535714Y-95025000D01*
X155607143Y-95096429D01*
X155678572Y-95239286D01*
X155678572Y-95667857D01*
X155607143Y-95810714D01*
X155535714Y-95882143D01*
X155392857Y-95953571D01*
X155107143Y-95953571D01*
X154964286Y-95882143D01*
X156964286Y-95953571D02*
X156964286Y-95167857D01*
X156892857Y-95025000D01*
X156750000Y-94953571D01*
X156464286Y-94953571D01*
X156321429Y-95025000D01*
X156964286Y-95882143D02*
X156821429Y-95953571D01*
X156464286Y-95953571D01*
X156321429Y-95882143D01*
X156250000Y-95739286D01*
X156250000Y-95596429D01*
X156321429Y-95453571D01*
X156464286Y-95382143D01*
X156821429Y-95382143D01*
X156964286Y-95310714D01*
X157464286Y-94953571D02*
X158035715Y-94953571D01*
X157678572Y-94453571D02*
X157678572Y-95739286D01*
X157750000Y-95882143D01*
X157892858Y-95953571D01*
X158035715Y-95953571D01*
X158321429Y-94953571D02*
X158892858Y-94953571D01*
X158535715Y-94453571D02*
X158535715Y-95739286D01*
X158607143Y-95882143D01*
X158750001Y-95953571D01*
X158892858Y-95953571D01*
X159964286Y-95882143D02*
X159821429Y-95953571D01*
X159535715Y-95953571D01*
X159392858Y-95882143D01*
X159321429Y-95739286D01*
X159321429Y-95167857D01*
X159392858Y-95025000D01*
X159535715Y-94953571D01*
X159821429Y-94953571D01*
X159964286Y-95025000D01*
X160035715Y-95167857D01*
X160035715Y-95310714D01*
X159321429Y-95453571D01*
X160678572Y-95953571D02*
X160678572Y-94953571D01*
X160678572Y-95239286D02*
X160750000Y-95096429D01*
X160821429Y-95025000D01*
X160964286Y-94953571D01*
X161107143Y-94953571D01*
X161464286Y-94953571D02*
X161821429Y-95953571D01*
X162178571Y-94953571D02*
X161821429Y-95953571D01*
X161678571Y-96310714D01*
X161607143Y-96382143D01*
X161464286Y-96453571D01*
X156750001Y-98503571D02*
X156607143Y-98432143D01*
X156535715Y-98360714D01*
X156464286Y-98217857D01*
X156464286Y-97789286D01*
X156535715Y-97646429D01*
X156607143Y-97575000D01*
X156750001Y-97503571D01*
X156964286Y-97503571D01*
X157107143Y-97575000D01*
X157178572Y-97646429D01*
X157250001Y-97789286D01*
X157250001Y-98217857D01*
X157178572Y-98360714D01*
X157107143Y-98432143D01*
X156964286Y-98503571D01*
X156750001Y-98503571D01*
X157892858Y-97503571D02*
X157892858Y-98503571D01*
X157892858Y-97646429D02*
X157964286Y-97575000D01*
X158107144Y-97503571D01*
X158321429Y-97503571D01*
X158464286Y-97575000D01*
X158535715Y-97717857D01*
X158535715Y-98503571D01*
X159464287Y-98503571D02*
X159321429Y-98432143D01*
X159250001Y-98289286D01*
X159250001Y-97003571D01*
X159892858Y-97503571D02*
X160250001Y-98503571D01*
X160607143Y-97503571D02*
X160250001Y-98503571D01*
X160107143Y-98860714D01*
X160035715Y-98932143D01*
X159892858Y-99003571D01*
D13*
X115750000Y-101250000D02*
X165250000Y-101250000D01*
X115750000Y-86750000D02*
X165250000Y-86750000D01*
X115750000Y-101250000D02*
X115750000Y-86750000D01*
D14*
X141054000Y-89332000D02*
X140354000Y-89332000D01*
X140354000Y-88132000D02*
X141054000Y-88132000D01*
X146638000Y-91430000D02*
X146638000Y-92130000D01*
X145438000Y-92130000D02*
X145438000Y-91430000D01*
X148316000Y-95762000D02*
X147316000Y-95762000D01*
X147316000Y-94402000D02*
X148316000Y-94402000D01*
D15*
X138629000Y-89870000D02*
X138629000Y-89895000D01*
X142779000Y-89870000D02*
X142779000Y-89985000D01*
X142779000Y-98770000D02*
X142779000Y-98655000D01*
X138629000Y-98770000D02*
X138629000Y-98655000D01*
X138629000Y-89870000D02*
X142779000Y-89870000D01*
X138629000Y-98770000D02*
X142779000Y-98770000D01*
X138629000Y-89895000D02*
X137254000Y-89895000D01*
D14*
X148750000Y-91280000D02*
X148750000Y-92280000D01*
X147390000Y-92280000D02*
X147390000Y-91280000D01*
X148551000Y-97995000D02*
X148551000Y-98655000D01*
X148551000Y-96325000D02*
X148551000Y-96995000D01*
X148551000Y-96335000D02*
X145816000Y-96335000D01*
X147141000Y-98655000D02*
X148551000Y-98655000D01*
X130288000Y-93868000D02*
X130288000Y-92938000D01*
X130288000Y-90708000D02*
X130288000Y-91638000D01*
X130288000Y-90708000D02*
X128128000Y-90708000D01*
X130288000Y-93868000D02*
X128828000Y-93868000D01*
X130288000Y-97932000D02*
X130288000Y-97002000D01*
X130288000Y-94772000D02*
X130288000Y-95702000D01*
X130288000Y-94772000D02*
X128128000Y-94772000D01*
X130288000Y-97932000D02*
X128828000Y-97932000D01*
X134600000Y-91190000D02*
X133600000Y-91190000D01*
X133600000Y-89830000D02*
X134600000Y-89830000D01*
X134600000Y-92968000D02*
X133600000Y-92968000D01*
X133600000Y-91608000D02*
X134600000Y-91608000D01*
X135288000Y-94582000D02*
X135288000Y-95582000D01*
X133928000Y-95582000D02*
X133928000Y-94582000D01*
X133510000Y-94582000D02*
X133510000Y-95582000D01*
X132150000Y-95582000D02*
X132150000Y-94582000D01*
X133600000Y-97450000D02*
X134600000Y-97450000D01*
X134600000Y-98810000D02*
X133600000Y-98810000D01*
D15*
X170416667Y-89202381D02*
X170416667Y-89916667D01*
X170369047Y-90059524D01*
X170273809Y-90154762D01*
X170130952Y-90202381D01*
X170035714Y-90202381D01*
X171416667Y-90202381D02*
X170845238Y-90202381D01*
X171130952Y-90202381D02*
X171130952Y-89202381D01*
X171035714Y-89345238D01*
X170940476Y-89440476D01*
X170845238Y-89488095D01*
X110916667Y-89202381D02*
X110916667Y-89916667D01*
X110869047Y-90059524D01*
X110773809Y-90154762D01*
X110630952Y-90202381D01*
X110535714Y-90202381D01*
X111345238Y-89297619D02*
X111392857Y-89250000D01*
X111488095Y-89202381D01*
X111726191Y-89202381D01*
X111821429Y-89250000D01*
X111869048Y-89297619D01*
X111916667Y-89392857D01*
X111916667Y-89488095D01*
X111869048Y-89630952D01*
X111297619Y-90202381D01*
X111916667Y-90202381D01*
X140537334Y-87857143D02*
X140489715Y-87904762D01*
X140346858Y-87952381D01*
X140251620Y-87952381D01*
X140108762Y-87904762D01*
X140013524Y-87809524D01*
X139965905Y-87714286D01*
X139918286Y-87523810D01*
X139918286Y-87380952D01*
X139965905Y-87190476D01*
X140013524Y-87095238D01*
X140108762Y-87000000D01*
X140251620Y-86952381D01*
X140346858Y-86952381D01*
X140489715Y-87000000D01*
X140537334Y-87047619D01*
X141489715Y-87952381D02*
X140918286Y-87952381D01*
X141204000Y-87952381D02*
X141204000Y-86952381D01*
X141108762Y-87095238D01*
X141013524Y-87190476D01*
X140918286Y-87238095D01*
X146357143Y-88666666D02*
X146404762Y-88714285D01*
X146452381Y-88857142D01*
X146452381Y-88952380D01*
X146404762Y-89095238D01*
X146309524Y-89190476D01*
X146214286Y-89238095D01*
X146023810Y-89285714D01*
X145880952Y-89285714D01*
X145690476Y-89238095D01*
X145595238Y-89190476D01*
X145500000Y-89095238D01*
X145452381Y-88952380D01*
X145452381Y-88857142D01*
X145500000Y-88714285D01*
X145547619Y-88666666D01*
X145547619Y-88285714D02*
X145500000Y-88238095D01*
X145452381Y-88142857D01*
X145452381Y-87904761D01*
X145500000Y-87809523D01*
X145547619Y-87761904D01*
X145642857Y-87714285D01*
X145738095Y-87714285D01*
X145880952Y-87761904D01*
X146452381Y-88333333D01*
X146452381Y-87714285D01*
X151083334Y-95534381D02*
X150750000Y-95058190D01*
X150511905Y-95534381D02*
X150511905Y-94534381D01*
X150892858Y-94534381D01*
X150988096Y-94582000D01*
X151035715Y-94629619D01*
X151083334Y-94724857D01*
X151083334Y-94867714D01*
X151035715Y-94962952D01*
X150988096Y-95010571D01*
X150892858Y-95058190D01*
X150511905Y-95058190D01*
X151464286Y-94629619D02*
X151511905Y-94582000D01*
X151607143Y-94534381D01*
X151845239Y-94534381D01*
X151940477Y-94582000D01*
X151988096Y-94629619D01*
X152035715Y-94724857D01*
X152035715Y-94820095D01*
X151988096Y-94962952D01*
X151416667Y-95534381D01*
X152035715Y-95534381D01*
X136738095Y-88452381D02*
X136738095Y-89261905D01*
X136785714Y-89357143D01*
X136833333Y-89404762D01*
X136928571Y-89452381D01*
X137119048Y-89452381D01*
X137214286Y-89404762D01*
X137261905Y-89357143D01*
X137309524Y-89261905D01*
X137309524Y-88452381D01*
X138309524Y-89452381D02*
X137738095Y-89452381D01*
X138023809Y-89452381D02*
X138023809Y-88452381D01*
X137928571Y-88595238D01*
X137833333Y-88690476D01*
X137738095Y-88738095D01*
X148522381Y-88666666D02*
X148046190Y-89000000D01*
X148522381Y-89238095D02*
X147522381Y-89238095D01*
X147522381Y-88857142D01*
X147570000Y-88761904D01*
X147617619Y-88714285D01*
X147712857Y-88666666D01*
X147855714Y-88666666D01*
X147950952Y-88714285D01*
X147998571Y-88761904D01*
X148046190Y-88857142D01*
X148046190Y-89238095D01*
X147522381Y-88333333D02*
X147522381Y-87666666D01*
X148522381Y-88095238D01*
X150488095Y-96947381D02*
X150488095Y-97756905D01*
X150535714Y-97852143D01*
X150583333Y-97899762D01*
X150678571Y-97947381D01*
X150869048Y-97947381D01*
X150964286Y-97899762D01*
X151011905Y-97852143D01*
X151059524Y-97756905D01*
X151059524Y-96947381D01*
X151488095Y-97042619D02*
X151535714Y-96995000D01*
X151630952Y-96947381D01*
X151869048Y-96947381D01*
X151964286Y-96995000D01*
X152011905Y-97042619D01*
X152059524Y-97137857D01*
X152059524Y-97233095D01*
X152011905Y-97375952D01*
X151440476Y-97947381D01*
X152059524Y-97947381D01*
X128654762Y-90547619D02*
X128559524Y-90500000D01*
X128464286Y-90404762D01*
X128321429Y-90261905D01*
X128226190Y-90214286D01*
X128130952Y-90214286D01*
X128178571Y-90452381D02*
X128083333Y-90404762D01*
X127988095Y-90309524D01*
X127940476Y-90119048D01*
X127940476Y-89785714D01*
X127988095Y-89595238D01*
X128083333Y-89500000D01*
X128178571Y-89452381D01*
X128369048Y-89452381D01*
X128464286Y-89500000D01*
X128559524Y-89595238D01*
X128607143Y-89785714D01*
X128607143Y-90119048D01*
X128559524Y-90309524D01*
X128464286Y-90404762D01*
X128369048Y-90452381D01*
X128178571Y-90452381D01*
X129559524Y-90452381D02*
X128988095Y-90452381D01*
X129273809Y-90452381D02*
X129273809Y-89452381D01*
X129178571Y-89595238D01*
X129083333Y-89690476D01*
X128988095Y-89738095D01*
X128654762Y-99297619D02*
X128559524Y-99250000D01*
X128464286Y-99154762D01*
X128321429Y-99011905D01*
X128226190Y-98964286D01*
X128130952Y-98964286D01*
X128178571Y-99202381D02*
X128083333Y-99154762D01*
X127988095Y-99059524D01*
X127940476Y-98869048D01*
X127940476Y-98535714D01*
X127988095Y-98345238D01*
X128083333Y-98250000D01*
X128178571Y-98202381D01*
X128369048Y-98202381D01*
X128464286Y-98250000D01*
X128559524Y-98345238D01*
X128607143Y-98535714D01*
X128607143Y-98869048D01*
X128559524Y-99059524D01*
X128464286Y-99154762D01*
X128369048Y-99202381D01*
X128178571Y-99202381D01*
X128988095Y-98297619D02*
X129035714Y-98250000D01*
X129130952Y-98202381D01*
X129369048Y-98202381D01*
X129464286Y-98250000D01*
X129511905Y-98297619D01*
X129559524Y-98392857D01*
X129559524Y-98488095D01*
X129511905Y-98630952D01*
X128940476Y-99202381D01*
X129559524Y-99202381D01*
X133933334Y-87952381D02*
X133600000Y-87476190D01*
X133361905Y-87952381D02*
X133361905Y-86952381D01*
X133742858Y-86952381D01*
X133838096Y-87000000D01*
X133885715Y-87047619D01*
X133933334Y-87142857D01*
X133933334Y-87285714D01*
X133885715Y-87380952D01*
X133838096Y-87428571D01*
X133742858Y-87476190D01*
X133361905Y-87476190D01*
X134266667Y-86952381D02*
X134885715Y-86952381D01*
X134552381Y-87333333D01*
X134695239Y-87333333D01*
X134790477Y-87380952D01*
X134838096Y-87428571D01*
X134885715Y-87523810D01*
X134885715Y-87761905D01*
X134838096Y-87857143D01*
X134790477Y-87904762D01*
X134695239Y-87952381D01*
X134409524Y-87952381D01*
X134314286Y-87904762D01*
X134266667Y-87857143D01*
X133933334Y-89452381D02*
X133600000Y-88976190D01*
X133361905Y-89452381D02*
X133361905Y-88452381D01*
X133742858Y-88452381D01*
X133838096Y-88500000D01*
X133885715Y-88547619D01*
X133933334Y-88642857D01*
X133933334Y-88785714D01*
X133885715Y-88880952D01*
X133838096Y-88928571D01*
X133742858Y-88976190D01*
X133361905Y-88976190D01*
X134790477Y-88785714D02*
X134790477Y-89452381D01*
X134552381Y-88404762D02*
X134314286Y-89119048D01*
X134933334Y-89119048D01*
X136702381Y-95248666D02*
X136226190Y-95582000D01*
X136702381Y-95820095D02*
X135702381Y-95820095D01*
X135702381Y-95439142D01*
X135750000Y-95343904D01*
X135797619Y-95296285D01*
X135892857Y-95248666D01*
X136035714Y-95248666D01*
X136130952Y-95296285D01*
X136178571Y-95343904D01*
X136226190Y-95439142D01*
X136226190Y-95820095D01*
X135702381Y-94343904D02*
X135702381Y-94820095D01*
X136178571Y-94867714D01*
X136130952Y-94820095D01*
X136083333Y-94724857D01*
X136083333Y-94486761D01*
X136130952Y-94391523D01*
X136178571Y-94343904D01*
X136273810Y-94296285D01*
X136511905Y-94296285D01*
X136607143Y-94343904D01*
X136654762Y-94391523D01*
X136702381Y-94486761D01*
X136702381Y-94724857D01*
X136654762Y-94820095D01*
X136607143Y-94867714D01*
X131832381Y-94666666D02*
X131356190Y-95000000D01*
X131832381Y-95238095D02*
X130832381Y-95238095D01*
X130832381Y-94857142D01*
X130880000Y-94761904D01*
X130927619Y-94714285D01*
X131022857Y-94666666D01*
X131165714Y-94666666D01*
X131260952Y-94714285D01*
X131308571Y-94761904D01*
X131356190Y-94857142D01*
X131356190Y-95238095D01*
X130832381Y-93809523D02*
X130832381Y-94000000D01*
X130880000Y-94095238D01*
X130927619Y-94142857D01*
X131070476Y-94238095D01*
X131260952Y-94285714D01*
X131641905Y-94285714D01*
X131737143Y-94238095D01*
X131784762Y-94190476D01*
X131832381Y-94095238D01*
X131832381Y-93904761D01*
X131784762Y-93809523D01*
X131737143Y-93761904D01*
X131641905Y-93714285D01*
X131403810Y-93714285D01*
X131308571Y-93761904D01*
X131260952Y-93809523D01*
X131213333Y-93904761D01*
X131213333Y-94095238D01*
X131260952Y-94190476D01*
X131308571Y-94238095D01*
X131403810Y-94285714D01*
X130797619Y-96142857D02*
X130750000Y-96095238D01*
X130702381Y-96000000D01*
X130702381Y-95761904D01*
X130750000Y-95666666D01*
X130797619Y-95619047D01*
X130892857Y-95571428D01*
X130988095Y-95571428D01*
X131130952Y-95619047D01*
X131702381Y-96190476D01*
X131702381Y-95571428D01*
X130702381Y-94952381D02*
X130702381Y-94857142D01*
X130750000Y-94761904D01*
X130797619Y-94714285D01*
X130892857Y-94666666D01*
X131083333Y-94619047D01*
X131321429Y-94619047D01*
X131511905Y-94666666D01*
X131607143Y-94714285D01*
X131654762Y-94761904D01*
X131702381Y-94857142D01*
X131702381Y-94952381D01*
X131654762Y-95047619D01*
X131607143Y-95095238D01*
X131511905Y-95142857D01*
X131321429Y-95190476D01*
X131083333Y-95190476D01*
X130892857Y-95142857D01*
X130797619Y-95095238D01*
X130750000Y-95047619D01*
X130702381Y-94952381D01*
X130702381Y-94000000D02*
X130702381Y-93904761D01*
X130750000Y-93809523D01*
X130797619Y-93761904D01*
X130892857Y-93714285D01*
X131083333Y-93666666D01*
X131321429Y-93666666D01*
X131511905Y-93714285D01*
X131607143Y-93761904D01*
X131654762Y-93809523D01*
X131702381Y-93904761D01*
X131702381Y-94000000D01*
X131654762Y-94095238D01*
X131607143Y-94142857D01*
X131511905Y-94190476D01*
X131321429Y-94238095D01*
X131083333Y-94238095D01*
X130892857Y-94190476D01*
X130797619Y-94142857D01*
X130750000Y-94095238D01*
X130702381Y-94000000D01*
X131702381Y-93238095D02*
X130702381Y-93238095D01*
X131321429Y-93142857D02*
X131702381Y-92857142D01*
X131035714Y-92857142D02*
X131416667Y-93238095D01*
X133933334Y-100202381D02*
X133600000Y-99726190D01*
X133361905Y-100202381D02*
X133361905Y-99202381D01*
X133742858Y-99202381D01*
X133838096Y-99250000D01*
X133885715Y-99297619D01*
X133933334Y-99392857D01*
X133933334Y-99535714D01*
X133885715Y-99630952D01*
X133838096Y-99678571D01*
X133742858Y-99726190D01*
X133361905Y-99726190D01*
X134885715Y-100202381D02*
X134314286Y-100202381D01*
X134600000Y-100202381D02*
X134600000Y-99202381D01*
X134504762Y-99345238D01*
X134409524Y-99440476D01*
X134314286Y-99488095D01*
M02*
